<svg width="24" height="24" fill="none" xmlns="http://www.w3.org/2000/svg"><path d="M4.418 17.61h-.002a1.5 1.5 0 01-1.048-1.023 25.494 25.494 0 01-.382-4.58h0v-.011a25.645 25.645 0 01.392-4.586c.153-.504.55-.897 1.056-1.046.282-.072.852-.142 1.633-.198a61.212 61.212 0 012.51-.116C10.294 6 11.855 6 11.98 6h.098a82.873 82.873 0 01.943.008c.612.008 1.437.023 2.306.05.872.028 1.78.07 2.561.129.81.061 1.398.137 1.68.214l.002.001c.504.137.9.525 1.049 1.024A24.24 24.24 0 0121 12.019v.016a25.558 25.558 0 01-.394 4.582 1.51 1.51 0 01-1.05 1.022c-.278.073-.85.145-1.639.202-.763.056-1.652.094-2.51.12-1.716.05-3.277.051-3.401.051h-.097l-.207-.001a129.758 129.758 0 01-3.035-.058 61.012 61.012 0 01-2.56-.128c-.81-.061-1.402-.137-1.689-.215zm6.087-9.471l-1.498-.863-.001 1.728-.005 6L9 16.735l1.5-.863 5.212-3 1.505-.867-1.505-.867-5.207-3z" fill="#000" stroke="#fff" stroke-width="2"/></svg>