<?xml version="1.0" standalone="no"?>
<!DOCTYPE svg PUBLIC "-//W3C//DTD SVG 20010904//EN"
 "http://www.w3.org/TR/2001/REC-SVG-20010904/DTD/svg10.dtd">
<svg version="1.0" xmlns="http://www.w3.org/2000/svg"
 width="700.000000pt" height="700.000000pt" viewBox="0 0 700.000000 700.000000"
 preserveAspectRatio="xMidYMid meet">
<metadata>
Created by potrace 1.14, written by Peter Selinger 2001-2017
</metadata>
<g transform="translate(0.000000,700.000000) scale(0.100000,-0.100000)"
fill="#000000" stroke="none">
<path d="M1015 6990 c-22 -4 -58 -10 -80 -13 -70 -10 -225 -65 -311 -111 -162
-86 -329 -236 -424 -378 -78 -119 -154 -298 -175 -413 -3 -16 -9 -48 -13 -70
-4 -22 -7 -629 -7 -1350 0 -1055 3 -1321 13 -1365 8 -30 16 -66 18 -79 9 -43
45 -143 76 -211 79 -170 242 -360 396 -463 95 -64 238 -131 337 -158 153 -42
220 -45 868 -45 339 1 617 -1 618 -4 0 -3 2 -42 4 -87 8 -174 30 -325 72 -488
69 -272 175 -507 331 -735 303 -443 738 -763 1247 -919 55 -16 111 -32 125
-35 14 -3 61 -12 105 -21 173 -35 288 -44 500 -40 176 4 218 6 285 19 14 3 45
8 70 11 80 11 242 53 365 95 567 196 1048 616 1313 1150 66 133 89 187 123
288 29 85 75 249 84 301 2 14 7 42 10 61 23 123 32 266 29 445 -1 110 -5 216
-9 235 -3 19 -13 78 -21 130 -64 392 -268 823 -534 1125 -270 308 -623 545
-995 672 -86 29 -183 57 -235 68 -8 2 -35 8 -60 13 -25 6 -63 13 -85 16 -23 4
-52 8 -65 11 -39 8 -188 19 -257 19 -56 1 -63 3 -64 21 0 11 -2 304 -4 650 -1
347 -6 648 -9 670 -9 55 -44 196 -55 220 -100 224 -152 306 -276 430 -129 131
-293 233 -459 286 -172 56 -83 53 -1501 55 -720 1 -1328 -2 -1350 -6z"/>
</g>
</svg>
