<svg version="1.0" xmlns="http://www.w3.org/2000/svg" width="933.333" height="933.333" viewBox="0 0 700 700"><path d="M101.5 1c-2.2.4-5.8 1-8 1.3-7 1-22.5 6.5-31.1 11.1C46.2 22 29.5 37 20 51.2 12.2 63.1 4.6 81 2.5 92.5c-.3 1.6-.9 4.8-1.3 7s-.7 62.9-.7 135C.5 340 .8 366.6 1.8 371c.8 3 1.6 6.6 1.8 7.9.9 4.3 4.5 14.3 7.6 21.1 7.9 17 24.2 36 39.6 46.3 9.5 6.4 23.8 13.1 33.7 15.8 15.3 4.2 22 4.5 86.8 4.5 33.9-.1 61.7.1 61.8.4 0 .3.2 4.2.4 8.7.8 17.4 3 32.5 7.2 48.8 6.9 27.2 17.5 50.7 33.1 73.5 30.3 44.3 73.8 76.3 124.7 91.9 5.5 1.6 11.1 3.2 12.5 3.5 1.4.3 6.1 1.2 10.5 2.1 17.3 3.5 28.8 4.4 50 4 17.6-.4 21.8-.6 28.5-1.9 1.4-.3 4.5-.8 7-1.1 8-1.1 24.2-5.3 36.5-9.5 56.7-19.6 104.8-61.6 131.3-115 6.6-13.3 8.9-18.7 12.3-28.8 2.9-8.5 7.5-24.9 8.4-30.1.2-1.4.7-4.2 1-6.1 2.3-12.3 3.2-26.6 2.9-44.5-.1-11-.5-21.6-.9-23.5-.3-1.9-1.3-7.8-2.1-13-6.4-39.2-26.8-82.3-53.4-112.5-27-30.8-62.3-54.5-99.5-67.2-8.6-2.9-18.3-5.7-23.5-6.8-.8-.2-3.5-.8-6-1.3-2.5-.6-6.3-1.3-8.5-1.6-2.3-.4-5.2-.8-6.5-1.1-3.9-.8-18.8-1.9-25.7-1.9-5.6-.1-6.3-.3-6.4-2.1 0-1.1-.2-30.4-.4-65-.1-34.7-.6-64.8-.9-67-.9-5.5-4.4-19.6-5.5-22-10-22.4-15.2-30.6-27.6-43-12.9-13.1-29.3-23.3-45.9-28.6C369.4.3 378.3.6 236.5.4c-72-.1-132.8.2-135 .6z"/></svg>