<svg width="346" height="346" fill="none" xmlns="http://www.w3.org/2000/svg"><path d="M73.276 272.33a8.495 8.495 0 01.56-6.672 65.387 65.387 0 00-15.154-9.697c-3.979 4.162-8.937 10.148-10.847 12.162 3.287-2.17 33.429 19.426 34.612 24.817.559-7.429-7.088-14.081-9.17-20.61zm87.564-12.126a7.931 7.931 0 01-1.873-5.555 69.55 69.55 0 00-17.191-.692 50.98 50.98 0 01-.519 5.489c-.625 3.979-1.512 5.555-2.137 9.27.953-3.583 37.965 3.057 39.674 7.198-1.322-7.952-13.253-9.925-17.954-15.71zm156.59-47.925c-1.939-1.384-6.574-4.207-12.629-7.823l-28.199 5.95-8.279-39.017 4.634-.986c-3.643-24.433-4.345-28.265-7.428-41.285-8.972 9.571-30.668 14.48-40.003 11.866.246.737.427 1.211 1.249 3.189-15.224 33.231-17.585 39.312-18.046 44.769-.519 6.401.165 10.682 12.392 58.179 7.439 2.076 19.873-1.422 23.93-5.719-3.419-14.759-6.903-29.451-10.683-48.68a31.431 31.431 0 011.643-3.748 127.323 127.323 0 006.377-29.846c6.104 27.663 7.898 37.09 12.096 41.778 4.241 4.701 9.169 7.692 50.193 30.794 6.152-1.593 13.816-12.594 12.753-19.421zm-235.577-12.49c-19.953 2.462-23.009 2.815-40.002 5.029l35.105 24.58c1.515-1.533 8.624-8.726 10.124-10.288-.796-2.514-3.962-14.266-5.227-19.321zm-27.971-3.845l.066-6.179a6.156 6.156 0 00-5.226 6.804l.822 5.882 5.127-.658-.789-5.849zm21.721-2.664a6.053 6.053 0 00-2.076-3.845 16.043 16.043 0 01-3.944.854 87.51 87.51 0 01.657 3.09c.27.27.189.211 1.02 6.401l5.127-.657-.784-5.843z" fill="#09AFF4"/><path d="M317.399 215.5a25.003 25.003 0 01-10.19 15.12c.519 6.706 3.386 21.99 6.114 26.099 5.363-6.41 12.359-29.484 12.721-38.326a60.667 60.667 0 00-8.645-2.893zm-74.222 27.478a34.217 34.217 0 01-17.783 4.766 72.84 72.84 0 00-11.406 20.933c8.477-.954 27.545-9.5 33.856-15.975a50.876 50.876 0 00-4.667-9.724zM80.706 293.805c-7.321-1.783-35.9-20.653-33.105-25.484 2.517-3.021 30.908 17.386 34.456 23.761.81 1.467.401 2.152-1.351 1.723zm81.948-23.615c-10.345-2.15-22.057-3.404-23.401-1.664-2.879 3.723 17.838 7.266 22.516 7.873 7.733 1.014 14.9 1.277 16.691.365 3.686-1.87-11.507-5.676-15.806-6.574zm2.883-11.829c-.066-1.183-1.644-2.695-6.541-3.681a7.786 7.786 0 001.873 5.555c3.32 0 4.734-.888 4.668-1.874zm-28.826-1.839c-.131 1.414 1.545 2.4 4.569 2.959.263-1.841.428-3.649.519-5.49-3.477.428-4.956 1.357-5.088 2.531zm-78.033-.594c-1.413 1.446-3.114 3.385-4.832 5.324-2.564-2.103-3.46-4.47-2.53-5.719l.197-.23c.953-.887 3.287-.986 7.165.625zm15.192 9.733c4.076 3.484 5.627 6.055 5.096 7.166-.456.955-2.433.92-5.687-.493a8.176 8.176 0 01.592-6.673zm152.24-123.07c-2.148-6.01-.221-.121-5.686-15.58a116.385 116.385 0 011.019 19.656c1.979-1.676 3.59-3.123 4.667-4.076z" fill="#E9E9E9"/><path d="M264.342 124.284c-8.053 9.169-31.486 15.12-40.562 12.129a441.858 441.858 0 001.709 4.602c9.536 2.669 31.184-2.491 40.003-11.899-.392-1.643-.754-3.287-1.15-4.832zm-21.953 34.846a127.393 127.393 0 01-6.376 29.846c1.709-3.386 4.569-8.251 9.169-17.191l-2.793-12.655zm58.673-16.7a25.798 25.798 0 01-1.578-4.273c1.99.085 3.049.575 3.46 1.211.756 1.159-.429 2.59-1.882 3.062zm-16.37-1.216c-2.366 1.085-3.287 2.169-3.254 2.958.099 1.019 1.348 1.677 3.616 1.282.529-1.057-.145-3.076-.362-4.24zm-23.338-28.73c-2.86-.394-6.542-.788-11.374-1.249a103.711 103.711 0 0113.148 8.086c-.688-2.695-1.314-5.062-1.774-6.837zm-35.069-35.135a24.329 24.329 0 01-2.768 6.278c.065-.92.065-2.076.164-3.517.728-.756 1.583-1.677 2.604-2.761zm-2.634-14.268c-.197-2.3-.953-2.768-7.593-3.188-7.034-.493-7.56.657-6.837 4.405.494 2.53 1.808 3.254 4.471 3.254 1.643 0 3.806-.296 6.541-.592 2.104 2.663 3.484 4.043 3.484 2.433 0-3.057 3.189-2.992 3.254 1.903 1.184 1.21 2.498 2.662 3.912 4.075-1.446-11.632-1.742-11.796-7.232-12.29zm3.223 31.886a18.935 18.935 0 001.939-3.714c-.986-1.413-1.873-2.893-2.768-4.438-.591 1.384-1.211 2.794-1.742 4.175a13.718 13.718 0 001.384 3.944c-.394 3.715-2.432 30.306-2.432 32.049a33.744 33.744 0 004.076 6.475 39.82 39.82 0 004.733-6.311c-.654-4.931-4.664-30.405-5.19-32.18zm-41.449 52.92c.594-.424 1.808-.23 3.55.92-1.479 1.249-2.334 2.005-2.958 2.531-1.348-1.676-1.379-2.889-.592-3.451zm13.969 12.62c1.019 1.903 1.211 3.155.855 3.78a.323.323 0 01-.132.164c-.591.625-2.136.296-3.846-1.183 1.217-1.085 3.123-2.761 3.123-2.761zM53.092 175.43a45.553 45.553 0 00-.099 3.089c-2.4.099-3.532-.327-3.583-.953-.046-.59 1.15-1.446 3.682-2.136zm18.472-.065c.098.591-.756 1.314-3.353 1.709a5.44 5.44 0 01-.756-3.024c2.63.159 4.01.723 4.109 1.315zm38.719-43.258c-.754 9.223-1.023 18.991-1.211 23.437-15.02.361-27.706 2.695-33.524 6.968.033 1.775.066 3.517.164 5.19 8.745-6.335 27.824-7.425 38.655-7.626-1.769-6.556-3.119-19.054-4.084-27.969zm-33.329 7.398a150.38 150.38 0 00-.493 4.996 315.893 315.893 0 01-5.687 1.808c-2.136.656-4.24 1.249-5.686 1.676a143.948 143.948 0 0011.866-8.48zm44.015-37.342c-.104.166-.225.32-.362.46-.806.839-3.377.725-5.678.364a13.682 13.682 0 01-.797-4.275c2.827 2.827 5.719 5.062 6.837 3.451zm.852-22.811c.197-3.615-4.306-2.892-4.671-.854a2.5 2.5 0 00-4.671 1.183c-1.61-1.903-4.897-1.21-4.339 1.677-2.268-2.203-8.086-.888 1.211 16.895a142.53 142.53 0 005.26-4.7c-2.63-4.11.394-6.056 1.742-3.386.723 1.413 2.076 1.282 1.903-2.696a17.34 17.34 0 003.089-1.117 11.09 11.09 0 004.799-4.076c1.725-2.761-1.595-6.048-4.323-2.926zm-8.417 118.89c2.005 16.731 2.498 22.878 2.4 26.362a322.893 322.893 0 00-13.909-33.268c3.16 1.976 6.973 4.211 11.509 6.906zm191.009-41.877l1.277 6.08 5.062-1.085-1.512-7.067a5.23 5.23 0 00-5.424-4.109c.455 2.028.654 4.104.597 6.181zm-17.521-2.631l-.328.066a5.184 5.184 0 00-1.878.793 5.179 5.179 0 00-1.423 1.456 5.175 5.175 0 00-.71 3.931l1.447 7.067 5.062-1.085c-.059-.282-1.976-11.65-2.17-12.228z" fill="#E9E9E9"/><path d="M304.413 156.365l1.476 6.998 5.062-1.085-1.711-7.985a5.23 5.23 0 00-5.424-4.109c.455 2.028.654 4.104.597 6.181zm-17.521-2.631l-.328.066a5.184 5.184 0 00-1.878.793 5.179 5.179 0 00-1.423 1.456 5.175 5.175 0 00-.71 3.931l1.627 8.024 5.062-1.084c-.059-.282-2.156-12.608-2.35-13.186z" stroke="#000" stroke-width=".565" stroke-linejoin="round"/><path d="M51.48 170.072c1.281-.59 1.281 2.235.23 2.564-1.053.329-1.021-2.201-.23-2.564zm104.034 1.449c.667-1.277 3.38-1.121 2.826.131-.553 1.253-3.636 1.42-2.826-.131zm46.476-12.558c.263 1.348 2.681-.519 2.268-1.643-.414-1.125-2.564.131-2.268 1.643zm96.146-27.216c1.282-.015 2.076 2.926.493 2.893-1.583-.033-1.873-2.877-.493-2.893zm29.945 29.315l.329 21.625a.456.456 0 01-.362.46l-7.56 1.61 1.019 4.734-4.897 1.051-1.019-4.733-25.244 5.363 1.019 4.733-4.898 1.052-1.017-4.73-7.56 1.611a.518.518 0 01-.519-.263l-8.477-19.895 7.785 36.749 59.264-12.589-7.863-36.778z" fill="#E9E9E9"/><path d="M327.127 158.863l-58.344 12.425 9.204 21.596 7.231-1.545-.986-4.602 4.898-1.052.986 4.602 25.244-5.358-.953-4.602 4.897-1.051.987 4.601 7.198-1.512-.362-23.502z" fill="#E9E9E9"/><path d="M276.677 210.43l-8.347-39.046 59.256-12.622 8.356 39.079-59.265 12.589zm1.755-41.224l4.645-6.594m19.134-27.248l35.138-50.192-62.059-43.454-29.55 42.172m-4.929 139.172l14.725-21.07m-153.276 45.13l81.649 57.161 39.707-56.668M61.208 125.898l-9.105-6.377L8.648 181.58l68.304 47.826m104.231-53.315l-15.876 22.68-5.555-3.879M139.834 95.79l18.276-26.13 17.256 12.063 20.38-29.057" stroke="#000" stroke-width=".565" stroke-linecap="round" stroke-linejoin="round"/><path d="M182.894 54.9l12.852-2.235 2.268 12.82M59.827 91.058l11.833-2.104c7.043-1.28 5.028-11.702-1.84-10.453l-6.607 1.118c-7.036 1.199-8.718-9.28-1.841-10.453l11.833-2.103m-9.238-2.371l5.095 28.729m108.276 127.603l14.265-2.531m-8.382-5.885l2.498 14.299m80.596 21.235l19.953-3.517m-11.734-8.218l3.517 19.985m-168.986 33.856a4.634 4.634 0 10.002-9.268 4.634 4.634 0 00-.002 9.268zm-43.189-49.604l-25.507 3.189-4.767-38.233 46.282-5.784m39.447-113.402a11.027 11.027 0 004.861-4.103c1.677-2.769-1.577-6.081-4.339-2.926.198-3.648-4.273-2.892-4.671-.855a2.502 2.502 0 00-2.782-1.171 2.507 2.507 0 00-1.889 2.355c-1.61-1.903-4.897-1.211-4.338 1.676-2.268-2.202-8.086-.887 1.211 16.895m5.543 4.704a13.543 13.543 0 01-.765-4.275c2.595 2.621 5.292 4.761 6.564 3.776" stroke="#000" stroke-width=".565" stroke-linecap="round" stroke-linejoin="round"/><path d="M78.795 124.747c-3.583 26.428-4.388 41.42-1.48 55.682 2.65 12.987 7.364 30.536 9.796 38.721-11.307 11.537-33.462 33.659-35.796 36.42" stroke="#000" stroke-width=".565" stroke-linecap="round" stroke-linejoin="round"/><path d="M53.845 261.287c-2.564-2.103-3.446-4.465-2.53-5.719 1.29-1.768 6.347-1.289 16.237 5.363 8.747 5.882 12.17 10.325 11.406 11.937-.455.955-2.432.92-5.687-.493m67.976-12.893c-3.024-.559-4.716-1.547-4.569-2.958.209-2.007 4.404-3.256 15.416-2.63 10.38.59 13.321 2.825 13.444 4.47.072.986-1.348 1.874-4.701 1.874" stroke="#000" stroke-width=".565" stroke-linecap="round" stroke-linejoin="round"/><path d="M78.926 272.822c34.349-37.34 35.845-39.742 36.676-45.887.451-3.321.328-7.494-2.203-28.728m-65.766 70.149c2.106-3.615 37.143 21.695 34.711 25.343-1.9 2.86-37.831-19.983-34.71-25.343zm91.479.463c.32-3.945 40.329 3.352 39.739 7.461-.461 3.221-40.212-1.645-39.739-7.461zm-80.436-12.887c-3.517 3.648-9.138 10.38-11.044 12.392m26.237-2.663c-5.03 9.105 10.058 17.75 8.477 28.038m56.763-24.883c.855-5.161 2.236-6.18 2.696-14.825m17.19.693c-.519 10.814 18.571 11.175 19.886 21.595" stroke="#000" stroke-width=".565" stroke-linecap="round" stroke-linejoin="round"/><path d="M136.709 256.522c.428-10.847-.887-40.101-1.413-44.868-31.752-20.346-43.98-24.159-45.952-33.133m76.194 79.843c-2.005-52.724-2.595-58.836-6.738-65.017-4.047-6.046-7.396-8.612-25.047-19.426" stroke="#000" stroke-width=".565" stroke-linecap="round" stroke-linejoin="round"/><path d="M49.408 177.571c-1.972-26.329-1.773-36.574 2.432-42.802 6.055-8.938 23.634-18.639 42.14-23.528 23.239-6.148 32.673-5.292 36.913-1.479 3.46 3.125 4.498 8.024 5.522 40.491 6.359.752 21.137 2.534 24.127 3.062 4.24 3.714 4.963 16.435 0 21.135-23.207 0-33.794-.257-38.458-3.188-7.204-4.527-8.547-8.842-11.834-39.115-.754 9.205-1.05 18.931-1.211 23.389m25.468-5.511l1.903.225" stroke="#000" stroke-width=".565" stroke-linecap="round" stroke-linejoin="round"/><path d="M52.957 178.525c-2.4.066-3.52-.328-3.583-.953-.102-1.019 3.32-2.638 10.65-3.353 7.495-.731 11.34.132 11.505 1.118.098.592-.756 1.315-3.353 1.709m8.289-32.545c-3.254 1.085-8.58 2.696-11.373 3.46a131.351 131.351 0 0011.866-8.447m-5.397 35.856c-.328-6.903-.789-21.596-.789-29.064m-21.987 22.323c2.86-4.109 19.624-5.555 22.385-2.768m79.609-13.862c4.141 3.78 3.747 18.144-1.512 22.417m-73.564-6.708c6.77-4.896 20.96-7.394 38.636-7.626m-38.801 2.434c6.34-4.671 20.933-7.033 37.778-7.035" stroke="#000" stroke-width=".565" stroke-linecap="round" stroke-linejoin="round"/><path d="M67.454 174.021a5.273 5.273 0 00.986 3.319c.519.658 3.979 3.742 4.733 4.865.83 1.244 1.249 6.476.592 7.034-.855.725-6.607 1.315-8.908 1.315-1.644 0-1.25-2.794 4.174-4.174-4.498.263-7.527-1.052-8.283-4.964m-7.662-5.982a100.06 100.06 0 00.263 14.495m4.374.427c-.173-2.991 3.39-3.385 3.747-.519.267 2.137.398 3.649.559 5.363a2 2 0 01-1.545 2.367 2.002 2.002 0 01-2.367-1.545 55.35 55.35 0 01-.394-5.666z" stroke="#000" stroke-width=".565" stroke-linecap="round" stroke-linejoin="round"/><path d="M69.588 190.226c.296 1.384.535 2.496.79 3.714a1.999 1.999 0 01-1.338 2.384 2 2 0 01-1.466-.101 1.994 1.994 0 01-1.003-1.072 36.326 36.326 0 01-.854-4.602m-11.773-.192c0-2.893 3.46-3.09 3.65-.296.137 2.076.172 3.55.23 5.19a1.945 1.945 0 01-3.847.591c-.162-1.377-.032-2.856-.032-5.485zm11.7.197c.262 1.577.432 2.826.624 4.207a2.037 2.037 0 01-3.944 1.019 57.73 57.73 0 01-.658-5.752c-.266-2.564 2.235-3.353 3.353-1.841M177.208 173c.387-2.73-2.676-3.521-3.353-.954a92.067 92.067 0 00-.854 3.46 1.843 1.843 0 003.55.986 34.8 34.8 0 00.657-3.492zm-3.487-.823c.707-2.716-2.51-3.718-3.353-1.151a156.024 156.024 0 00-1.019 3.189c-.77 2.583 2.732 3.716 3.452 1.446.396-1.249.705-2.662.92-3.484zm-3.55-.786c.828-2.605-2.031-3.71-3.221-1.314-.327.659-.831 1.837-1.282 3.024a1.838 1.838 0 103.287 1.643c.353-.759.944-2.501 1.216-3.353zm10.485 2.104c.089-2.662-2.802-3.287-3.287-.756a66.462 66.462 0 00-.558 3.682 1.791 1.791 0 001.577 1.695 1.797 1.797 0 001.94-1.268c.173-1.111.282-2.23.328-3.353zm-25.934 80.63c-1.384-44.67-.887-51.967-4.141-56.799-4.604-6.837-10.133-9.878-35.829-25.113-4.209-2.494-5.456-5.292-5.653-11.937m-7.205 31.036a332.126 332.126 0 0113.909 33.297M213.726 67.52c2.268 12.976 2.925 14.922 4.963 15.154 2.005.228 3.254-.592 7.626-5.325a17.764 17.764 0 01-2.741 6.342" stroke="#000" stroke-width=".565" stroke-linecap="round" stroke-linejoin="round"/><path d="M223.649 63.083c-.23-2.268-.986-2.728-7.56-3.188-7.034-.493-7.56.657-6.837 4.405.756 4.108 3.78 3.451 10.978 2.662 2.104 2.662 3.485 4.076 3.485 2.432 0-3.056 3.188-2.99 3.254 1.903a25.406 25.406 0 003.913 4.326c-1.448-11.65-1.74-12.047-7.233-12.54zm.006 17.035c.223 2.941-.145 6.505-2.271 7.716-6.213 3.583-8.707 5.03-10.815 8.02-4.036 5.725-3.78 9.533-4.536 34.974-7.626 6.574-17.127 13.97-20.609 17.092" stroke="#000" stroke-width=".565" stroke-linecap="round" stroke-linejoin="round"/><path d="M186.014 151.341c-1.384-1.676-1.384-2.884-.592-3.419 1.092-.743 4.235.464 9.04 5.95 5.155 5.882 6.465 9.264 5.785 10.453-.467.818-2.137.591-3.979-1.019m88.817-17.85c-2.268.394-3.529-.262-3.616-1.282-.114-1.346 2.502-3.438 10.091-5.095 8.517-1.858 11.391-.692 11.571.789a2.674 2.674 0 01-2.076 2.564m-19.585 1.776c-5.49-23.963-6.055-26.421-8.316-28.071-3.097-2.26-5.26-3.156-23.207-4.832a103.711 103.711 0 0113.148 8.086m41.679 85.067c6.055 3.648 10.715 6.442 12.655 7.823 1.15 7.266-7.298 18.276-12.754 19.426-41.022-23.108-45.949-26.102-50.192-30.794-4.04-4.474-5.457-11.735-12.13-41.745a13.483 13.483 0 01-4.24-.953" stroke="#000" stroke-width=".565" stroke-linecap="round" stroke-linejoin="round"/><path d="M261.352 112.52c1.84 7.034 6.079 23.403 8.053 35.203 1.083 6.476 2.399 15.224 3.55 22.681m-57.686-70.342a53.14 53.14 0 000 10.978c.271 2.502 9.499 28.372 11.504 33.133-15.224 33.166-17.61 39.313-18.046 44.736-.519 6.401.165 10.683 12.392 58.18 7.462 2.202 20.38-1.742 23.897-5.719-3.419-14.759-6.903-29.485-10.683-48.681 1.282-3.681 4.24-8.184 10.814-20.933m72.251 43.713a67.097 67.097 0 018.678 2.892c-.362 8.842-7.363 31.917-12.721 38.327-2.728-4.109-5.588-19.394-6.114-26.099" stroke="#000" stroke-width=".565" stroke-linecap="round" stroke-linejoin="round"/><path d="M243.143 242.948a51.063 51.063 0 014.671 9.73c-6.311 6.475-25.376 15.021-33.856 15.975a74.802 74.802 0 0111.406-20.906m-25.148-83.366c7.005-5.431 21.421-17.761 25.936-21.818m-33.169-.953c6.147.493 14.825 11.899 14.2 17.158m72.213-23.665c2.321-5.036 18.242-8.087 21.609-5.363m-77.582-45.225a8.157 8.157 0 002.695 2.268 49.175 49.175 0 0010.78-6.417" stroke="#000" stroke-width=".565" stroke-linecap="round" stroke-linejoin="round"/><path d="M238.87 81.624c-1.384 4.536-6.212 11.373-7.362 12.885a33.23 33.23 0 01-5.398-7.66 41.618 41.618 0 00-2.893 7.958 23.983 23.983 0 01-.164-9.105" stroke="#000" stroke-width=".565" stroke-linecap="round" stroke-linejoin="round"/><path d="M224.38 90.998a14.097 14.097 0 001.384 3.944c-.394 3.682-2.432 30.275-2.432 32.049a32.23 32.23 0 004.076 6.475 40.772 40.772 0 004.7-6.311c-.657-4.93-4.671-30.405-5.19-32.178a20.884 20.884 0 001.903-3.714m-5.006 45.154c9.007 2.991 32.443-2.958 40.529-12.129m-38.82 16.731c9.5 2.696 31.588-2.595 40.003-11.866m-44.045 17.521a115.97 115.97 0 00-1.019-19.656m21.891 32.08a127.393 127.393 0 01-6.376 29.846m-1.021-47.367c1.903 8.02 2.005 8.776 4.799 8.612m57.425 55.88c8.875 5.621 16.895 10.683 19.459 12.327" stroke="#000" stroke-width=".565" stroke-linecap="round" stroke-linejoin="round"/><path d="M258.722 134.379c3.878 16.435 8.283 38.589 9.663 53.249.888.625 2.236 1.512 3.945 2.63m-83.356-41.448c-3.189 2.662-3.419 3.259-4.799 3.319-3.254.144-6.007-.913-7.133.329a71.766 71.766 0 00-5.818 7.757c-1.419 2.076 2.465 3.518 7.231-2.005a11.334 11.334 0 009.169.559m-25.242-2.894c4.109.591 4.96.783 6.147.098 2.818-1.624 3.979-3.633 5.587-3.155.66.192 1.315.394 2.005.624m23.239 7.069c-1.446 1.282-4.931 4.371-6.401 5.818m-8.487-6.872c8.546 4.405 10.157 7.231 7.297 9.828" stroke="#000" stroke-width=".565" stroke-linecap="round" stroke-linejoin="round"/><path d="M186.574 165.605c4.898 2.499 6.401 3.907 4.832 6.055-.891 1.211-2.103 1.25-6.738-1.972m-22.548 2.795c1.282.132 2.827.329 3.649.461m16.86-.271c1.578 1.052 5.16 4.47 6.837-.361m-9.006 3.614c1.446.362 4.076 1.282 5.029-1.384m113.992-36.416c.822 3.583 3.056 6.311 4.498 12.629.461 2.461.538 4.977.231 7.461a2.533 2.533 0 01-1.502 1.45 2.545 2.545 0 01-1.059.141 2.557 2.557 0 01-1.022-.309" stroke="#000" stroke-width=".565" stroke-linecap="round" stroke-linejoin="round"/><path d="M300.699 154.791a23.639 23.639 0 010 4.306c-.164 1.514-1.976 2.829-4.152 1.384" stroke="#000" stroke-width=".565" stroke-linecap="round" stroke-linejoin="round"/><path d="M296.59 155.974c.103 1.301.126 2.607.065 3.911a2.535 2.535 0 01-3.136 2.29 2.535 2.535 0 01-1.254-.733" stroke="#000" stroke-width=".565" stroke-linecap="round" stroke-linejoin="round"/><path d="M292.186 156.996c.201 1.271.266 2.56.197 3.845a2.207 2.207 0 01-4.405.033 53.876 53.876 0 00-1.643-9.236m-1.644-10.422c.374 1.179.549 2.412.519 3.648-.131 1.414-2.859 4.273-2.859 5.851a8.869 8.869 0 001.512 4.498m6.217-.192c2.137-.658 9.204-2.465 11.406-2.86m-183.38-45.592a7.107 7.107 0 01-3.18-3.582c2.297.36 4.89.49 5.678-.363 1.384-1.444 1.807-4.86.726-16.21-.983.46-2.008.825-3.06 1.09.164 3.979-1.187 4.11-1.903 2.695-1.353-2.659-4.372-.723-1.742 3.386-6.803 6.327-17.747 15.712-29.684 20.423m218.152 25.86c-5.882-29.945-9.342-36.946-15.679-42.797-10.745-9.96-23.073-10.916-44.179-13.477-2.365-.308-8.146-4.117-12.357-7.97m59.352 115.124l25.245-5.357m-26.346.297l-4.898 1.052 2.236 10.219 4.897-1.051-2.235-10.22zm30.173-6.408l-4.898 1.052 2.203 10.214 4.897-1.052-2.202-10.214z" stroke="#000" stroke-width=".565" stroke-linecap="round" stroke-linejoin="round"/><path d="M320.393 184.359l7.577-1.619-.311-23.642m-42.341 32.723l-7.55 1.574-9.372-21.688" stroke="#000" stroke-width=".565" stroke-linecap="round" stroke-linejoin="round"/><path d="M53.879 195.944l.065-6.179a6.156 6.156 0 00-5.226 6.804l.97 7.217 5.128-.657-.938-7.185zm21.721-2.661a6.053 6.053 0 00-2.076-3.845 16.09 16.09 0 01-3.945.854 87.51 87.51 0 01.658 3.09c.27.27.336 1.503 1.167 7.693l5.127-.657-.931-7.135z" stroke="#000" stroke-width=".565" stroke-linejoin="round"/></svg>