<svg width="96" height="96" fill="none" xmlns="http://www.w3.org/2000/svg"><path d="M20.33 75.56a2.355 2.355 0 01.155-1.852 18.139 18.139 0 00-4.204-2.69c-1.104 1.154-2.48 2.815-3.01 3.374.912-.602 9.276 5.39 9.604 6.886.155-2.062-1.967-3.907-2.545-5.719zm24.296-3.365a2.201 2.201 0 01-.52-1.542 19.289 19.289 0 00-4.77-.192c-.02.51-.068 1.019-.144 1.523-.173 1.104-.42 1.542-.592 2.572.264-.994 10.533.848 11.007 1.998-.366-2.207-3.677-2.754-4.981-4.36zm43.447-13.297c-.538-.384-1.824-1.168-3.504-2.17l-7.824 1.65-2.297-10.825 1.285-.274c-1.01-6.78-1.205-7.842-2.06-11.455-2.49 2.656-8.51 4.018-11.1 3.293.068.204.119.336.347.884-4.224 9.22-4.88 10.908-5.007 12.422-.144 1.776.046 2.964 3.438 16.142 2.064.576 5.514-.394 6.64-1.587-.949-4.095-1.916-8.171-2.965-13.507.13-.356.282-.703.457-1.04a35.32 35.32 0 001.769-8.28c1.693 7.675 2.191 10.29 3.356 11.591 1.176 1.305 2.544 2.134 13.926 8.544 1.707-.442 3.834-3.494 3.539-5.388zM22.71 55.433c-5.536.683-6.384.78-11.099 1.395l9.74 6.82a606.3 606.3 0 002.81-2.855c-.221-.697-1.1-3.958-1.45-5.36zm-7.76-1.067l.018-1.715a1.71 1.71 0 00-1.45 1.888l.228 1.632 1.423-.182-.219-1.623zm6.026-.739a1.68 1.68 0 00-.576-1.067 4.449 4.449 0 01-1.094.237c.077.336.101.455.182.857.075.075.052.058.283 1.776l1.422-.182-.217-1.621z" fill="#09AFF4"/><path d="M88.064 59.792a6.937 6.937 0 01-2.827 4.195c.144 1.86.94 6.101 1.697 7.241 1.488-1.778 3.429-8.18 3.53-10.633a16.807 16.807 0 00-2.4-.803zm-20.592 7.624a9.49 9.49 0 01-4.934 1.322 20.211 20.211 0 00-3.165 5.808c2.352-.264 7.643-2.635 9.394-4.432a14.128 14.128 0 00-1.295-2.698zM22.393 81.518c-2.032-.495-9.96-5.73-9.186-7.07.699-.839 8.576 4.823 9.56 6.592.225.407.112.597-.374.478zm22.737-6.551c-2.87-.597-6.12-.945-6.493-.462-.798 1.033 4.95 2.016 6.248 2.184 2.145.282 4.134.355 4.63.102 1.023-.52-3.192-1.575-4.385-1.824zm.8-3.283c-.019-.328-.457-.747-1.816-1.02a2.16 2.16 0 00.52 1.54c.921 0 1.313-.246 1.295-.52zm-7.998-.51c-.037.392.428.666 1.267.82.073-.51.119-1.012.144-1.522-.964.118-1.375.376-1.411.702zm-21.652-.165c-.392.4-.863.939-1.34 1.477-.711-.584-.96-1.24-.702-1.587l.055-.064c.264-.246.912-.273 1.988.174zm4.216 2.701c1.131.967 1.561 1.68 1.414 1.988-.126.265-.675.256-1.578-.137a2.269 2.269 0 01.164-1.851zm42.24-34.147c-.596-1.667-.061-.034-1.578-4.323a32.27 32.27 0 01.283 5.454c.549-.465.996-.866 1.295-1.13z" fill="#E9E9E9"/><path d="M73.344 34.483c-2.234 2.544-8.736 4.196-11.254 3.366.173.474.336.912.474 1.277 2.646.74 8.652-.692 11.1-3.302-.11-.456-.21-.912-.32-1.34zm-6.091 9.668a35.338 35.338 0 01-1.77 8.281c.475-.939 1.268-2.289 2.544-4.77l-.774-3.51zm16.279-4.632a7.135 7.135 0 01-.437-1.186c.552.023.846.16.96.336.21.322-.12.719-.523.85zm-4.542-.339c-.657.302-.912.603-.903.822.028.282.374.465 1.003.355.147-.293-.04-.853-.1-1.176zm-6.475-7.97a79.532 79.532 0 00-3.156-.347c1.27.657 2.49 1.406 3.648 2.244-.19-.748-.364-1.405-.492-1.897zm-9.73-9.75a6.744 6.744 0 01-.768 1.743c.018-.255.018-.576.045-.976.202-.21.44-.465.723-.766zm-.731-3.957c-.055-.639-.264-.768-2.107-.885-1.951-.137-2.097.182-1.897 1.222.137.702.502.903 1.24.903.457 0 1.057-.082 1.816-.164.583.738.966 1.121.966.674 0-.848.885-.83.903.529.329.335.694.738 1.086 1.13-.402-3.227-.484-3.273-2.007-3.41zm.893 8.847c.217-.323.398-.669.539-1.03-.274-.393-.52-.803-.768-1.232-.165.384-.336.775-.484 1.158.072.382.2.752.384 1.095-.11 1.03-.675 8.408-.675 8.892a9.35 9.35 0 001.131 1.796 11.03 11.03 0 001.314-1.75c-.182-1.369-1.295-8.437-1.44-8.93zM51.448 41.033c.164-.118.501-.064.984.255-.41.347-.647.556-.82.702-.374-.465-.383-.801-.164-.957zm3.875 3.501c.283.528.336.876.237 1.049a.09.09 0 01-.036.046c-.164.173-.593.082-1.067-.329.337-.3.866-.766.866-.766zm-40.593 4.14c-.017.264-.027.556-.027.857-.665.028-.98-.09-.994-.264-.013-.164.32-.402 1.022-.593zm5.126-.018c.028.164-.21.365-.93.474a1.509 1.509 0 01-.21-.839c.73.044 1.113.2 1.14.365zM30.6 36.654c-.21 2.56-.284 5.27-.337 6.503-4.167.1-7.687.748-9.301 1.933.009.493.018.976.046 1.44 2.426-1.758 7.72-2.06 10.725-2.116-.491-1.819-.866-5.286-1.134-7.76zm-9.248 2.053c-.055.474-.1.94-.137 1.386-.438.144-1.012.328-1.578.502-.593.182-1.176.346-1.577.465a39.935 39.935 0 003.292-2.353zm12.212-10.361a.764.764 0 01-.1.128c-.224.233-.937.201-1.576.1a3.793 3.793 0 01-.221-1.185c.784.784 1.587 1.404 1.897.957zm.236-6.329c.055-1.003-1.194-.802-1.295-.237a.693.693 0 00-1.297.329c-.446-.528-1.358-.336-1.203.465-.63-.611-2.244-.247.336 4.687.538-.456 1.03-.902 1.459-1.304-.73-1.14.11-1.68.483-.94.2.393.576.357.528-.747.295-.076.582-.18.858-.31A3.079 3.079 0 0035 22.83c.479-.767-.443-1.679-1.2-.813zm-2.335 32.987c.556 4.642.693 6.348.666 7.314a89.56 89.56 0 00-3.86-9.23c.877.548 1.935 1.168 3.194 1.916zm52.997-11.619l.354 1.686 1.404-.3-.42-1.961a1.45 1.45 0 00-1.504-1.14c.126.562.181 1.138.165 1.715zm-4.862-.73l-.091.018a1.439 1.439 0 00-.916.625 1.435 1.435 0 00-.197 1.09l.402 1.96 1.404-.3c-.016-.078-.548-3.232-.602-3.393z" fill="#E9E9E9"/><path d="M84.462 43.385l.409 1.941 1.404-.3-.474-2.216a1.45 1.45 0 00-1.505-1.14c.126.562.181 1.138.165 1.715zm-4.862-.73l-.091.018a1.439 1.439 0 00-.916.625 1.435 1.435 0 00-.197 1.09l.452 2.227 1.404-.301c-.016-.079-.598-3.498-.652-3.659z" stroke="#fff" stroke-width=".565" stroke-linejoin="round"/><path d="M14.283 47.187c.356-.163.356.62.064.712-.292.091-.283-.61-.064-.712zm28.866.403c.185-.355.938-.312.784.036-.154.348-1.009.394-.784-.036zm12.895-3.485c.073.374.744-.144.63-.456-.116-.312-.712.037-.63.456zm26.676-7.551c.356-.005.576.811.137.802-.44-.009-.52-.798-.137-.802zm8.308 8.134l.091 6a.126.126 0 01-.1.127l-2.098.447.283 1.313-1.359.292-.282-1.313-7.005 1.488.283 1.313-1.359.292-.282-1.312-2.097.447a.143.143 0 01-.145-.073l-2.352-5.52 2.16 10.196 16.444-3.493-2.182-10.205z" fill="#E9E9E9"/><path d="M90.764 44.078l-16.188 3.447 2.554 5.992 2.006-.428-.273-1.277 1.359-.292.273 1.277L87.5 51.31l-.264-1.277 1.359-.291.273 1.276 1.998-.42-.1-6.52z" fill="#E9E9E9"/><path d="M76.766 58.385L74.45 47.552l16.441-3.502 2.319 10.843-16.444 3.492zm.487-11.437l1.289-1.83m5.308-7.56l9.75-13.926-17.22-12.057-8.198 11.701M66.814 61.89l4.086-5.845M28.372 68.566l22.654 15.86 11.017-15.723M16.982 34.931l-2.526-1.769L2.4 50.381l18.952 13.27M50.27 48.857l-4.405 6.293-1.54-1.076m-5.527-27.496l5.07-7.25 4.789 3.346 5.654-8.062" stroke="#fff" stroke-width=".565" stroke-linecap="round" stroke-linejoin="round"/><path d="M50.745 15.232l3.566-.62.63 3.557m-38.342 7.096l3.283-.584c1.954-.355 1.395-3.246-.51-2.9l-1.834.31c-1.952.333-2.418-2.575-.51-2.9l3.283-.584m-2.563-.657l1.414 7.97m30.041 35.405l3.958-.702m-2.325-1.633l.693 3.967m22.361 5.892l5.537-.976m-3.257-2.28l.977 5.545M30.26 80.532a1.286 1.286 0 100-2.572 1.286 1.286 0 000 2.572zM18.277 66.768l-7.077.885-1.322-10.608 12.84-1.605m10.946-31.463a3.058 3.058 0 001.35-1.139c.464-.768-.439-1.687-1.205-.811.055-1.013-1.185-.803-1.296-.237a.695.695 0 00-1.296.328c-.447-.528-1.359-.336-1.204.465-.629-.611-2.243-.246.336 4.688m1.538 1.304a3.754 3.754 0 01-.212-1.186c.72.727 1.468 1.32 1.82 1.047" stroke="#fff" stroke-width=".565" stroke-linecap="round" stroke-linejoin="round"/><path d="M21.862 34.612c-.994 7.333-1.218 11.492-.41 15.45.734 3.603 2.042 8.472 2.717 10.743-3.137 3.201-9.284 9.339-9.932 10.105" stroke="#fff" stroke-width=".565" stroke-linecap="round" stroke-linejoin="round"/><path d="M14.94 72.496c-.712-.584-.957-1.239-.703-1.587.358-.49 1.761-.358 4.505 1.488 2.427 1.632 3.377 2.865 3.165 3.312-.126.265-.675.255-1.578-.137m18.861-3.577c-.839-.155-1.308-.43-1.268-.82.059-.558 1.223-.904 4.278-.73 2.88.163 3.696.783 3.73 1.24.02.273-.374.52-1.304.52" stroke="#fff" stroke-width=".565" stroke-linecap="round" stroke-linejoin="round"/><path d="M21.898 75.697c9.53-10.36 9.946-11.027 10.176-12.732.126-.922.092-2.08-.61-7.97M13.216 74.457c.585-1.003 10.306 6.02 9.631 7.032-.527.793-10.497-5.545-9.63-7.032zm25.381.129c.089-1.094 11.19.93 11.026 2.07-.128.894-11.157-.456-11.026-2.07zM16.28 71.01c-.976 1.013-2.535 2.88-3.064 3.439m7.279-.739c-1.395 2.526 2.79 4.925 2.352 7.78m15.75-6.905c.237-1.432.62-1.715.747-4.113m4.77.192c-.144 3 5.153 3.1 5.518 5.992" stroke="#fff" stroke-width=".565" stroke-linecap="round" stroke-linejoin="round"/><path d="M37.931 71.174c.119-3.01-.246-11.126-.392-12.449-8.81-5.645-12.203-6.703-12.75-9.193M45.93 71.685c-.557-14.628-.72-16.324-1.87-18.04-1.123-1.677-2.052-2.389-6.95-5.39" stroke="#fff" stroke-width=".565" stroke-linecap="round" stroke-linejoin="round"/><path d="M13.708 49.268c-.547-7.305-.492-10.147.675-11.875 1.68-2.48 6.557-5.172 11.692-6.528 6.448-1.706 9.065-1.469 10.242-.41.96.866 1.248 2.226 1.532 11.234 1.764.209 5.865.703 6.694.85 1.176 1.03 1.377 4.56 0 5.864-6.439 0-9.376-.072-10.67-.885-2-1.256-2.372-2.453-3.284-10.853-.209 2.554-.291 5.253-.336 6.49m7.067-1.529l.527.062" stroke="#fff" stroke-width=".565" stroke-linecap="round" stroke-linejoin="round"/><path d="M14.693 49.533c-.666.018-.977-.091-.994-.264-.028-.283.921-.732 2.955-.93 2.08-.203 3.146.036 3.192.31.027.164-.21.364-.93.474m2.299-9.03c-.903.3-2.38.748-3.155.96a36.477 36.477 0 003.292-2.344m-1.496 9.949c-.092-1.916-.22-5.992-.22-8.064m-6.101 6.193c.794-1.14 5.445-1.541 6.21-.768m22.09-3.845c1.149 1.049 1.04 5.034-.42 6.22m-20.411-1.862c1.878-1.358 5.816-2.052 10.72-2.116m-10.766.675c1.76-1.296 5.808-1.95 10.482-1.951" stroke="#fff" stroke-width=".565" stroke-linecap="round" stroke-linejoin="round"/><path d="M18.715 48.283c-.015.33.081.654.274.921.144.183 1.104 1.039 1.313 1.35.23.345.346 1.797.164 1.952-.237.2-1.833.365-2.472.365-.456 0-.346-.776 1.159-1.159-1.248.073-2.089-.292-2.298-1.377m-2.126-1.659a27.792 27.792 0 00.072 4.022m1.214.118c-.048-.83.941-.94 1.04-.144.074.593.11 1.012.155 1.488a.555.555 0 01-1.085.228c-.064-.522-.1-1.046-.11-1.572z" stroke="#fff" stroke-width=".565" stroke-linecap="round" stroke-linejoin="round"/><path d="M19.308 52.78c.082.383.148.692.218 1.03a.555.555 0 01-1.055.336c-.107-.42-.186-.847-.238-1.277m-3.266-.053c0-.802.96-.857 1.012-.082.038.576.048.985.064 1.44a.54.54 0 01-1.067.165c-.045-.383-.01-.793-.01-1.523zm3.246.054c.073.439.12.785.174 1.168a.566.566 0 01-1.095.283 15.981 15.981 0 01-.182-1.596c-.074-.711.62-.93.93-.51M49.167 48c.108-.758-.742-.977-.93-.265a25.7 25.7 0 00-.237.96.512.512 0 00.985.274c.077-.32.138-.643.182-.97zm-.967-.228c.196-.754-.697-1.032-.93-.32-.093.283-.224.684-.284.885-.213.717.759 1.031.958.401.11-.346.196-.738.255-.966zm-.985-.218c.23-.723-.563-1.03-.893-.365a11 11 0 00-.356.839.51.51 0 00.912.456c.098-.21.262-.694.337-.93zm2.909.584c.024-.739-.778-.912-.912-.21-.056.292-.14.864-.155 1.022a.499.499 0 00.975.118c.049-.308.079-.618.092-.93zM42.93 70.509c-.385-12.394-.247-14.419-1.15-15.76-1.277-1.897-2.811-2.74-9.94-6.967-1.169-.692-1.515-1.469-1.57-3.312m-2 8.611a92.16 92.16 0 013.86 9.239M59.3 18.734c.63 3.6.812 4.14 1.377 4.205.556.063.903-.165 2.116-1.478a4.926 4.926 0 01-.76 1.76" stroke="#fff" stroke-width=".565" stroke-linecap="round" stroke-linejoin="round"/><path d="M62.053 17.503c-.064-.629-.274-.756-2.098-.884-1.951-.137-2.097.182-1.897 1.222.21 1.14 1.05.957 3.046.739.584.738.967 1.13.967.675 0-.849.885-.83.903.527.314.44.68.843 1.086 1.2-.402-3.232-.483-3.342-2.007-3.479zm.002 4.727c.062.816-.04 1.804-.63 2.14-1.724.994-2.416 1.396-3 2.226-1.12 1.588-1.05 2.644-1.26 9.703-2.115 1.824-4.752 3.876-5.718 4.743" stroke="#fff" stroke-width=".565" stroke-linecap="round" stroke-linejoin="round"/><path d="M51.61 41.99c-.383-.464-.383-.8-.164-.948.303-.206 1.175.13 2.508 1.651 1.43 1.632 1.794 2.57 1.606 2.9-.13.227-.593.164-1.104-.282m24.643-4.953c-.63.11-.98-.072-1.003-.355-.032-.374.694-.954 2.8-1.414 2.363-.516 3.16-.192 3.21.219a.743.743 0 01-.576.711m-5.434.493c-1.523-6.648-1.68-7.33-2.308-7.788-.859-.627-1.459-.876-6.438-1.341a28.83 28.83 0 013.648 2.243M84.56 56.729c1.68 1.012 2.974 1.787 3.512 2.17.32 2.016-2.025 5.071-3.539 5.39-11.381-6.411-12.748-7.242-13.926-8.544-1.12-1.241-1.514-3.255-3.365-11.582a3.739 3.739 0 01-1.177-.265" stroke="#fff" stroke-width=".565" stroke-linecap="round" stroke-linejoin="round"/><path d="M72.514 31.22c.51 1.951 1.686 6.493 2.234 9.767.3 1.797.666 4.224.985 6.293M59.728 27.763a14.754 14.754 0 000 3.046c.075.694 2.636 7.872 3.192 9.193-4.224 9.202-4.886 10.907-5.007 12.412-.144 1.776.046 2.964 3.438 16.142 2.07.612 5.654-.483 6.63-1.586-.948-4.095-1.915-8.181-2.964-13.507.356-1.022 1.177-2.271 3-5.808m20.047 12.128c.82.213 1.625.48 2.408.803-.1 2.453-2.043 8.855-3.53 10.634-.756-1.14-1.55-5.381-1.696-7.242" stroke="#fff" stroke-width=".565" stroke-linecap="round" stroke-linejoin="round"/><path d="M67.462 67.408c.526.852.96 1.757 1.296 2.7-1.751 1.796-7.04 4.168-9.394 4.432a20.75 20.75 0 013.165-5.8M55.55 45.609c1.944-1.507 5.944-4.928 7.197-6.053m-9.203-.265c1.705.137 4.113 3.302 3.94 4.76m20.036-6.565c.645-1.397 5.062-2.244 5.996-1.488M61.99 23.45c.2.262.456.476.748.63a13.645 13.645 0 002.991-1.781" stroke="#fff" stroke-width=".565" stroke-linecap="round" stroke-linejoin="round"/><path d="M66.276 22.648c-.384 1.258-1.724 3.155-2.043 3.575a9.227 9.227 0 01-1.498-2.126 11.537 11.537 0 00-.802 2.208 6.658 6.658 0 01-.046-2.526" stroke="#fff" stroke-width=".565" stroke-linecap="round" stroke-linejoin="round"/><path d="M62.256 25.248c.073.382.202.75.384 1.094-.11 1.022-.675 8.4-.675 8.892a8.945 8.945 0 001.13 1.797c.49-.54.928-1.127 1.305-1.751-.183-1.368-1.296-8.436-1.44-8.928.21-.325.387-.67.528-1.03M62.099 37.85c2.498.83 9.001-.82 11.245-3.365m-10.771 4.642c2.636.748 8.765-.72 11.1-3.292m-12.221 4.861a32.176 32.176 0 00-.283-5.454m6.074 8.901a35.333 35.333 0 01-1.77 8.28m-.283-13.141c.528 2.226.557 2.435 1.332 2.39m15.933 15.504c2.463 1.56 4.688 2.964 5.4 3.42" stroke="#fff" stroke-width=".565" stroke-linecap="round" stroke-linejoin="round"/><path d="M71.784 37.284c1.076 4.56 2.298 10.707 2.681 14.775.247.173.62.42 1.095.73M52.432 41.288c-.885.739-.949.904-1.332.921-.903.04-1.666-.253-1.979.091a19.89 19.89 0 00-1.614 2.153c-.394.576.684.976 2.006-.557a3.144 3.144 0 002.544.155m-7.003-.802c1.14.164 1.376.217 1.705.027.782-.45 1.104-1.008 1.55-.875.183.053.365.11.557.173m6.447 1.961c-.401.356-1.368 1.213-1.776 1.614m-2.354-1.907c2.37 1.222 2.818 2.007 2.024 2.727" stroke="#fff" stroke-width=".565" stroke-linecap="round" stroke-linejoin="round"/><path d="M51.766 45.948c1.36.693 1.776 1.084 1.34 1.68-.246.336-.583.347-1.869-.547m-6.256.776c.356.037.785.092 1.013.128m4.678-.075c.438.292 1.432 1.24 1.897-.1m-2.499 1.002c.4.1 1.13.355 1.395-.384m31.628-10.104c.228.994.847 1.751 1.248 3.504.128.683.15 1.381.064 2.07a.702.702 0 01-.995.356" stroke="#fff" stroke-width=".565" stroke-linecap="round" stroke-linejoin="round"/><path d="M83.43 42.948c.037.398.037.798 0 1.195-.045.42-.548.785-1.152.384" stroke="#fff" stroke-width=".565" stroke-linecap="round" stroke-linejoin="round"/><path d="M82.29 43.276c.03.361.036.724.02 1.086a.705.705 0 01-1.22.432" stroke="#fff" stroke-width=".565" stroke-linecap="round" stroke-linejoin="round"/><path d="M81.069 43.56c.055.353.074.71.054 1.067a.613.613 0 01-1.222.009 14.972 14.972 0 00-.456-2.563m-.455-2.891c.103.327.151.669.143 1.012-.036.392-.793 1.186-.793 1.623.024.447.169.878.42 1.248m1.724-.053c.593-.182 2.554-.684 3.165-.793m-50.88-12.65c-.4-.22-.712-.57-.882-.994.637.1 1.357.136 1.575-.1.384-.402.502-1.35.202-4.498a4.744 4.744 0 01-.85.302c.046 1.104-.329 1.14-.527.748-.376-.738-1.213-.2-.484.94-1.887 1.755-4.924 4.359-8.236 5.666m60.528 7.174c-1.632-8.308-2.592-10.25-4.35-11.874-2.981-2.763-6.402-3.029-12.258-3.74-.656-.085-2.26-1.142-3.428-2.21m16.467 31.942l7.005-1.486m-7.311.081l-1.359.292.62 2.836 1.36-.292-.62-2.836zm8.372-1.777l-1.359.292.611 2.834 1.36-.292-.612-2.834z" stroke="#fff" stroke-width=".565" stroke-linecap="round" stroke-linejoin="round"/><path d="M88.894 51.152l2.103-.45-.087-6.56m-11.747 9.08l-2.095.437-2.6-6.017" stroke="#fff" stroke-width=".565" stroke-linecap="round" stroke-linejoin="round"/><path d="M14.95 54.367l.017-1.715a1.71 1.71 0 00-1.45 1.888l.27 2.003 1.422-.183-.26-1.993zm6.025-.738a1.68 1.68 0 00-.576-1.067 4.448 4.448 0 01-1.094.237c.077.336.101.455.182.857.075.075.094.417.324 2.135l1.423-.183-.259-1.98z" stroke="#fff" stroke-width=".565" stroke-linejoin="round"/></svg>