<svg width="96" height="96" fill="none" xmlns="http://www.w3.org/2000/svg"><path d="M59.665 33.078c-.703.793-3.12 3.456-3.876 4.469-4.864-7.074-5.822-7.824-9.668-7.824-6.76.035-13.797 2.486-19.488 6.027-3.776 2.352-4.086 3.53-4.524 7.178a65.197 65.197 0 00-.528 7.651c.169-1.215 7.798-.963 7.798.438.018-2.308.228-7.688.355-8.91.502-.183 1.177-.429 1.915-.684a43.173 43.173 0 003.822-3.822 42.23 42.23 0 01.839 6.758c3.129-1.5 7.02-1.687 10.46-.985.046-.127.1-.264.144-.392a37.657 37.657 0 00-.31-5.271c1.013 1.607 4.795 6.826 6.24 8.244 2.352 2.317 4.368 2.107 6.64-.547a78.335 78.335 0 005.48-7.132c.311-3.423-3.12-5.767-5.3-5.198zm-.747 46.631a2.759 2.759 0 01-.547-1.852 20.798 20.798 0 00-5.198-.428c-.321 2.016-.515 3.922-.666 4.944.42-1.35 13.041 2.39 13.315 4.05.068-2.395-5.08-4.317-6.904-6.714zM81.563 11.81c-2.143-2.042-.09-4.085-.92-6.22 2.453.977 4.112 3.485 3.009 5.847l-2.089.374zM17.996 75.013c-2.31.484-3.696.9-4.687 1.121 1.596 0 2.435 13.042.848 14.191 2.346-.987 2.177-6.265 3.12-8.463a2.4 2.4 0 011.778-1.55 16.613 16.613 0 00-1.059-5.3zM70.445 23.73c-2.289-1.85-5.517.165-5.362 2.636a3.9 3.9 0 011.44.31c.27.445.423.95.446 1.469.31.565.557 1.03.757 1.432 3.038.92 5.729-3.418 2.72-5.846z" fill="#09AFF4"/><path d="M61.043 27.442l-.72-.784-.62-1.916c-2.363-1.012-6.337 1.004-6.175 4.998.144 3.475 3.53 4.888 5.28 4.323l.876-.985a2.12 2.12 0 01.629-.073c.091-1.705-.164-2.627-.164-3.493 0-.346.41-.985.894-2.07z" fill="#09AFF4"/><path d="M77.987 20.585l-24.204-5.753c-1.587-.292-2.508.374-2.964 1.56l-1.78 4.58c.514 4.104.465 5.988.083 6.455-.328.401-1.085.593-1.997.456a19.2 19.2 0 00.374 1.888c.337.028.673.08 1.003.155l4.97-12.952 23.266 5.645-7.333 20.958-6.776-2.043a90.879 90.879 0 01-1.705 2.152l8.527 2.563c1.304.392 2.563-.027 3.137-1.605l7.214-20.748c.492-1.423.346-2.782-1.815-3.31zm-2.663 13.48a.818.818 0 01-1.055.558.82.82 0 01-.495-1.086.82.82 0 011.61.201.816.816 0 01-.06.327z" fill="#E9E9E9"/><path d="M62.1 28.593l2.025 2.216c-1.049.456-2.198-.473-2.025-2.216zm2.882-.693a19.88 19.88 0 00-1.488-.264l1.488 1.623a8.446 8.446 0 000-1.359zm-6.603 49.95c1.569.364 1.988.857 1.988 1.222 0 .465-.768.629-1.44.629a2.793 2.793 0 01-.548-1.851zm-5.207-.42c-.118.803-.218 1.469-.291 2.043-1.077-.21-1.764-.666-1.724-1.167.034-.42.602-.775 2.015-.875zm-36.717-3.958c.42-.106 1.003.265 1.54 1.55-.96.21-1.686.385-2.28.529-.145-1.121.257-1.957.74-2.079zm2.599 6.841a2.448 2.448 0 00-1.779 1.55c.192.6.706 1.235 1.175.9.342-.244.636-1.002.604-2.45zm25.418-29.659c-.164 2.326-.046 7.862 0 9.813a59.919 59.919 0 00-2.317-.702c.894-3.675 1.605-6.566 2.317-9.11zm-22.883-.091c-.055.401.693.82 1.776.875a.763.763 0 00.228-.282c.084-.439.114-.886.091-1.332-1.448.1-2.05.42-2.095.739zm7.788.353c-.08-.304-.56-.63-1.593-.837.027.401.046.985.073 1.632.604-.019 1.664-.248 1.52-.795zm6.101-13.321c.164.784.32 1.65.447 2.544-1.44.354-2.862.78-4.259 1.276a45.648 45.648 0 003.812-3.82zM48.11 39.91c-.429 1.077-.82 2.089-1.186 3.072a37.734 37.734 0 00-.31-5.271c.256.412.81 1.233 1.496 2.2zm11.95 43.62c-3.492-1.12-7.32-1.89-7.554-1.156-.308.981 3.19 2.404 6.678 3.373 3.025.84 6.043 1.341 6.56.917.995-.816-4.447-2.736-5.684-3.133zm-45.14-.922c-.224-3.329-.829-6.463-1.621-6.463-.963-.004-1.296 3.198-1.18 6.568.129 3.744.811 7.696 1.8 7.696 1.394-.31 1.096-6.389 1.001-7.8zm68.366-30.03a12.753 12.753 0 00-15.19 11.919 12.754 12.754 0 001.71 6.996c6.795-4.25 11.483-11.072 13.48-18.915zM47.053 26.632c.948.684 1.824 1.13 2.116.702-.283.566-.876.73-2.025.547-.046-.42-.073-.839-.091-1.25zm3.191-9.612c-.51-.648-1.395-1.04-2.754-.894.602-4.97-6.484-5.682-6.758-1.523-3.62-2.818-9.44 1.55-5.344 4.56-2.225.136-2.964 3.082-.584 3.082-5.49 3.749-1.167 12.093 10.707 4.176.64-.55 1.215-1.17 1.714-1.851-1.012-1.377.12-2.244.539-1.259.237.566.501-.3.501-1.003.334.02.66.107.96.256 1.368-.793 2.28-3.958 1.02-5.544z" fill="#E9E9E9"/><path d="M81.562 11.81c-2.143-2.042-.09-4.085-.92-6.22 2.453.977 4.112 3.485 3.009 5.847l-2.089.374z" stroke="#000" stroke-width=".565" stroke-linecap="round" stroke-linejoin="round"/><path d="M47.498 29.77c.338.028.672.08 1.003.155l4.97-12.952 23.266 5.645-7.333 20.958-6.776-2.043a91.088 91.088 0 01-1.705 2.152l8.527 2.563c1.304.392 2.563-.027 3.137-1.605l7.214-20.748c.493-1.423.347-2.782-1.815-3.31L53.782 14.83c-1.587-.292-2.508.374-2.964 1.56l-.369.948-2.951 12.43zm27.825 4.294a.82.82 0 11-1.55-.528.818.818 0 011.055-.558.826.826 0 01.482.436.818.818 0 01.013.65z" stroke="#000" stroke-width=".565" stroke-linejoin="round"/><path d="M3.695 72.642l6.056-8.646M2.4 65.29l8.646 6.056m50.261-18.541l5.836-1.03m-3.429-2.399l1.021 5.837m16.107 22.646c7.046 0 12.759-5.713 12.759-12.76 0-7.046-5.713-12.758-12.76-12.758-7.045 0-12.758 5.712-12.758 12.759 0 7.046 5.713 12.759 12.759 12.759zm-65.082-39.7a5.217 5.217 0 100-10.433 5.217 5.217 0 000 10.433zm22.573 37.008a57.71 57.71 0 0012.832 1.113" stroke="#000" stroke-width=".565" stroke-linecap="round" stroke-linejoin="round"/><path d="M26.632 71.2A42.048 42.048 0 015.574 47.514c-7.715-21.159 5.446-30.531 17.83-26.85 6.447 1.917 9.576.238 9.977-5.472.374-5.317 4.15-9.304 15.422-8.618 9.768.595 20.95 6.331 27.104 13.501M60.367 75.35c21.084-4.678 30.608-29.512 19.006-50.2l-19.006 50.2zM18.406 9.622L6.358 11.747a1.806 1.806 0 00.63 3.557l12.048-2.125 3.429-2.444-4.059-1.113zM6.924 11.648l.63 3.556m1.414-3.913l.62 3.557m8.818-5.226l.63 3.557m62.525-1.368c.037 1.614.186 3.223.447 4.815.829 4.708 2.363 9.668 3.156 9.53.793-.136.543-5.327-.292-10.031a33.982 33.982 0 00-1.222-4.679l-2.089.365zm.347 4.232l2.864-.502" stroke="#000" stroke-width=".565" stroke-linecap="round" stroke-linejoin="round"/><path d="M23.368 51.446c-1.085-.054-1.831-.474-1.776-.875.056-.429 1.085-.847 3.73-.768 2.991.092 4.099.711 4.076 1.213-.015.355-.656.656-1.532.684m27.932-14.162c.757-1.012 3.174-3.666 3.876-4.469 1.706-.465 5.59 1.286 5.29 5.208a79.87 79.87 0 01-5.481 7.13c-2.277 2.648-4.276 2.871-6.64.547-1.522-1.497-5.408-6.912-6.229-8.245.227 1.748.33 3.51.31 5.272" stroke="#000" stroke-width=".565" stroke-linecap="round" stroke-linejoin="round"/><path d="M56.728 38.906c-5.791-8.518-6.64-9.193-10.598-9.193-6.174 0-13.361 2.196-19.488 6.028-3.776 2.361-4.07 3.54-4.523 7.178a67.558 67.558 0 00-.528 7.651" stroke="#000" stroke-width=".565" stroke-linecap="round" stroke-linejoin="round"/><path d="M48.11 39.9c-3.493 8.71-4.411 13.48-9.03 32.784-.872 3.66-1.832 5.47-6.11 6.707-4.47 1.291-13.388 3.092-14.683 3.438" stroke="#000" stroke-width=".565" stroke-linecap="round" stroke-linejoin="round"/><path d="M15.715 75.542c-.144-1.104.256-1.944.74-2.07.628-.166 1.623.756 2.28 4.158.693 3.6.143 5.067-.448 5.208-.374.088-.802-.32-1.012-.976m-.821-8.39c3.192-.712 14.838-3.313 15.632-3.493m14.692-26.603c-6.274-1.277-13.322.448-15.578 6.411-1.978 5.235-1.368 11.838-.864 20.575m4.577-34.949a39.02 39.02 0 011.405 8.947" stroke="#000" stroke-width=".565" stroke-linecap="round" stroke-linejoin="round"/><path d="M29.387 51.018c.018-2.298.228-7.697.355-8.92a59.153 59.153 0 016.175-1.96M13.309 76.144c1.669.003 2.517 14.272.62 14.263-1.897-.009-2.654-14.268-.62-14.263zm-.001 0c1.056-.238 1.951-.528 4.687-1.131" stroke="#000" stroke-width=".565" stroke-linecap="round" stroke-linejoin="round"/><path d="M19.063 80.311c-1.313.384-1.953 1.014-2.462 4.433-.35 2.352-1.003 5.235-2.672 5.664M52.88 79.473c-1.076-.21-1.755-.666-1.724-1.158.04-.63 1.232-1.11 4.606-.84 3.758.303 4.596 1.077 4.596 1.597 0 .465-.768.63-1.44.63m-6.413 2.67c.438-1.395 13.824 2.627 13.306 4.195-.401 1.214-13.898-2.307-13.306-4.195zm.001 0c.155-1.05.264-2.244.666-4.944" stroke="#000" stroke-width=".565" stroke-linecap="round" stroke-linejoin="round"/><path d="M58.38 77.849c-.01 1.35.383 2.171 3.2 4.176 2.208 1.57 4.423 2.872 4.232 4.541M45.374 47.56a121.204 121.204 0 0110.944 7.862c3.674 3.058 4.05 4.195 4.05 9.494V79.07m-9.212-.756c.064-3.657.09-14.256 0-15.613-2.755-.949-7.023-2.38-9.002-2.928m1.769-16.763c-3.675 4.552-5.991 15.076-8.007 30.006-5.627 1.769-14.145 3.748-17.227 4.386m9.103-27.342c.073 1.432.22 5.136.028 5.828-.192.692-2.243 4.068-3.466 5.509-.775.912-1.728 1.12-.748-.776a27.368 27.368 0 001.488-3.504c1.163-3.31-1.296-4.02-2.28-2.836-1.503 1.807-2.63 2.26-2.034.839.364-.867.557-1.386.812-2.043.256-.657 1.897-1.514 2.007-1.897.087-.438.118-.885.09-1.331" stroke="#000" stroke-width=".565" stroke-linecap="round" stroke-linejoin="round"/><path d="M24.498 58.669a12.383 12.383 0 01-2.535 1.988c-1.132.663-1.523.046-.192-1.195.93-.864 1.77-1.822 2.504-2.859m-.78-.661a6.53 6.53 0 001.6 1.165" stroke="#000" stroke-width=".565" stroke-linecap="round" stroke-linejoin="round"/><path d="M23.194 57.977c-.865.43-1.781.748-2.726.948-1.231.258-1.067-.463.237-1.012a16.86 16.86 0 002.964-1.797" stroke="#000" stroke-width=".565" stroke-linecap="round" stroke-linejoin="round"/><path d="M21.98 57.247a9.238 9.238 0 01-2.006.11c-.893-.11-1.15-.632.21-.84 1.07-.154 2.11-.47 3.083-.94a4.704 4.704 0 01.72-1.85m20.493 6.74c-.046-1.98-.164-7.625 0-9.896m-12.823-9.156a43.145 43.145 0 003.821-3.821m25.564-10.16l-.72-.785-.62-1.906 1.852.775 8.67 9.421a.833.833 0 01-1.221 1.131l-6.886-7.488m6.795 4.935a1.573 1.573 0 00-1.232 1.13m1.725-.593a1.573 1.573 0 00-1.231 1.13" stroke="#000" stroke-width=".565" stroke-linecap="round" stroke-linejoin="round"/><path d="M60.303 32.997c.091-1.706-.164-2.627-.164-3.493 0-.402.556-1.213 1.149-2.672.392-.967 1.166-.347.848 1.431-.348 1.943.875 3.028 1.997 2.527m-.638-3.165c.666.1 1.231.2 1.488.265a8.32 8.32 0 010 1.358" stroke="#000" stroke-width=".565" stroke-linecap="round" stroke-linejoin="round"/><path d="M62.137 26.16c1.24.054 4.085.218 4.386.519.456.456.566 2.681.62 3.466m-.173-2c1.596 2.892 1.614 3.284.92 4.26m-1.011 1.386c-.867 1.113-1.873 2.134-2.089 2.69M45.523 26.414a11.108 11.108 0 001.712-1.843c-1.003-1.378.114-2.242.538-1.259.244.566.501-.3.501-1.003.334.02.66.108.96.255 1.925-1.122 2.955-6.931-1.742-6.448.6-4.97-6.495-5.672-6.76-1.524-3.62-2.81-9.439 1.568-5.344 4.569-2.225.137-2.964 3.082-.584 3.082-5.501 3.752-1.164 12.11 10.72 4.17zm-5.321 3.902c2.837-1.623 6.165-4.416 7.032-5.746" stroke="#000" stroke-width=".565" stroke-linecap="round" stroke-linejoin="round"/><path d="M47.407 29.75a20.441 20.441 0 01-.275-1.877c2.71.432 2.318-1.022 2.09-5.31" stroke="#000" stroke-width=".565" stroke-linecap="round" stroke-linejoin="round"/><path d="M47.132 27.873a21.765 21.765 0 01-.089-1.242c.948.693 1.824 1.13 2.116.693" stroke="#000" stroke-width=".565" stroke-linecap="round" stroke-linejoin="round"/></svg>