<svg width="151" height="151" fill="none" xmlns="http://www.w3.org/2000/svg"><path d="M93.63 51.909c-1.102 1.245-4.896 5.423-6.082 7.012-7.633-11.1-9.136-12.277-15.17-12.277-10.61.055-21.652 3.902-30.584 9.458-5.925 3.69-6.411 5.539-7.098 11.263a102.343 102.343 0 00-.829 12.008c.265-1.908 12.237-1.512 12.237.687.028-3.621.357-12.065.558-13.983.787-.286 1.846-.672 3.005-1.073a67.735 67.735 0 005.997-5.997 66.267 66.267 0 011.316 10.605c4.91-2.355 11.016-2.647 16.416-1.545.071-.2.157-.416.226-.616a59.083 59.083 0 00-.487-8.272c1.59 2.522 7.524 10.712 9.792 12.938 3.691 3.635 6.855 3.306 10.42-.859 3.078-3.563 5.949-7.3 8.599-11.192.488-5.371-4.896-9.05-8.316-8.157zm-1.173 73.174a4.33 4.33 0 01-.86-2.905 32.62 32.62 0 00-8.157-.673c-.503 3.164-.807 6.155-1.044 7.759.658-2.118 20.465 3.749 20.894 6.354.107-3.757-7.97-6.774-10.834-10.535zm35.536-106.549c-3.363-3.206-.143-6.412-1.445-9.76 3.85 1.53 6.454 5.467 4.723 9.173l-3.278.587zM28.24 117.713c-3.624.76-5.799 1.412-7.355 1.76 2.504 0 3.821 20.466 1.33 22.269 3.682-1.549 3.417-9.832 4.897-13.281a3.762 3.762 0 012.79-2.433 26.065 26.065 0 00-1.661-8.315zm82.307-80.474c-3.593-2.905-8.659.258-8.416 4.136a6.118 6.118 0 012.26.487 4.84 4.84 0 01.701 2.304c.487.887.873 1.617 1.188 2.247 4.768 1.445 8.99-5.363 4.267-9.174z" fill="#09AFF4"/><path d="M95.792 43.063l-1.13-1.23-.973-3.006c-3.707-1.588-9.943 1.575-9.69 7.843.227 5.453 5.54 7.671 8.286 6.784.587-.659 1.074-1.206 1.374-1.546.322-.088.655-.127.988-.114.143-2.677-.258-4.122-.258-5.482 0-.544.644-1.545 1.403-3.248z" fill="#09AFF4"/><path d="M122.382 32.304l-37.983-9.029c-2.49-.458-3.936.587-4.652 2.448l-2.791 7.188c.805 6.44.728 9.396.13 10.128-.516.63-1.704.93-3.135.716.146.997.342 1.985.587 2.963.53.044 1.056.126 1.574.243l7.8-20.325 36.509 8.859-11.507 32.888-10.633-3.206c-.816 1.06-1.703 2.19-2.676 3.378l13.381 4.021c2.046.616 4.021-.043 4.923-2.518l11.321-32.56c.772-2.232.543-4.364-2.848-5.194zm-4.179 21.152a1.291 1.291 0 01-1.656.875 1.278 1.278 0 01-.756-.684 1.274 1.274 0 01-.021-1.02 1.272 1.272 0 01.638-.794 1.296 1.296 0 011.017-.08 1.289 1.289 0 01.778 1.703z" fill="#E9E9E9"/><path d="M97.451 44.87l3.177 3.478c-1.645.715-3.449-.742-3.177-3.478zm4.522-1.088c-.401-.1-1.288-.257-2.335-.415l2.335 2.548c.057-.71.057-1.423 0-2.133zm-10.361 78.384c2.461.572 3.12 1.345 3.12 1.918 0 .73-1.205.987-2.26.987a4.382 4.382 0 01-.86-2.905zm-8.172-.657c-.186 1.259-.344 2.304-.458 3.206-1.689-.33-2.767-1.046-2.705-1.832.053-.659.945-1.217 3.163-1.374zm-57.619-6.212c.66-.168 1.574.415 2.419 2.433-1.507.329-2.648.602-3.578.828-.23-1.759.402-3.07 1.16-3.261zm4.079 10.734a3.84 3.84 0 00-2.79 2.433c.3.943 1.106 1.939 1.843 1.413.537-.382.998-1.573.947-3.846zM69.787 79.49c-.258 3.649-.072 12.336 0 15.398a94.023 94.023 0 00-3.636-1.102c1.403-5.767 2.52-10.304 3.636-14.297zm-35.91-.143c-.085.63 1.088 1.288 2.787 1.374.154-.117.276-.27.358-.444a8.71 8.71 0 00.143-2.09c-2.271.158-3.216.659-3.288 1.16zm12.222.553c-.126-.476-.878-.988-2.5-1.313.044.63.072 1.546.115 2.56.948-.028 2.61-.39 2.385-1.246zm9.576-20.904c.257 1.23.5 2.59.7 3.992a69.557 69.557 0 00-6.683 2.004 71.617 71.617 0 005.983-5.996zm19.821 3.634a216.58 216.58 0 00-1.86 4.82 59.204 59.204 0 00-.487-8.271c.401.646 1.272 1.934 2.347 3.451zm18.754 68.451c-5.482-1.76-11.49-2.966-11.855-1.816-.484 1.54 5.007 3.773 10.48 5.293 4.745 1.32 9.482 2.105 10.293 1.439 1.561-1.28-6.978-4.293-8.919-4.916zm-70.837-1.448c-.351-5.225-1.301-10.142-2.544-10.142-1.512-.007-2.034 5.018-1.852 10.307.203 5.875 1.274 12.077 2.825 12.077 2.187-.488 1.72-10.026 1.57-12.242zm107.283-47.125a20.013 20.013 0 00-23.836 18.704 20.015 20.015 0 002.684 10.978c10.662-6.669 18.018-17.374 21.152-29.682zM73.837 41.793c1.488 1.073 2.862 1.775 3.32 1.102-.444.887-1.374 1.145-3.177.859a30.872 30.872 0 01-.143-1.961zm5.008-15.085c-.801-1.016-2.19-1.631-4.322-1.402.945-7.8-10.175-8.916-10.605-2.39-5.681-4.423-14.812 2.433-8.386 7.155-3.492.215-4.651 4.838-.916 4.838C46 40.79 52.784 53.886 71.418 41.462a17.427 17.427 0 002.69-2.905c-1.588-2.161.186-3.521.845-1.975.372.887.787-.473.787-1.575a3.907 3.907 0 011.506.401c2.146-1.244 3.577-6.21 1.6-8.7z" fill="#E9E9E9"/><path d="M127.992 18.534c-3.363-3.206-.143-6.412-1.445-9.76 3.85 1.53 6.454 5.467 4.723 9.173l-3.278.587z" stroke="#000" stroke-width=".565" stroke-linecap="round" stroke-linejoin="round"/><path d="M74.538 46.717c.53.045 1.055.126 1.574.243l7.8-20.325 36.509 8.86-11.507 32.887-10.633-3.206a142.755 142.755 0 01-2.676 3.378l13.381 4.021c2.047.616 4.022-.043 4.923-2.519l11.321-32.558c.773-2.233.544-4.365-2.848-5.195l-37.983-9.029c-2.49-.458-3.936.587-4.651 2.447l-.579 1.49-4.63 19.506zm43.665 6.738a1.291 1.291 0 01-1.656.876 1.287 1.287 0 01-.777-1.705 1.273 1.273 0 01.638-.794 1.298 1.298 0 011.017-.08 1.289 1.289 0 01.778 1.703z" stroke="#000" stroke-width=".565" stroke-linejoin="round"/><path d="M5.8 113.993l9.503-13.567m-11.535 2.031l13.567 9.503m78.872-29.096l9.159-1.617m-5.383-3.763l1.603 9.16m25.276 35.536c11.057 0 20.022-8.965 20.022-20.022 0-11.058-8.965-20.022-20.022-20.022-11.058 0-20.022 8.964-20.022 20.022 0 11.057 8.964 20.022 20.022 20.022zM24.733 59.88a8.186 8.186 0 100-16.372 8.186 8.186 0 000 16.372zm35.421 58.076a90.546 90.546 0 0020.137 1.746" stroke="#000" stroke-width=".565" stroke-linecap="round" stroke-linejoin="round"/><path d="M41.793 111.729A65.985 65.985 0 018.748 74.562c-12.108-33.203 8.545-47.91 27.979-42.133 10.117 3.007 15.027.372 15.657-8.588.586-8.343 6.511-14.601 24.2-13.524 15.329.934 32.876 9.936 42.533 21.187m-24.386 86.738c33.086-7.34 48.032-46.312 29.826-78.775l-29.826 78.775zM28.884 15.1L9.978 18.434a2.834 2.834 0 00.987 5.582l18.907-3.335 5.38-3.835-6.368-1.746zm-18.018 3.177l.988 5.582m2.219-6.14l.973 5.581m13.838-8.2l.987 5.581m98.121-2.147a54.37 54.37 0 00.701 7.557c1.301 7.388 3.707 15.17 4.952 14.956 1.245-.215.852-8.361-.458-15.743a53.418 53.418 0 00-1.917-7.342l-3.278.572zm.543 6.642l4.494-.787" stroke="#000" stroke-width=".565" stroke-linecap="round" stroke-linejoin="round"/><path d="M36.67 80.733c-1.703-.086-2.873-.744-2.787-1.374.09-.672 1.703-1.33 5.854-1.205 4.694.145 6.432 1.116 6.397 1.903-.024.558-1.03 1.03-2.404 1.074m43.832-22.224c1.188-1.589 4.98-5.753 6.083-7.013 2.676-.73 8.773 2.018 8.3 8.172a125.27 125.27 0 01-8.601 11.189c-3.573 4.156-6.71 4.506-10.419.859-2.388-2.35-8.487-10.847-9.775-12.938a59.11 59.11 0 01.487 8.272" stroke="#000" stroke-width=".565" stroke-linecap="round" stroke-linejoin="round"/><path d="M89.022 61.054c-9.088-13.367-10.42-14.426-16.63-14.426-9.69 0-20.968 3.447-30.582 9.46-5.926 3.705-6.386 5.556-7.099 11.263a106.01 106.01 0 00-.828 12.008" stroke="#000" stroke-width=".565" stroke-linecap="round" stroke-linejoin="round"/><path d="M75.497 62.614c-5.481 13.668-6.921 21.154-14.168 51.447-1.37 5.742-2.876 8.584-9.59 10.524-7.013 2.026-21.008 4.851-23.04 5.395" stroke="#000" stroke-width=".565" stroke-linecap="round" stroke-linejoin="round"/><path d="M24.663 118.544c-.226-1.733.4-3.05 1.16-3.249.986-.259 2.548 1.188 3.577 6.526 1.09 5.65.226 7.952-.701 8.172-.588.14-1.26-.501-1.589-1.531m-1.289-13.167c5.01-1.116 23.285-5.198 24.53-5.482m23.056-41.746c-9.846-2.004-20.905.703-24.445 10.061-3.104 8.216-2.147 18.576-1.356 32.287m7.182-54.843a61.23 61.23 0 012.204 14.04" stroke="#000" stroke-width=".565" stroke-linecap="round" stroke-linejoin="round"/><path d="M46.116 80.06c.029-3.606.358-12.079.558-13.997a92.833 92.833 0 019.69-3.077m-35.479 56.502c2.62.006 3.95 22.398.973 22.384-2.977-.015-4.164-22.391-.973-22.384zm-.001 0c1.657-.373 3.063-.829 7.356-1.775" stroke="#000" stroke-width=".565" stroke-linecap="round" stroke-linejoin="round"/><path d="M29.916 126.029c-2.061.603-3.065 1.59-3.864 6.956-.55 3.691-1.575 8.215-4.194 8.888m61.125-17.16c-1.689-.329-2.755-1.046-2.705-1.818.063-.988 1.933-1.742 7.227-1.317 5.898.475 7.213 1.689 7.213 2.505 0 .73-1.205.987-2.26.987m-10.063 4.193c.687-2.19 21.693 4.121 20.881 6.583-.631 1.903-21.81-3.621-20.881-6.583zm0-.001c.244-1.646.416-3.52 1.045-7.758" stroke="#000" stroke-width=".565" stroke-linecap="round" stroke-linejoin="round"/><path d="M91.612 122.164c-.014 2.118.603 3.408 5.024 6.553 3.465 2.463 6.941 4.508 6.64 7.127M71.204 74.635A190.192 190.192 0 0188.378 86.97c5.764 4.798 6.354 6.584 6.354 14.899v22.211m-14.455-1.185c.1-5.739.143-22.371 0-24.501-4.322-1.489-11.02-3.736-14.126-4.595m2.777-26.304c-5.767 7.142-9.402 23.657-12.565 47.085-8.83 2.777-22.198 5.882-27.035 6.884m14.286-42.907c.115 2.247.344 8.06.044 9.145-.301 1.085-3.52 6.384-5.439 8.644-1.216 1.431-2.712 1.757-1.174-1.216a42.928 42.928 0 002.336-5.5c1.824-5.193-2.034-6.309-3.578-4.45-2.36 2.835-4.127 3.548-3.192 1.317.57-1.36.873-2.176 1.274-3.206.4-1.03 2.977-2.376 3.148-2.977.138-.688.186-1.39.144-2.09" stroke="#000" stroke-width=".565" stroke-linecap="round" stroke-linejoin="round"/><path d="M38.444 92.066a19.435 19.435 0 01-3.979 3.12c-1.775 1.04-2.39.072-.3-1.875a29.048 29.048 0 003.929-4.486m-1.224-1.037a10.24 10.24 0 002.511 1.828" stroke="#000" stroke-width=".565" stroke-linecap="round" stroke-linejoin="round"/><path d="M36.4 90.98a17.94 17.94 0 01-4.28 1.489c-1.931.404-1.673-.727.372-1.59a26.467 26.467 0 004.652-2.819" stroke="#000" stroke-width=".565" stroke-linecap="round" stroke-linejoin="round"/><path d="M34.495 89.835c-1.04.172-2.096.229-3.149.172-1.402-.172-1.804-.992.33-1.317a16.625 16.625 0 004.837-1.474 7.379 7.379 0 011.13-2.905m32.158 10.576c-.072-3.105-.258-11.964 0-15.528M49.68 64.99a67.72 67.72 0 005.996-5.997M95.79 43.05l-1.13-1.23-.972-2.992 2.905 1.217L110.2 54.828a1.307 1.307 0 01-1.918 1.775l-10.805-11.75m10.665 7.744a2.468 2.468 0 00-1.934 1.774m2.706-.931a2.468 2.468 0 00-1.932 1.774" stroke="#000" stroke-width=".565" stroke-linecap="round" stroke-linejoin="round"/><path d="M94.632 51.78c.143-2.676-.258-4.121-.258-5.48 0-.63.874-1.904 1.803-4.194.616-1.517 1.83-.544 1.331 2.247-.545 3.048 1.374 4.751 3.134 3.964M99.64 43.35c1.045.158 1.933.315 2.336.416.057.71.057 1.422 0 2.132" stroke="#000" stroke-width=".565" stroke-linecap="round" stroke-linejoin="round"/><path d="M97.509 41.05c1.946.086 6.411.343 6.884.816.715.715.887 4.207.973 5.438m-.272-3.137c2.504 4.537 2.533 5.152 1.445 6.683m-1.589 2.176c-1.359 1.746-2.937 3.35-3.277 4.222M71.438 41.45a17.433 17.433 0 002.686-2.893c-1.574-2.16.18-3.517.844-1.975.383.889.787-.472.787-1.574a3.992 3.992 0 011.507.4c3.02-1.76 4.637-10.876-2.734-10.118.941-7.8-10.193-8.901-10.608-2.392-5.682-4.408-14.813 2.462-8.387 7.17-3.492.215-4.651 4.838-.916 4.838-8.633 5.886-1.827 19.002 16.82 6.544zm-8.35 6.123c4.45-2.547 9.675-6.93 11.034-9.016" stroke="#000" stroke-width=".565" stroke-linecap="round" stroke-linejoin="round"/><path d="M74.395 46.686c-.19-.98-.333-1.959-.432-2.946 4.254.678 3.638-1.604 3.28-8.332" stroke="#000" stroke-width=".565" stroke-linecap="round" stroke-linejoin="round"/><path d="M73.963 43.74a34.359 34.359 0 01-.14-1.949c1.489 1.088 2.863 1.775 3.32 1.088" stroke="#000" stroke-width=".565" stroke-linecap="round" stroke-linejoin="round"/></svg>