<svg width="96" height="96" fill="none" xmlns="http://www.w3.org/2000/svg"><path d="M39.874 35.907c-1.395 1.168-5.718 1.988-9.777 12.23l-5.973-5.371a12.424 12.424 0 00-5.992 6.666l8.983 8.072a5.275 5.275 0 007.44-.4l3.722-4.145-1.478 9.808-6.056 6.748a14.228 14.228 0 006.676 6l6.411-7.132a8.534 8.534 0 001.952-3.711c1.395-5.856.92-16.188 1.824-25.09-3.619-.674-4.96-1.495-7.732-3.675z" fill="#09AFF4"/><path d="M89.3 36.318L78.901 47.289l4.123-18.149L93.42 18.17 89.3 36.318zm-32.964-4.023c-.136-.09-.374-.009-.684.21l.72.593c.12-.42.12-.711-.036-.803zm-6.438 5.609c-.192.493-.166.906-.018 1.003.149.098.576 0 .864-.373l-.846-.63zm4.152-5.207c-.138-.091-.375-.01-.685.21l.72.592c.118-.41.108-.702-.036-.802zM32.716 67.27L30.7 69.514a14.227 14.227 0 006.676 6l2.107-2.344a16.072 16.072 0 01-6.767-5.9zm11.601-33.078l3.375 5.244.894-1.623-4.269-3.62zm3.456-13.223l.466 1.003.255-.684-.72-.32zm-2.417 24.113l-7.086 7.88-.72 4.833 7.806-12.713zM28.138 75.387c-.593.638-1.204 1.276-1.833 1.933-.502 2.964-.264 9.768.693 12.932 2.544-4.231 3.466-6.912 4.752-11.272a16.215 16.215 0 01-3.612-3.593zM18.097 40.412c-.438-.438-.94-.976-1.605-1.696-5.163.73-10.844 2.453-13.252 3.593a26.663 26.663 0 0011.52 1.642l.2.182a16.934 16.934 0 013.137-3.72zm7.999 4.077l-1.968-1.776a12.459 12.459 0 00-5.992 6.667l1.997 1.796a17.716 17.716 0 015.963-6.687zm25.691-29.458a.944.944 0 00-.62-1.056.955.955 0 00-.577-1.65.96.96 0 00-1.056-1.35.95.95 0 00-.422-.916.954.954 0 00-1.01-.023.962.962 0 00-1.696-.43 1.002 1.002 0 00-1.833.092.954.954 0 00-1.578.303 1.2 1.2 0 00-1.906-1.05 1.248 1.248 0 00-2.334.118 1.194 1.194 0 00-1.752 1.395 1.195 1.195 0 00-.521 2.187 1.195 1.195 0 00.757 2.125 1.192 1.192 0 001.888 1.195 1.159 1.159 0 00.95.73.955.955 0 00.846 1.212.955.955 0 001.067 1.34.955.955 0 001.44.931.957.957 0 001.697.42 1.404 1.404 0 001.003.592 5.417 5.417 0 00.61-1.776 2.815 2.815 0 00-.335-1.842c-1.359-.447-.748-2.043.173-1.422.438.3.604.281.639-.01a.465.465 0 01.257-.402.959.959 0 001.77-.082.96.96 0 001.376.018c.226.532.397 1.085.511 1.651a.959.959 0 00.128-1.587.993.993 0 00.528-.713zm19.917-2.608a1.896 1.896 0 10-3.741.62 1.896 1.896 0 003.741-.62zM15.088 54.94l-4.277 1.377 1.767 10.434 2.51-11.81zM70.62 41.473l-.004-.008.003.008z" fill="#E9E9E9"/><path d="M74.486 36.901l-2.453 2.253a11 11 0 012.49.848c.336.143.644.344.912.593.373.429-1.633-.182-2.618-.292h-.01c.2.105.382.24.539.402.323.37-2.15-.468-2.371-.31.948.428 2.417 1.24 2.772 1.871.42.757-1.733-.748-3.128-.793.885.41 1.852.985 2.198 1.623.474.864-1.24-.72-3.283-.784h-.01c1.952 1.186 2.864 2.16.092.958a5.048 5.048 0 00-1.605-.42l-5.572 5.096 16.452-.639 2.417-10.652-6.822.246z" fill="#E9E9E9"/><path d="M89.298 36.318L78.901 47.289l4.123-18.149L93.42 18.17l-4.122 18.149zm-14.812.583l-2.453 2.253a11 11 0 012.49.848c.336.143.644.344.912.593.373.429-1.633-.182-2.618-.292h-.01c.2.105.382.24.539.402.323.37-2.15-.468-2.371-.31.948.428 2.417 1.24 2.772 1.871.42.757-1.733-.748-3.128-.793.885.41 1.852.985 2.198 1.623.474.864-1.24-.72-3.283-.784h-.01c1.952 1.186 2.864 2.16.092.958a5.048 5.048 0 00-1.605-.42l-5.572 5.096 16.452-.639 2.417-10.652-6.822.246zm-22.7-21.871a.943.943 0 00-.62-1.056.954.954 0 00-.576-1.65.958.958 0 00-1.057-1.35.95.95 0 00-.422-.917.954.954 0 00-1.01-.023.96.96 0 00-1.696-.428 1.002 1.002 0 00-1.833.091.955.955 0 00-1.579.303 1.2 1.2 0 00-1.905-1.05 1.248 1.248 0 00-2.334.118 1.194 1.194 0 00-1.752 1.395 1.196 1.196 0 00-.521 2.187 1.196 1.196 0 00.757 2.125 1.192 1.192 0 001.888 1.195 1.16 1.16 0 00.95.73.955.955 0 00.846 1.212.955.955 0 001.067 1.34.953.953 0 001.44.931.956.956 0 001.697.42 1.403 1.403 0 001.003.592 5.417 5.417 0 00.61-1.776 2.815 2.815 0 00-.335-1.842c-1.359-.447-.748-2.043.173-1.423.438.301.604.282.639-.009a.466.466 0 01.257-.402.96.96 0 001.77-.082.958.958 0 001.376.018c.226.532.397 1.085.511 1.651a.958.958 0 00.41-1.218.96.96 0 00-.282-.369.991.991 0 00.528-.713z" stroke="#000" stroke-width=".565" stroke-linejoin="round"/><path d="M50.956 20.676l27.223-4.578M6.286 28.173l39.672-6.657m2.226 3.448l8.162 7.332m.037.802c.11-.41.11-.703-.037-.803-.136-.092-.384-.01-.693.21a7.549 7.549 0 00-1.248 1.248M22.273 43.904c-3.082-2.453-3.338-2.526-5.782-5.198-5.162.73-10.843 2.453-13.25 3.593a26.701 26.701 0 0011.527 1.642l4.186 3.767m26.503-22.727l8.6 7.716m-4.177 6.21l-5.564-4.715 3.37 5.243m22.048.502c.336.073 3.413 1.148 4.059 2.298.432.765-1.751-.757-3.165-.803" stroke="#000" stroke-width=".565" stroke-linecap="round" stroke-linejoin="round"/><path d="M69.433 40.94c.857.31 2.889 1.169 3.42 2.135.48.876-1.248-.73-3.32-.794m-.337-.191c2.17 1.267 3.367 2.441.42 1.167-1.523-.658-12.624-.994-12.624-.994a5.572 5.572 0 01-2.698-1.032l-4.396-3.337m3.465-4.988l4.47 3.968s11.198 2.097 12.056 2.342c.857.245 2.91.765 3.51 1.45.32.364-1.44-.264-2.507-.32" stroke="#000" stroke-width=".565" stroke-linecap="round" stroke-linejoin="round"/><path d="M54.094 33.499c.11-.41.11-.703-.037-.803-.136-.092-.384-.01-.693.21-1.261.898-3.137 3.682-3.53 5.208-.095.374-.078.712.046.793.145.096.557-.018.864-.365m-14.8 3.338a9.526 9.526 0 006.129-1.905m5.537-.402l.975-1.76m-.547-13.717c-.602.875-1.705.492-3.228-.976m-6.541 29.852l7.087-7.89-7.806 12.713" stroke="#000" stroke-width=".565" stroke-linecap="round" stroke-linejoin="round"/><path d="M27.117 57.494a5.267 5.267 0 007.44-.402l3.71-4.121-1.467 9.792-6.055 6.749a14.227 14.227 0 006.676 6l6.411-7.141a8.535 8.535 0 001.952-3.712c1.395-5.856.92-16.197 1.824-25.09-3.63-.674-4.97-1.495-7.734-3.675-1.786 1.306-5.771 2.274-9.776 12.233l-5.972-5.371a12.458 12.458 0 00-5.992 6.666l8.983 8.072zm21.364-36.221a6.27 6.27 0 01-.706-.314l.464 1.008" stroke="#000" stroke-width=".565" stroke-linecap="round" stroke-linejoin="round"/><path d="M39.872 35.889a18.9 18.9 0 00.784-3.748 17.169 17.169 0 011.68-5.627c.86-1.806 2.832-3.47 3.84-5.39a4.496 4.496 0 00.564-1.715 2.813 2.813 0 00-.336-1.842c-1.359-.447-.745-2.047.174-1.423.439.3.61.283.638-.009.025-.153.056-.3.092-.438m1.55 12.34c-.672-1.94-1.23-4.904-.38-6.764 3.453 1.267 3.16-3.21 2.149-5.576l-1.77 12.34zM32.762 67.27a16.072 16.072 0 006.768 5.901M20.121 51.183c1.532-2.784 3.448-5.07 5.965-6.658m5.744 26.639c-1.926 2.352-3.65 4.198-5.526 6.156-.502 2.964-.264 9.768.693 12.932 2.544-4.231 3.466-6.922 4.752-11.28l3.904-4.34M14.969 44.125a16.853 16.853 0 013.137-3.712m54.747-.147c.994.1 3.017.72 2.645.292a3.225 3.225 0 00-.921-.602c-1.287-.629-2.517-.83-3.885-1.204l-10.608-2.571-4.427-3.68" stroke="#000" stroke-width=".565" stroke-linecap="round" stroke-linejoin="round"/><path d="M38.926 41.524l-8.18 12.02-7.907-6.265m38.45-33.124a1.893 1.893 0 01-1.93 2.204 1.894 1.894 0 111.93-2.204zm5.162-.857a1.893 1.893 0 01-1.93 2.204 1.894 1.894 0 111.93-2.204zm5.253-.875a1.893 1.893 0 01-1.93 2.204 1.895 1.895 0 111.93-2.204zM17.421 5.747l-3.483 4.907m4.195-.712l-4.898-3.484M3.587 58.635l-.11.036 3.366 2.982-4.442 4.88 2.38 2.124 4.442-4.888 3.356 2.983 2.508-11.81-11.5 3.693zm58.733 6.73l-7.06-2.189 5.938-4.122m6.922 5.38l5.891-4.359-7.013-1.96m-1.085-2.6l-2.581 12.567" stroke="#000" stroke-width=".565" stroke-linecap="round" stroke-linejoin="round"/><path d="M8.814 43.736l4.732 29.17a7.674 7.674 0 003.13 4.98 7.691 7.691 0 005.734 1.305l3.793-.638m56.4-35.135l2.818 17.368a7.683 7.683 0 01-6.284 8.865l-45.93 7.724m2.911-64.185l-23.886 4.012a7.683 7.683 0 00-6.283 8.865l2.34 14.426m41.253-29.56l19.416-3.262a7.68 7.68 0 018.865 6.284l3.6 22.196M28.138 75.388a15.97 15.97 0 003.611 3.584" stroke="#000" stroke-width=".565" stroke-linecap="round" stroke-linejoin="round"/></svg>