<svg width="96" height="96" fill="none" xmlns="http://www.w3.org/2000/svg"><path d="M68.73 65.702c-3.562-.192-9.727-.325-10.944-.438-.627-2.871-1.636-7.418-2.036-9.552l.02-.013c2.472-1.596 4.688-5.965 1.14-12.12-4.727.039-9.064 1.1-13.06 3.556.1.903.183 1.669.228 2.17-11.354 5.136-13.543 6.649-13.963 9.193-.487 2.972 2.103 7.215 9.677 19.718 2.88.672 7.267-.974 8.28-3.593-1.158-2.341-5.178-10.442-6.447-12.705 3.419-1.248 7.392-2.796 10.67-4.373-1.34 1.29-4.004 4.002-4.97 5.149 1.404 4.286 3.046 9.264 4.825 10.086 2.076.96 3.034 1.24 16.57 1.24 1.554-1.393 1.206-6.3.01-8.318zm-42.773-52.35c-.374.684-.711 1.35-1.021 1.98-2.453 5.061-2.937 8.408-2.928 10.907.009 1.231.128 2.253.192 3.183v.01c.173.1.336.2.538.318.365-.576.666-.465 1.56-.027 1.23.602 1.35.657 1.44 1.523.009.11.018.21.036.31.857-.483 1.833-.967 2.946-1.68 2.107-1.359 4.642-3.584 7.533-8.409.365-.61.739-1.248 1.112-1.942l-11.408-6.172zm3.685 9.987l-.584 2.772-1.266-2.535-2.809.32L27 21.897l-1.167-2.581 2.517 1.296 2.089-1.897-.456 2.8 2.462 1.395-2.802.428z" fill="#09AFF4"/><path d="M73.107 9.595c-.009.456-.009.894 0 1.277.612-.182.894-.401.94-.62.083-.394-.682-.708-.94-.657zM69.98 66.449a5.534 5.534 0 00-.865.046c.803 1.988.848 5.07.192 6.675 1.056 1.414 4.176 3.548 6.603 4.196-.176-3.813-4.253-9.367-5.93-10.917zM67.746 9.796c-.156-.004-.768.117-.768.538 0 .228.282.483.975.657a1.76 1.76 0 00-.207-1.195zM57.339 35.231c.128 1.888.328 4.14.328 5.7.693-2.435 1.541-5.38 2.034-7.013l-2.362 1.313zm-3.62-18.24c0-.62-.803-.83-1.232-.154-.036-.584-.985-.72-1.45.072-.1-.629-1.167-.492-1.54.22-.11-.557-1.022-.247-1.177.583-.165.875-.31 1.669-.41 2.38a12.587 12.587 0 013.629-.51c-.255.966-.144 2.27.273 1.386.41-.885 1.46-.219.72.94a1.417 1.417 0 00.156 1.504c.109-1.906 1.587-4.378 2.042-5.38.621-1.36-.318-1.724-1.011-1.04zm-7.26 43.083c.274.812.565 1.697.864 2.618 1.076-1.277 4.186-4.296 5.308-5.308a84.889 84.889 0 01-6.172 2.69zm3.414-34.929a8.06 8.06 0 01-.12 1.24 4.04 4.04 0 001.414-1.776c-.417.212-.85.391-1.294.536zm-2.229 50.288c.434.337.832.719 1.186 1.14-2.116 5.016-6.649 9.238-8.436 10.36a30.265 30.265 0 011.805-8.619c2.052-.273 4.36-1.313 5.445-2.881zM42.82 38.352c-.94 1.13-3.548 3.93-5.992 5.545a51.018 51.018 0 006.338-2.528 417.67 417.67 0 01-.346-3.017zM27.015 32.55c-.201-.118-.548.027-.803.401.21.377.55.666.956.812.147-.711.048-1.094-.153-1.213zm-2.216 5.829c-.42.474-.74.612-.949.547-.292-.09-.328-.639-.155-1.213.374.219.748.438 1.104.666zm-6.904 33.907a2.745 2.745 0 100-5.49 2.745 2.745 0 000 5.49z" fill="#E9E9E9"/><path d="M22.2 36.846c.018-.83.41-1.714 1.056-2.918a3.148 3.148 0 01.396-2.66 4.17 4.17 0 01-.568.7c.274.556-.173 1.404-.967 1.003l.11.173c.967.548.328 1.788-.702 1.296l.192.174c.948.501.355 1.714-.666 1.267-.447-.2-.812-.346-1.113-.474-.784.63-1.76.775-3.383.547l7.04 3.813c-1.003-1.142-1.423-2-1.395-2.92zm-5.88-1.016l-1.716 2.244 8.29 4.496.95-2.663-7.525-4.077z" fill="#E9E9E9"/><path d="M24.799 38.379c-.864-.566-1.86-1.067-2.609-1.55m25.683-16.445L46.157 2.4l-13.26 33.252m15.787-6.677l-.365-3.913m19.546 40.594l12.467-31.263-21.897 3.867m-3.613 35.348L56.728 93.6l7.816-19.598M30.126 42.6l-7.58 19.007 7.589-1.341m-5.19-44.916l-4.743-2.563c-3.792 7.004-.328 12.312 1.815 13.47m5.783-2.671l-2.809.31 2.007-1.988-1.168-2.581 2.517 1.295 2.089-1.906-.456 2.79 2.462 1.405-2.8.429-.565 2.772-1.277-2.526z" stroke="#000" stroke-width=".565" stroke-linecap="round" stroke-linejoin="round"/><path d="M36.285 21.48l4.71 2.561c-3.795 7.004-10.13 7.004-12.265 5.846m-7.064 50.097a5.38 5.38 0 100-10.76 5.38 5.38 0 000 10.76zM80.35 21.178a1.66 1.66 0 100-3.32 1.66 1.66 0 000 3.32zM15.89 48.82a.848.848 0 100-1.696.848.848 0 000 1.696zM59.264 7.16l-.848 3.393 2.572-.456-.848 3.392m-38.623 20.94c1.032.49 1.668-.747.703-1.296-.72-.41-1.24-.666-1.824-.967a.78.78 0 00-.84 1.313c.465.294 1.014.5 1.961.95zm1.23-4.67c-.364-.22-.628-.367-.984-.576a.773.773 0 00-.885 1.267c.39.26.798.492 1.222.693m-1.04 4.737c1.013.446 1.605-.765.657-1.268-.703-.373-1.224-.608-1.788-.876a.754.754 0 00-.784 1.286c.456.264.985.447 1.915.857zm1.02-4.697c-.373-.201-.703-.352-1.066-.548a.79.79 0 00-.876 1.314c.474.31 1.014.534 1.968 1.012.795.398 1.24-.447.967-1.003m3.131.994c.264-.374.61-.517.812-.401.361.206.391 1.258-.73 3.474-1.195 2.362-2.034 3.03-2.444 2.9-.283-.09-.328-.647-.155-1.212" stroke="#000" stroke-width=".565" stroke-linecap="round" stroke-linejoin="round"/><path d="M27.169 33.763c-.62-.255-1.248-.71-1.423-2.517-.085-.864-.21-.922-1.44-1.523-1.44-.703-1.359-.576-2.444 1.98-.267.628.711 1.276 1.842-.548-.885 1.395-.72 2.784.091 3.666M71.328 6.112c-.09 1.14-1.473 1.176-1.469.073.004-.82.039-1.405.073-2.061.058-1.095 1.518-1.085 1.55-.183.022.548-.07 1.122-.154 2.171zm-4.64-.839c-.01-.402-.003-.695-.01-1.078-.016-1.04 1.465-1.086 1.533-.218.031.443.031.888 0 1.331m4.687 1.068c-.114 1.113-1.455 1.112-1.414.036.031-.793.081-1.359.128-1.988.08-1.056 1.496-1.012 1.496-.144 0 .527-.106 1.084-.21 2.096zM68.246 5.3c.01-.429.045-.794.055-1.204.026-1.113 1.511-1.131 1.569-.219.034.556-.046 1.14-.1 2.208a.742.742 0 01-1.35.438m-.683 3.273c-.456.073-.748.292-.748.52 0 .41.885.901 3.356.857 2.627-.048 3.622-.51 3.712-.93.065-.301-.319-.576-.894-.666" stroke="#000" stroke-width=".565" stroke-linecap="round" stroke-linejoin="round"/><path d="M67.965 10.981c.082-.665-.004-1.418-1.469-2.362-.703-.453-.693-.593-.601-1.951.108-1.606.173-1.47 2.918-1.332.675.034.748 1.195-1.386 1.414 1.641-.183 2.763.565 3.12 1.669m2.57 2.444c-.055-1.879.144-4.907 0-6.366m-6.13 5.828c.019 2.28 0 8.117-.154 10.844-.72.474-6.402 3.312-8.838 4.441-2.204 1.023-4.068.812-4.937-.579-1.2-1.92.85-5.148 1.68-7 .611-1.358-.319-1.723-1.012-1.04 0-.61-.803-.829-1.231-.154-.046-.584-.994-.72-1.45.073-.11-.62-1.168-.483-1.541.219-.11-.548-1.016-.24-1.177.583-1.448 7.374-.576 8.592 2.855 6.895a4.04 4.04 0 01-1.414 1.776" stroke="#000" stroke-width=".565" stroke-linecap="round" stroke-linejoin="round"/><path d="M74.057 10.252c0 12.85.14 13.48-.538 14.747-.9 1.68-2.672 2.727-16.18 10.233.138 1.888.33 4.14.33 5.7M27.016 32.55c3.01 1.806 7.095 3.667 7.606 3.904 2.28-.93 9.821-4.334 12.912-6.366 1.805-1.187 2.325-3.639 2.334-4.952m-2.333 4.959c1.195 1.259 5.819.384 7.013-3.948m-6.638-6.055a12.712 12.712 0 013.629-.51c-.255.975-.144 2.288.273 1.385.418-.902 1.464-.206.72.94a1.398 1.398 0 00.156 1.505" stroke="#000" stroke-width=".565" stroke-linecap="round" stroke-linejoin="round"/><path d="M40.23 62.418c4.122-1.477 10.873-3.974 15.349-6.594 2.536-1.484 4.979-5.928 1.34-12.248.684-2.4 2.089-7.35 2.784-9.658" stroke="#000" stroke-width=".565" stroke-linecap="round" stroke-linejoin="round"/><path d="M48.557 47.288c-15.285 6.804-17.963 8.355-18.44 11.209-.408 2.435.629 4.879 9.676 19.728 2.517.684 7.24-.84 8.28-3.6-2.717-5.52-5.544-11.088-6.447-12.705" stroke="#000" stroke-width=".565" stroke-linecap="round" stroke-linejoin="round"/><path d="M46.469 60.074c1.568 4.579 3.53 11.701 5.69 12.704 2.162 1.004 3.001 1.204 16.56 1.24 1.36-1.039 1.405-6.082 0-8.326-3.6-.2-9.64-.32-10.925-.438-.63-2.918-1.632-7.488-2.016-9.567m-8.134 19.746a11.85 11.85 0 011.751 1.796c-1.094 3.055-5.424 8.838-8.983 11.035-.21-2.362.666-7.14 1.779-9.95m23.703-12.74c1.204 1.35 1.797 5.956-.182 8.436m-27.561 1.514c2.773.61 7.152-.502 8.555-3.667m-6.329 15.076c1.77-1.112 6.33-5.344 8.445-10.368" stroke="#000" stroke-width=".565" stroke-linecap="round" stroke-linejoin="round"/><path d="M69.113 66.485a7.13 7.13 0 011.651 0c1.541 1.248 5.846 6.412 5.9 11.036-2.48-.336-6.174-2.782-7.36-4.36m.676-6.711c1.68 1.55 5.745 7.104 5.927 10.917M42.629 36.453c.237 2.836 1.248 10.525 1.44 12.841m12.851-5.718c-5.161.037-9.411 1.313-13.068 3.557" stroke="#000" stroke-width=".565" stroke-linecap="round" stroke-linejoin="round"/><path d="M43.66 74.803c-1.99-3.858-6.111-12.659-6.996-14.501 4.122-2.08 14.601-6.439 16.407-7.56 1.806-1.122 2.517-2.563.602-8.966m-29.821-4.848c8.636 5.223 10.023 5.79 12.184 5.196a48.07 48.07 0 007.132-2.755m-6.338 2.527c2.435-1.615 5.052-4.424 5.99-5.544m4.515 24.34c1.076-1.277 4.186-4.287 5.308-5.308m-40-34.757l.316 1.788m3.777 1.076l-1.788.317m-1.075 3.778l-.316-1.788m-3.779-1.076l1.79-.317m3.382-.597a1.714 1.714 0 01-1.989-1.393 1.713 1.713 0 01-1.392 1.99 1.715 1.715 0 011.99 1.392 1.716 1.716 0 011.39-1.99zm65.39 23.888l.453 2.564m5.419 1.543l-2.565.453m-1.542 5.417l-.454-2.564m-5.418-1.543l2.566-.453m4.847-.856a2.463 2.463 0 01-2.505-1.1 2.458 2.458 0 01-.348-.896 2.462 2.462 0 01-1.1 2.505 2.458 2.458 0 01-.895.348 2.46 2.46 0 012.852 1.997 2.463 2.463 0 011.1-2.506c.273-.174.578-.292.896-.348z" stroke="#000" stroke-width=".565" stroke-linecap="round" stroke-linejoin="round"/><path d="M25.958 13.352c-.374.684-.711 1.35-1.021 1.98-2.453 5.061-2.937 8.408-2.928 10.907.009 1.231.128 2.253.192 3.183v.01c.173.1.336.2.538.318.365-.576.666-.465 1.56-.027 1.23.602 1.35.657 1.44 1.523.009.11.018.21.036.31.857-.483 1.833-.967 2.946-1.68 2.107-1.359 4.642-3.584 7.533-8.409a49.15 49.15 0 001.113-1.942l-11.409-6.172zm3.685 9.987l-.584 2.772-1.266-2.535-2.809.32L27 21.897l-1.167-2.581 2.517 1.296 2.089-1.897-.456 2.8 2.462 1.395-2.802.428zM22.2 36.845c.019-.83.41-1.714 1.056-2.918a3.148 3.148 0 01.397-2.66 4.165 4.165 0 01-.568.7c.274.556-.173 1.404-.967 1.003l.11.173c.966.548.328 1.788-.702 1.296l.192.174c.948.501.355 1.714-.666 1.267-.447-.2-.812-.346-1.113-.474-.784.63-1.76.775-3.383.547l7.04 3.813c-1.003-1.142-1.423-2-1.395-2.92zm-5.873-1.015l-1.715 2.243 8.29 4.496.949-2.663-7.524-4.077z" stroke="#000" stroke-width=".565" stroke-linejoin="round"/></svg>