<svg width="74" height="29" fill="none" xmlns="http://www.w3.org/2000/svg"><path d="M31.56 7h2.36v11.88h5.56V21h-7.92V7zm8.749 9.4c0-.947.213-1.78.64-2.5a4.589 4.589 0 011.78-1.68c.747-.413 1.593-.62 2.54-.62.947 0 1.787.207 2.52.62.747.4 1.34.96 1.78 1.68.44.72.66 1.553.66 2.5 0 .933-.22 1.767-.66 2.5a4.738 4.738 0 01-1.78 1.7c-.733.4-1.573.6-2.52.6-.947 0-1.793-.2-2.54-.6a4.738 4.738 0 01-1.78-1.7c-.427-.733-.64-1.567-.64-2.5zm2.22 0c0 .573.12 1.08.36 1.52.24.427.567.767.98 1.02.413.24.88.36 1.4.36.507 0 .967-.12 1.38-.36.427-.253.76-.593 1-1.02.24-.44.36-.947.36-1.52 0-.573-.12-1.08-.36-1.52a2.54 2.54 0 00-1-1.02 2.698 2.698 0 00-1.38-.36c-.52 0-.987.12-1.4.36-.413.24-.74.58-.98 1.02-.24.44-.36.947-.36 1.52zm9.23 5.22h2.14c.013.413.126.787.34 1.12.226.333.533.593.92.78.386.187.833.28 1.34.28.453 0 .886-.107 1.3-.32a2.44 2.44 0 001-.98c.266-.44.4-1.007.4-1.7v-9h2.12v9c0 1.107-.227 2.02-.68 2.74-.44.72-1.02 1.253-1.74 1.6-.72.36-1.5.54-2.34.54-1 0-1.854-.173-2.56-.52-.707-.333-1.254-.807-1.64-1.42-.374-.613-.574-1.32-.6-2.12zm-.18-5.26c0-1.027.206-1.887.62-2.58a4.251 4.251 0 011.64-1.62 4.614 4.614 0 012.22-.56c.773 0 1.446.193 2.02.58.586.373 1.046.913 1.38 1.62.346.707.52 1.56.52 2.56 0 .987-.174 1.833-.52 2.54-.334.707-.794 1.253-1.38 1.64-.574.373-1.247.56-2.02.56a4.614 4.614 0 01-2.22-.56 4.251 4.251 0 01-1.64-1.62c-.414-.707-.62-1.56-.62-2.56zm2.24 0c0 .613.126 1.133.38 1.56.253.427.586.753 1 .98.426.213.886.32 1.38.32.413 0 .82-.107 1.22-.32a2.468 2.468 0 001-.96c.266-.44.4-.967.4-1.58 0-.48-.08-.893-.24-1.24a2.536 2.536 0 00-.6-.9 2.398 2.398 0 00-.86-.56 2.508 2.508 0 00-.92-.18 2.89 2.89 0 00-1.38.34 2.469 2.469 0 00-1 .96c-.254.427-.38.953-.38 1.58zm9.478.04c0-.947.214-1.78.64-2.5a4.589 4.589 0 011.78-1.68c.747-.413 1.594-.62 2.54-.62.947 0 1.787.207 2.52.62.747.4 1.34.96 1.78 1.68.44.72.66 1.553.66 2.5 0 .933-.22 1.767-.66 2.5a4.738 4.738 0 01-1.78 1.7c-.733.4-1.573.6-2.52.6-.947 0-1.793-.2-2.54-.6a4.738 4.738 0 01-1.78-1.7c-.426-.733-.64-1.567-.64-2.5zm2.22 0c0 .573.12 1.08.36 1.52.24.427.567.767.98 1.02.413.24.88.36 1.4.36.507 0 .967-.12 1.38-.36.427-.253.76-.593 1-1.02.24-.44.36-.947.36-1.52 0-.573-.12-1.08-.36-1.52a2.54 2.54 0 00-1-1.02 2.698 2.698 0 00-1.38-.36c-.52 0-.987.12-1.4.36-.413.24-.74.58-.98 1.02-.24.44-.36.947-.36 1.52z" fill="#000"/><rect width="16" height="16" rx="4" fill="#C07FF2"/><rect x="8" y="8" width="16" height="16" rx="8" fill="#09AFF4"/></svg>