<svg width="96" height="96" fill="none" xmlns="http://www.w3.org/2000/svg"><path d="M70.094 52.319C67 49.072 58.874 44.745 54.96 42.595c-1.33 2.252-6.229 2.55-8.947 1.723a9.276 9.276 0 00-3.11 4.345c.683.99 0 4.35-.258 6.804a32.502 32.502 0 001.627 5.84 106.046 106.046 0 00-4.305-4.533c-5.376-3.197-4.158-2.496-6.101-3.63-.256.13-.503.277-.74.438a8.543 8.543 0 00-3.757 7.223c.76.624 11.01 8.064 15.304 10.844 5.08 3.274 8.636 1.496 9.156-3.146.263-2.413 1.138-13.716 1.186-14.364 1.337 1.417 5.527 4.768 7.515 5.253-.13 1.37-1.461 12.899-1.55 13.643 2.447 2.054 6.996 2.597 9.046 1.651.503-2.976 1.694-13.667 1.86-17.264.083-1.791.04-3.183-1.79-5.103zm-.88-37.265c-.864.173-.96 2.496-.967 3.383a5.87 5.87 0 012.88.384c-.481-2.272-1.247-3.85-1.913-3.767zm2.399 7.67a5.93 5.93 0 01-2.688 1.076c.215.84.881 3.1 1.742 3.046.662-.082 1.019-1.797.946-4.122zm-6.759-3.082l-5.043.62c-.474.839-.336 2.553.21 3.465.384-.282 1.248-.364 1.951-.437.584-.055.703.127.794.456.018.063.027.127.046.2.428-.255 1.315-.555 1.641-.392l.864-.11c-.756-.747-1.01-2.845-.463-3.802zM37.258 80.206l-2.727-1.915a1.409 1.409 0 111.614-2.309l.42.292.292-.42a1.408 1.408 0 112.307 1.615l-1.906 2.737z" fill="#09AFF4"/><path d="M26.878 26.884a2.189 2.189 0 100-4.378 2.189 2.189 0 000 4.378zm40.284 48.244a11.196 11.196 0 01-5.29-1.478c-.483 1.488-1.395 2.472-1.724 3.21 1.423 2.992 7.068 8.017 10.333 9.985-.197-5.333-3.505-7.813-3.32-11.717zM31.384 52.072c.465.31.994.921 1.733 1.514a8.684 8.684 0 00-3.63 5.6c-2.672.355-5.563 1.952-9.696 1.377 1.397-2.526 8.41-7.606 11.593-8.49zm12.037 6.704c.237.803.52 1.651.849 2.536a126.917 126.917 0 00-4.305-4.551c1.45.857 2.727 1.607 3.456 2.015zm11.584-4.632c-.082.994-.164 2.106-.255 3.264.611.155 4.934 1.285 7.032 1.814a33.555 33.555 0 01-6.777-5.078zm-.174-14.658a36.762 36.762 0 001.505 3.858c-.447-.246-.903-.492-1.377-.748a57.432 57.432 0 00-.128-3.11zm-21.094 7.671c-.384.666-.465 1.277-.192 1.632.282.356.793.493 1.833.173a7.04 7.04 0 01-1.641-1.805zm6.511-2.507a.838.838 0 01-.21 1.084 52.387 52.387 0 01-1.604-1.632c1.05-.137 1.496.162 1.815.547zm2.582-7.962a28.92 28.92 0 01-1.413 2.617c-.712-.72-1.34-1.322-1.77-1.68 1.268-.381 2.498-.746 3.183-.938zm14.92-5.246c-.885.183-1.532.557-1.505.903 0 .51 1.578.66 1.642.666-.028-.328-.083-.912-.137-1.569zm6.931.375c-.018.31-.638.666-1.66.921-.036-.319-.164-.966-.291-1.614 1.395.1 1.97.374 1.951.693zm-.091-3.83a3.03 3.03 0 01-1.168.438c-.693.11-1.167-.474-.155-1.067-.739.144-1.331-.465-.255-1.15a.795.795 0 01-.255-.045c-.22.228-.639.055-1.04-1.505a4.08 4.08 0 01.018 1.988c.038.977.306 1.931.784 2.784a.505.505 0 00.073.119 8.356 8.356 0 002.262-.885 3.806 3.806 0 01-.264-.677zm-8.38-9.002c1.55-.565.866-2.435-.238-2.818 1.113-.556.776-2.48-.62-2.408.785-1.048.155-2.517-1.459-2.289.21-1.331-.702-2.208-2.143-1.596.036-1.495-1.776-2.143-2.581-1.14-.336-1.477-1.98-2.016-3.22-.576-.335-1.505-2.726-1.55-2.945-.036-1.013-1.296-3.238-.557-3.083.92-1.377-1.413-3.247.138-3.12 1.68-1.432-.802-2.754 1.177-2.16 2.463-1.815.265-2.208 2.016-1.04 3.072-1.705.602-1.459 2.262-.346 3.028-1.304.894-.985 2.672.565 2.91-1.112 1.247.073 3.283 1.596 2.99-.848 1.414.31 2.974 1.824 2.353a1.57 1.57 0 00.775 1.934c1.085-.392 3.666-1.368 3.666-1.368 2.973-1.159 3.685-3.411 4.26-5.755-1.651-.528-.93-2.18-.101-1.541.793.61.538-.21.456-1.086a14.33 14.33 0 013.256-.556c1.35 4.067 1.12 6.054-.523 5.98a5.675 5.675 0 01-2.222-.817c.227.57.561 1.09.985 1.532 0 .947.669 2.147 2.088 2.937l.51.283c.247.137.52.292.803.465a1.334 1.334 0 00.976-1.55 1.632 1.632 0 002.435-1.906c1.587-.019 1.797-1.77.949-2.609 1.34-.319 1.286-1.65.3-2.189 1.241-.392 1.305-1.769.356-2.307z" fill="#E9E9E9"/><path d="M61.47 68.772l-8.016 1.413M70.19 26.664l6.94 39.344-6.138 1.085M55.26 24.046l2.918-.52M26.624 35.811l-1.15-6.511 10.274-1.815m-6.134 25.299l-1.879-10.67M44.78 71.717l-11.473 2.025-2.034-11.51" stroke="#000" stroke-width=".565" stroke-linecap="round" stroke-linejoin="round"/><path d="M32.955 14.855l-8.019 1.412a6.3 6.3 0 00-5.116 7.297v.009l5.628 31.788M85.82 88.99L72.643 14.257A6.287 6.287 0 0067.804 9.2a6.29 6.29 0 00-2.457-.051l-11.395 2.007 31.87 77.836zm-54.419 0l-5.136-29.01 5.137 29.013zm52.96-56.214a2.317 2.317 0 100-4.634 2.317 2.317 0 000 4.634zm6.923 4.759a2.317 2.317 0 100-4.633 2.317 2.317 0 000 4.633zm-7.78 1.414l8.618-12.312m.182-12.977a1.077 1.077 0 00-1.496.236l-.228.31s-.336-.237-.346-.246a1.07 1.07 0 00-1.195 1.779l2.07 1.45 1.45-2.07a1.068 1.068 0 00-.255-1.46zM46.715 77.435c.2-.417.263-.886.182-1.34a2.617 2.617 0 10-2.152 2.79 2.79 2.79 0 001.413-.702l1.15.246-.593-.994z" stroke="#000" stroke-width=".565" stroke-linecap="round" stroke-linejoin="round"/><path d="M73.792 74.216l1.988-2.317 2.654 1.496-.83-4.688-4.642.82.83 4.689zM30.308 24.093l3.067-.541M10.189 57.727a1.14 1.14 0 100-2.28 1.14 1.14 0 000 2.28zm6.803-1.204a1.14 1.14 0 100-2.28 1.14 1.14 0 000 2.28zm-5.69-.137l4.569-.802" stroke="#000" stroke-width=".565" stroke-linecap="round" stroke-linejoin="round"/><path d="M2.4 46.19l2.481-.438 4.806 9.813" stroke="#000" stroke-width=".565" stroke-linecap="round" stroke-linejoin="round"/><path d="M8.876 53.914l8.536-2.435.958-4.623-11.92 2.106m4.177-22.17l.985 5.59M13.92 29.1l-5.59.985M87.709 48.17l1.724 9.813m4.048-5.764l-9.822 1.723M63.02 32.729c-.073-.675-.583-2.818-.501-3.312m-.775-2.69c.08.99.368 1.95.848 2.819a8.067 8.067 0 002.262-.885c-.11-.212-.2-.435-.264-.666m7.03-5.27c.074 2.325-.291 4.042-.948 4.122-.838.103-1.842-2.453-2.243-5.71-.402-3.255-.046-5.98.793-6.082.666-.081 1.432 1.495 1.915 3.766m-5.817 4.625c-.757-.748-1.013-2.846-.465-3.803m-4.834 4.084c-.547-.912-.684-2.626-.21-3.465" stroke="#000" stroke-width=".565" stroke-linecap="round" stroke-linejoin="round"/><path d="M68.257 18.438c2.307-.228 4.295.72 4.469 2.18.173 1.46-1.514 2.854-3.813 3.183m-4.46-.247l.867-.11 4.952 3.274m-1.405-11.445l-4.013 4.368-5.444.666c-2.39.292-2.19 3.885.228 3.822m-1.888 7.314c-.894.182-1.532.556-1.505.893.037.447 1.186.846 4.341.712 2.408-.102 4.07-.72 4.095-1.24.014-.311-.566-.593-1.952-.694M40.038 45.743a.835.835 0 00.21-1.085c-.42-.66-1.898-.97-4.168.32-2.099 1.191-3.123 3.068-2.535 3.82.276.354.793.493 1.833.174" stroke="#000" stroke-width=".565" stroke-linecap="round" stroke-linejoin="round"/><path d="M38.424 44.102c1.067 1.149 2.538 2.523 4.113 4.04a2.41 2.41 0 01.648 2.006c-.055.803-.566 5.436-.648 6.092-.11.82-1.056 1.258-.994-4.724m-7.806-4.368a6.332 6.332 0 004.256 2.948m.167-.431c-.054.173-.346.857-.384.96" stroke="#000" stroke-width=".565" stroke-linecap="round" stroke-linejoin="round"/><path d="M36.61 49.684c-.064.738.091 1.659.793 2.125.867.576 1.24.3 2.134-1.615m-1.067 1.732c1.022.602 1.478.401 2.345-1.623m-1.068 1.77c.93.528 1.477.42 2.344-1.706m-2.826-1.45a24.21 24.21 0 012.936.144m-8.227-11.635c1.477 1.55 5.444 6.238 6.274 7.214" stroke="#000" stroke-width=".565" stroke-linecap="round" stroke-linejoin="round"/><path d="M35.37 38.975c.976-.347 5.791-1.824 7.46-2.29a31.46 31.46 0 01-1.413 2.618m1.221 16.126a34.69 34.69 0 001.951 6.712" stroke="#000" stroke-width=".565" stroke-linecap="round" stroke-linejoin="round"/><path d="M39.648 37.636c1.314 1.085 4.451 4.45 6.366 6.685a9.12 9.12 0 00-3.1 4.323m-11.512-2.172c-.182-1.915 3.511-5.29 6.512-4.56m19.981-8.901c-.036-.602-.21-2.043-.237-3.256-.045-2.024.1-2.527.62-3.504a12.947 12.947 0 011.715-2.49c.36-.314 1.268-.398 1.997-.465.584-.052.697.127.794.456a7.5 7.5 0 01.173 1.961c-.02.556-.638 1.213-1.213-1.056.292 1.359.155 2.544-.921 3.264" stroke="#000" stroke-width=".565" stroke-linecap="round" stroke-linejoin="round"/><path d="M64.58 25.661c.484.173.489.837-.017 1.177-.393.26-.834.436-1.297.52-.74.138-1.331-.466-.255-1.15" stroke="#000" stroke-width=".565" stroke-linecap="round" stroke-linejoin="round"/><path d="M64.56 26.838a.646.646 0 01.028 1.149 3.005 3.005 0 01-1.167.438c-.694.107-1.168-.474-.155-1.067m-.418-3.422a3.009 3.009 0 011.359-.417c.674-.04.73.864.082 1.122-.422.19-.872.31-1.332.355" stroke="#000" stroke-width=".565" stroke-linecap="round" stroke-linejoin="round"/><path d="M64.498 24.512c.484.2.484.893-.045 1.24-.265.173-1.095.576-1.66.41m-11.108 5.145c1.514 1.413 3.146 2.654 3.283 11.29 16.726 9.038 17.1 11.017 16.926 14.83-.164 3.61-1.386 14.537-1.872 17.254-2.042.949-6.584.402-9.047-1.65.31-2.736 1.46-12.613 1.55-13.632-1.54-.374-7.076-1.824-7.77-1.998m6.597 12.474c1.642 1.815 6.44 2.763 9.12 1.696" stroke="#000" stroke-width=".565" stroke-linecap="round" stroke-linejoin="round"/><path d="M55.286 50.695c-.219 2.544-1.115 14.683-1.468 17.812-.524 4.641-4.08 6.427-9.157 3.146-4.28-2.767-14.263-10.032-15.294-10.844a8.553 8.553 0 014.496-7.66c2.8 1.623 7.789 4.642 9.558 5.616m-11.764 3.741c-.027-2.755 1.98-6.758 4.88-7.77m9.476-10.416c2.936.93 7.715.356 8.956-1.715" stroke="#000" stroke-width=".565" stroke-linecap="round" stroke-linejoin="round"/><path d="M47.299 44.611c-3.393 5.08-2.317 13.024-.611 21.46-5.308-3.384-12.075-7.46-13.471-8.445M61.873 73.66c-.474 1.488-1.395 2.472-1.724 3.21 1.423 2.983 7.078 8.008 10.333 9.978-.21-5.424-3.63-8.154-3.32-11.701m-34.046-21.56c-.738-.584-1.267-1.195-1.732-1.514-3.183.885-10.197 5.965-11.592 8.482 4.131.576 7.031-1.013 9.696-1.377m35.193-27.362c.119 13.58-.127 14.976-1.176 15.641m-7.26-15.111c.374 2.116 1.259 7.898 1.569 9.339m-1.004-5.937c2.16.893 6.731.73 7.898-.768m-9.694 19.164a33.31 33.31 0 006.776 5.08M39.966 56.76a127.335 127.335 0 014.304 4.55m10.561-21.833c.427 1.314.93 2.602 1.505 3.858m-8.553-18.52a9.086 9.086 0 01-.968-.494c.23.566.563 1.085.981 1.53" stroke="#000" stroke-width=".565" stroke-linecap="round" stroke-linejoin="round"/><path d="M33.496 48.728c-3.235-3.402-4.83-5.469-6.427-7.445-2.553-3.165-1.03-5.765 2.28-7.907 3.457-2.235 8.353-3.715 12.34-5.271 2.972-1.161 3.675-3.411 4.268-5.755-1.65-.528-.932-2.177-.1-1.541.791.604.528-.22.456-1.086a14.938 14.938 0 013.256-.556c1.636 4.95.944 6.823-1.788 5.646-.176 2.304.956 3.345 2.107 3.984 1.669.93 4.469 2.444 6.74 5.837" stroke="#000" stroke-width=".565" stroke-linecap="round" stroke-linejoin="round"/><path d="M41.179 28.306c2.763.912 6.528 3.292 8.5 4.86.437-1.32.68-2.695.72-4.085" stroke="#000" stroke-width=".565" stroke-linecap="round" stroke-linejoin="round"/><path d="M38.024 29.472a1.574 1.574 0 01-.775-1.932c-1.514.62-2.672-.93-1.824-2.352-1.523.292-2.708-1.742-1.596-2.982-1.55-.247-1.872-2.025-.565-2.919-1.113-.768-1.36-2.426.346-3.028-1.167-1.056-.775-2.809 1.04-3.072-.593-1.286.73-3.264 2.16-2.462-.128-1.532 1.742-3.092 3.12-1.68-.155-1.478 2.07-2.216 3.083-.921.218-1.514 2.608-1.469 2.945.036 1.24-1.44 2.88-.903 3.22.576.802-1.003 2.617-.355 2.58 1.14 1.44-.61 2.353.265 2.144 1.596 1.614-.228 2.243 1.24 1.459 2.29 1.405-.074 1.733 1.85.62 2.407 1.104.384 1.788 2.253.237 2.818a1.24 1.24 0 01-.355 2.308c.985.538 1.04 1.871-.31 2.188.848.84.638 2.592-.949 2.609a1.634 1.634 0 01-1.472 2.172 1.633 1.633 0 01-.963-.266 1.334 1.334 0 01-.976 1.55" stroke="#000" stroke-width=".565" stroke-linecap="round" stroke-linejoin="round"/><path d="M37.257 80.208l-2.727-1.915a1.408 1.408 0 111.614-2.309l.42.292.292-.42a1.408 1.408 0 012.307 1.615l-1.906 2.737z" stroke="#000" stroke-width=".565" stroke-linejoin="round"/></svg>