<svg width="96" height="96" fill="none" xmlns="http://www.w3.org/2000/svg"><path d="M22.762 58.048a2.656 2.656 0 00-3.539-1.286l-4.068 1.897 2.48 5.328c.646.286 1.31.527 1.99.72-1.907-3.055-1.214-3.584.793-1.395 1.931 2.107 4.314 2.285 5.919 2.435l-3.575-7.699zm-.51 12.878c-.52-.153-1.072-.32-1.623-.492l1.988 4.268a11.287 11.287 0 01-.365-3.776zm1.404 4.788c-.272.116-.556-.1-.73-.365l.794 1.697 3.95-1.843a372.02 372.02 0 01-4.014.511zm-6.576-6.547c-.784-.31-1.586-.63-2.343-1.003-1.022-.502-.96-1.021.036-.784.365.082.794.136 1.496.227a19.638 19.638 0 01-2.344-1.049c-1.03-.583-.83-1.258.155-.902.264.1.876.291 1.587.474l-.11-.228a18.03 18.03 0 01-1.632-1.049c-.948-.73-.674-1.368.256-.876.137.073.346.165.602.274l-2.08-4.469-4.058 1.897a2.657 2.657 0 00-1.286 3.539l6.31 13.571a2.659 2.659 0 003.54 1.286l4.067-1.897-4.195-9.01zm28.338-62.54l-6.302 2.645 5.6-3.922-1.45-2.635a.613.613 0 00-.994-.11l-7.58 8.437a.613.613 0 00.557 1.012l11.19-1.888a.61.61 0 00.438-.894l-1.459-2.645z" fill="#09AFF4"/><path d="M48.883 53.415c-.71.329-.875 1.623-.576 3.42a21.77 21.77 0 004.26-.775c-1.413-1.897-2.854-3.028-3.684-2.645zm7.27 9.786a10.456 10.456 0 01-4.47 2.064c1.716 2.745 3.54 4.405 4.552 3.93 1.012-.467.921-2.92-.082-5.994zm34.064-48.174c-2.253 1.943-6.339 8.428-7.096 10.772.137 1.13.246 1.933.32 2.617 1.679.224 3.383.19 5.052-.1l-.018-.748c1.952-6.375 2.025-9.112 1.742-12.54zM63.147 7.23c-1.623 2.909-3.32 9.585-3.456 12.613.484.775.949 1.541 1.396 2.299a16.197 16.197 0 014.332-2.764c.029-1.697.255-4.728-2.272-12.149zM22.252 70.927c-.128 2.635.392 4.752 1.204 4.815.768.064 1.541-1.687 1.851-4.058a18.043 18.043 0 01-3.055-.757zm22.382 9.429a4.836 4.836 0 00-2.841 4.568 4.84 4.84 0 006.835 4.252l-3.994-8.82zm43.961-48.319l.027 1.332c1.596-.394 1.56-.967-.027-1.332zM61.077 27.85c.204.354 1.386.074 2.9-.62-.265-.52-.557-1.056-.858-1.614-1.395.976-2.249 1.877-2.042 2.235zm8.118-4.687c-.137-.237-.711-.192-1.523.073l.702 1.204c.639-.575.958-1.04.82-1.277zM45.783 61.96c-.24.764-.557 1.5-.948 2.199l.976.465-.028-2.663zm-5.382-7.614l-.437 1.386-.292-1.003.73-.383zm39.985-21.643c0 .438 1.313.803 3.137.94.027-.74.037-1.35.046-1.88-1.852.128-3.183.502-3.183.94zM48.875 44.824a1.353 1.353 0 00.23-2.08 1.363 1.363 0 00-1.116-.41c.124-.17.202-.368.228-.576a1.365 1.365 0 00-1.158-1.532 1.345 1.345 0 00-.785.128 1.36 1.36 0 00-2.371-1.213 1.355 1.355 0 00-1.167-1.35l-.091-.018a1.356 1.356 0 00-1.479.93 1.359 1.359 0 00-2.626.41 1.354 1.354 0 00-2.29.784 1.38 1.38 0 00.048.567 1.21 1.21 0 00-.365-.11 1.356 1.356 0 00-1.248 2.19 1.358 1.358 0 00-.749 2.572 1.359 1.359 0 00-.082 2.68 1.355 1.355 0 00.566 2.473c.111.009.224.009.336 0-.114.173-.19.37-.22.575a1.364 1.364 0 001.159 1.533 1.3 1.3 0 00.794-.128 1.356 1.356 0 00.446 1.396 7.057 7.057 0 01-.018-2.636c.63-4.56 3.01-2.198 3.475-.548.11.292.3.301.638-.2.703-1.04 1.989.346.484 1.787-.155.155-.228 1.213.384 2.362.198.18.446.294.711.329a1.365 1.365 0 001.051-.3 1.36 1.36 0 00.49-.977 1.352 1.352 0 002.299-.775 1.414 1.414 0 00-.036-.557 1.358 1.358 0 001.632-2.07 1.358 1.358 0 00.757-2.572 1.365 1.365 0 001.176-1.158 1.344 1.344 0 00-1.103-1.506z" fill="#E9E9E9"/><path d="M90.163 40.665A25.427 25.427 0 0177.02 74.347m-6.211-48.439a25.33 25.33 0 0112.777 5.901M55.623 28.28a25.242 25.242 0 016.995-2.299M40.502 71.219L50.644 93.6M35.066 59.217L20.756 27.66c-.775-1.68.32-3.165 2.152-2.928l24.844 3.247a8.651 8.651 0 016.72 4.925l28.11 60.678" stroke="#000" stroke-width=".565" stroke-linecap="round" stroke-linejoin="round"/><path d="M40.107 56.309a41.684 41.684 0 01-10.23 5.023c-1.778.256-3.569.41-5.363.465m1.814 3.94l-3.577-7.698a2.663 2.663 0 00-3.538-1.286L8.644 61.687a2.664 2.664 0 00-1.286 3.539l6.311 13.571a2.664 2.664 0 003.539 1.286l10.46-4.88M13.88 59.234s-7.107-.654-10.024-2.727c-2.916-2.073-.494-7.104 3.256-4.433 3.81 2.712 6.768 7.16 6.768 7.16z" stroke="#000" stroke-width=".565" stroke-linecap="round" stroke-linejoin="round"/><path d="M13.872 59.235s4.42-5.6 4.925-9.148c.506-3.549-4.809-5.243-5.453-.695-.66 4.636.528 9.843.528 9.843zm26.077-3.456l.452-1.44s-4.258 2.89-3.475-3.33c.562-4.464 2.899-2.304 3.44-.662.127.384.281.506.672-.077.702-1.04 1.996.355.483 1.788-.29.276-.18 2.323 1.56 3.813 1.104.946 4.524 1.605 9.476.192m-12.885-1.335a19.037 19.037 0 001.213 3.576" stroke="#000" stroke-width=".565" stroke-linecap="round" stroke-linejoin="round"/><path d="M42.371 55.121c-1.104 3.53-4.35 7.451-6.895 10.644-3.71.318-7.444.232-11.136-.256M56.153 63.2a10.262 10.262 0 01-11.314.96 68.146 68.146 0 01-4.264 6.956 4.068 4.068 0 01-2.17 1.632 76.011 76.011 0 01-14.766 2.974" stroke="#000" stroke-width=".565" stroke-linecap="round" stroke-linejoin="round"/><path d="M51.684 65.262c1.715 2.745 3.537 4.4 4.552 3.93 3.137-1.455-4.164-17.249-7.352-15.778-.71.329-.875 1.623-.576 3.42m32.078-24.131c.091 2.81.438 12.96.438 14.009-1.605.246-14.273 3.292-14.994 3.42" stroke="#000" stroke-width=".565" stroke-linecap="round" stroke-linejoin="round"/><path d="M70.992 61.23c19.235-6.767 18.814-6.447 19.2-11.728.246-3.365-.155-13.015-.392-16.809M61.077 27.85c1.386 2.445 6.912 11.584 7.406 12.505-.528.392-2.946 3.01-4.944 4.888m12.077 2.609c3.766-5.828 3.035-7.277 1.872-9.704-1.507-3.137-6.476-12.02-8.318-15.012M63.147 7.23c-1.623 2.909-3.32 9.585-3.456 12.613.484.775.949 1.541 1.396 2.299a16.669 16.669 0 014.332-2.764c.008-.843.255-4.728-2.272-12.149z" stroke="#000" stroke-width=".565" stroke-linecap="round" stroke-linejoin="round"/><path d="M20.698 25.73a5.792 5.792 0 016.048-3.47l24.36 3.137a6.292 6.292 0 014.91 3.595l29.923 64.59" stroke="#000" stroke-width=".565" stroke-linecap="round" stroke-linejoin="round"/><path d="M25.728 28.589c.336.73.22 1.505-.264 1.733-.484.228-1.159-.183-1.496-.912-.337-.73-.22-1.509.265-1.733.485-.224 1.16.182 1.495.912zm-15.196 3.886l2.435 5.271m1.414-3.857L9.12 36.333m71.393.027c3.08 1.012 6.233.912 9.476 0m-27.045-5.328a13.648 13.648 0 008.044-4.81M45.418 6.627l-6.302 2.645 5.6-3.922-1.45-2.635a.613.613 0 00-.994-.11l-7.58 8.437a.613.613 0 00.557 1.012l11.19-1.888a.61.61 0 00.438-.894l-1.459-2.645zm38.305 70.547c4.396 2.362 5.317-4.378 9.713-2.016M20.547 64.943a17.508 17.508 0 01-4.97-2.006c-.931-.511-1.28.003-.375.802.839.711 1.75 1.332 2.718 1.852" stroke="#000" stroke-width=".565" stroke-linecap="round" stroke-linejoin="round"/><path d="M17.088 65.115a24.465 24.465 0 01-2.892-1.13c-.937-.495-1.211.144-.255.875a27.55 27.55 0 003.648 2.098m-1.384-.692a20.772 20.772 0 01-2.116-.61c-.98-.368-1.184.316-.155.902a21.789 21.789 0 003.393 1.414m7.981 3.711c-.256.082-4.734-1.149-7.37-2.17-1.056-.411-2.16-.823-3.192-1.332-1.039-.513-.977-1.025.027-.794.365.084.794.137 1.496.228" stroke="#000" stroke-width=".565" stroke-linecap="round" stroke-linejoin="round"/><path d="M22.252 70.926c-.128 2.636.392 4.75 1.204 4.816 2.03.164 2.832-9.9.812-10.251a7.664 7.664 0 01-3.858-2.171c-2-2.187-2.627-1.715-.73 1.34m24.953 15.706a4.84 4.84 0 00-2.023 7.11 4.838 4.838 0 008.722-1.601 4.834 4.834 0 00-1.21-4.436 4.838 4.838 0 00-3.562-1.498 4.843 4.843 0 00-1.927.425zm23.039-57.13c.811-.265 1.384-.31 1.523-.073.384.654-2.404 2.496-3.057 2.896-.864.528-4.594 2.6-5.06 1.791-.207-.357.647-1.258 2.042-2.234" stroke="#000" stroke-width=".565" stroke-linecap="round" stroke-linejoin="round"/><path d="M65.42 19.378a16.293 16.293 0 00-4.324 2.755c1.012 1.714 2.07 3.504 2.882 5.088a19.352 19.352 0 004.396-2.784l-2.955-5.06zm24.797-4.351c-2.253 1.943-6.339 8.428-7.096 10.772.137 1.13.246 1.933.32 2.617 1.679.224 3.383.19 5.052-.1l-.018-.748c1.952-6.375 2.025-9.112 1.742-12.54z" stroke="#000" stroke-width=".565" stroke-linecap="round" stroke-linejoin="round"/><path d="M88.493 28.315a16.61 16.61 0 01-5.053.1c.17 1.738.197 3.486.082 5.227 1.705.142 3.421.047 5.1-.283-.127-5.093-.104-4.182-.129-5.044zm-9.486-5.143a.95.95 0 11-1.158-1.505.95.95 0 011.158 1.505zm-29.03 23.157a1.361 1.361 0 01-1.176 1.158 1.357 1.357 0 01-.757 2.572 1.344 1.344 0 01.274 1.021 1.36 1.36 0 01-1.533 1.159 1.337 1.337 0 01-.373-.11c.048.181.06.37.036.556a1.355 1.355 0 01-1.65 1.137 1.352 1.352 0 01-.648-.361.523.523 0 01-.01.118 1.363 1.363 0 01-1.532 1.158 1.32 1.32 0 01-.71-.328c-.612-1.149-.54-2.208-.385-2.362 1.488-1.457.218-2.828-.484-1.787-.29.431-.514.582-.667.106-.525-1.643-2.823-3.832-3.446.641a7.086 7.086 0 00.018 2.637 1.356 1.356 0 01-.483-1.232.953.953 0 01.036-.164 1.33 1.33 0 01-.793.127 1.37 1.37 0 01-1.158-1.532 1.43 1.43 0 01.219-.576c-.112.01-.224.01-.336 0a1.354 1.354 0 01-.566-2.471 1.36 1.36 0 01.082-2.682 1.358 1.358 0 01.748-2.572 1.356 1.356 0 011.613-2.08 1.35 1.35 0 012.243-1.35 1.358 1.358 0 012.627-.41c.485-1.499 2.757-1.088 2.736.438a1.361 1.361 0 012.371 1.213c.243-.12.516-.166.785-.127a1.365 1.365 0 011.16 1.534 1.246 1.246 0 01-.229.576 1.373 1.373 0 011.487 1.541 1.353 1.353 0 01-.602.948 1.34 1.34 0 011.103 1.504zM12.722 59.781l2.079 4.47m2.289 4.915l4.197 9.011M15.146 58.65l2.481 5.327m3.002 6.457l1.988 4.268m.311.648l.784 1.696" stroke="#000" stroke-width=".565" stroke-linecap="round" stroke-linejoin="round"/><path d="M83.568 31.763c-.802.055-3.504.35-3.153 1.066.367.746 3.936.878 4.84.875 3.61-.009 6.212-1.002 3.33-1.677M44.84 64.157c.361-.715.685-1.448.97-2.196v2.672" stroke="#000" stroke-width=".565" stroke-linecap="round" stroke-linejoin="round"/></svg>