<svg width="96" height="96" fill="none" xmlns="http://www.w3.org/2000/svg"><path d="M62.656 27.615a5.636 5.636 0 00-8.88 6.768c.684-.438 2.27-1.705 2.189-1.095-.092.611-1.532 1.843-1.532 1.843.008.06.01.121.01.182a5.629 5.629 0 006.18 1.582 5.63 5.63 0 003.693-5.203 5.628 5.628 0 00-1.66-4.077zM49.807 55.6a11.191 11.191 0 00-2.262-1.604 135.078 135.078 0 00-14.304-6.75c-.138-.51-.248-.855-.248-.855l-5.188-1.505s-6.101 4.824-4.615 9.146c.821 2.4 4.067 5.609 15.02 8.125a157.706 157.706 0 01-4.294 16.864c.424-.92 2.853-1.465 5.726-1.142 3.09.346 5.498 1.468 5.389 2.517l.036.045c.684-6.255.918-12.55.7-18.84l9.38 13.868c-.527-.747.883-2.893 3.198-4.848 2.352-1.989 4.742-3.02 5.343-2.317l.037.018-13.918-12.721z" fill="#09AFF4"/><path d="M85.107 52.172a2.003 2.003 0 10-3.42 2.087 2.003 2.003 0 003.42-2.087zM68.1 63.315a2.003 2.003 0 103.42-2.087 2.003 2.003 0 00-3.42 2.087zm12.576-43.334a1.105 1.105 0 001.868-.822 1.101 1.101 0 00-.705-1.004 1.103 1.103 0 00-1.163 1.826zM13.304 21.04a.88.88 0 000 .948.839.839 0 00.711.291l-.711-1.24zm4.276-2.098a.69.69 0 00-.738-.292c.246.392.483.794.739 1.185a.931.931 0 000-.893zm46.161 49.369c-.401-.474-1.605-.173-3.064.675l1.997 2.088c1.003-1.23 1.45-2.297 1.067-2.763zm-7.131 4.05c-1.221 1.396-1.814 2.645-1.385 3.156.437.52 1.833.11 3.465-.93l-2.08-2.226zM36.284 24.44a1.839 1.839 0 00-2.325-.218 3.399 3.399 0 00-2.017.164 2.304 2.304 0 10-2.087 3.484 3.39 3.39 0 00.975 2.042s1.733 2.098.647 3.155a3.109 3.109 0 001.195-2.389.517.517 0 00-.045-.264c-1.113-1.267.018-2.298.51-1.414.237.43.392.429.502.201.42-1.13 2.335-2.672 2.8-.656v-.01c.073.385.107.776.1 1.168 0-.228.009-.94.009-1.614a3.397 3.397 0 00-.037-1.322 1.829 1.829 0 00-.227-2.326zm8.781 55.983c.083-.711-1.003-1.45-2.663-1.968l-.346 3.301c1.723-.138 2.928-.63 3.01-1.333zm-11.198-1.25c-.082.739 1.104 1.523 2.9 2.034l.384-3.392c-1.861.118-3.193.62-3.284 1.358zm34.18-4.058a24.124 24.124 0 01-7.706 1.248l1.185 1.277a20.912 20.912 0 0010.788.848 28.327 28.327 0 00-4.267-3.373zM42.439 88.61a36.63 36.63 0 01-5.891-5.434l-.212 1.831c.547 1.523 1.669 4.678 5.891 8.592.467-1.332.403-3.21.212-4.988zM35.71 39.34a15.205 15.205 0 01-.459 2.09c.368.272.755.516 1.16.729-.219-.94-.465-2.052-.702-2.818zm-2.308-6.985c.174.457.336.93.493 1.478a1.684 1.684 0 01.237-.96 2.142 2.142 0 01-.73-.517zm4.825 29.811l-1.113 5.426 2.134-5.197-1.021-.229zM25.79 36.287l.782 2.852.72-1.66s-1.419-1.127-1.503-1.192zm20.643-19.981L41.9 15.129l1.706-6.556 2.662-.94 1.87 2.125-1.705 6.548z" fill="#E9E9E9"/><path d="M67.826 12.85a1.245 1.245 0 11-2.406.64 1.245 1.245 0 012.406-.64zm3.913 2.233a1.241 1.241 0 01-.448 1.31 1.245 1.245 0 11.448-1.31zm-5.189 2.654l4.049-6.958m14.508 41.393a2.003 2.003 0 10-3.42 2.087 2.003 2.003 0 003.42-2.087zM68.1 63.315a2.003 2.003 0 103.418-2.087 2.003 2.003 0 00-3.419 2.087zm13.624-8.928l-10.141 6.958" stroke="#000" stroke-width=".565" stroke-linecap="round" stroke-linejoin="round"/><path d="M83.1 51.24l-5.717-28.414 4.058-3.639" stroke="#000" stroke-width=".565" stroke-linecap="round" stroke-linejoin="round"/><path d="M82.016 45.825l-20.099 10.97-10.77-9.675 27.586-17.573 3.283 16.278zm-1.342-25.844a1.105 1.105 0 101.529-1.595 1.105 1.105 0 00-1.529 1.595zM51.558 39.695c.192-.063 3.504-1.163 5.318-2.744m-.968.293a4.673 4.673 0 00-.117-.795" stroke="#000" stroke-width=".565" stroke-linecap="round" stroke-linejoin="round"/><path d="M54.44 35.31c.082.1.17.192.264.292a5.637 5.637 0 10-.935-1.23M26.58 39.204l.703-1.715-1.495-1.2m8.107-2.415l-.521-1.536c.243.193.503.365.777.514m.819 2.695c-1.56-.027-3.183-1.167-4.569-2.444" stroke="#000" stroke-width=".565" stroke-linecap="round" stroke-linejoin="round"/><path d="M30.392 33.103l-.31 2.307 2.827-.237 1.87 2.052.19-1.678M16.841 18.65a.7.7 0 01.74.292c.393.546-.256 1.668-1.432 2.507-1.176.84-2.453 1.076-2.837.528a.88.88 0 010-.948M52.76 37.353c.484-.328 1.788-1.259 1.67-2.234 0 0 1.44-1.231 1.531-1.842.092-.61-1.531.674-2.208 1.104a30.974 30.974 0 01-3.538 1.96M35.709 39.34l.702 2.819m.127-12.457c0-.228.01-.939.01-1.614a3.397 3.397 0 00-.037-1.322 1.837 1.837 0 00-2.553-2.544 3.391 3.391 0 00-2.016.164 2.305 2.305 0 10-2.088 3.484c.081.772.425 1.493.975 2.042 0 0 1.81 2.192.571 3.225m27.289 41.45c-1.632 1.04-3.035 1.448-3.475.93-.864-1.02 2.037-3.936 3.21-4.927 1.104-.932 4.46-3.294 5.317-2.278.384.456-.064 1.542-1.067 2.773m5.371 4.03a24.111 24.111 0 01-7.706 1.248" stroke="#000" stroke-width=".565" stroke-linecap="round" stroke-linejoin="round"/><path d="M60.676 68.996l2.326 2.426a12.61 12.61 0 003.328 2.708 26.144 26.144 0 015.992 4.36 20.911 20.911 0 01-10.788-.85l-4.925-5.28m-14.553 9.393c1.723-.136 2.932-.63 3.01-1.331.152-1.398-3.446-2.263-5.008-2.473-1.879-.251-6.026-.265-6.192 1.223-.082.74 1.104 1.523 2.9 2.034m-.218 1.97a35.485 35.485 0 005.89 5.435" stroke="#000" stroke-width=".565" stroke-linecap="round" stroke-linejoin="round"/><path d="M37.157 77.84L36.336 85c.547 1.523 1.669 4.678 5.891 8.592.676-1.962.22-5.177-.1-7.231a16.351 16.351 0 01-.11-4.287c.041-.38-.023.254.382-3.608m-5.504-10.191l2.334-5.909-1.03-.23" stroke="#000" stroke-width=".565" stroke-linecap="round" stroke-linejoin="round"/><path d="M33.919 78.98a147.204 147.204 0 004.28-16.842c-10.954-2.514-14.197-5.735-15.011-8.124-1.488-4.32 4.614-9.147 4.614-9.147" stroke="#000" stroke-width=".565" stroke-linecap="round" stroke-linejoin="round"/><path d="M32.453 49.5a73.343 73.343 0 0111.673 7.925 4.337 4.337 0 011.614 3.182c.277 6.613.055 13.237-.666 19.816M32.991 46.371c.4 1.258.67 2.553.803 3.866m21.323 25.126l-9.342-13.807" stroke="#000" stroke-width=".565" stroke-linecap="round" stroke-linejoin="round"/><path d="M33.228 47.22a137.997 137.997 0 0114.327 6.757 10.91 10.91 0 012.261 1.605L63.64 68.214M17.57 19.835s-2.243-3.009-1.86-5.216c.393-2.261-.06-2.304-1.048-.264-.655 1.35-.876 4.505-.876 4.505m.23 3.419s-2.01-3.445-3.11-5.808c-.823-1.768.238-1.067.539-.474" stroke="#000" stroke-width=".565" stroke-linecap="round" stroke-linejoin="round"/><path d="M13.038 14.61c-.137-.66-.21-1.333-.219-2.007 0-2.024.495-1.925.93-.21.204.806.45 1.601.74 2.38m-1.076-.509a5.211 5.211 0 00-1.35 3.207" stroke="#000" stroke-width=".565" stroke-linecap="round" stroke-linejoin="round"/><path d="M12.893 13.662a17.08 17.08 0 01-.539-1.44c-.61-1.86-.993-1.45-.792.246.144 1.183.432 2.343.856 3.456" stroke="#000" stroke-width=".565" stroke-linecap="round" stroke-linejoin="round"/><path d="M11.753 13.698c-.63-2.034-1.097-1.668-.839.192a12.279 12.279 0 001.149 3.575M23.854 65.63l-1.268 4.916m3.092-1.814l-4.915-1.277m25.669-51.149L41.9 15.129l1.706-6.556 2.662-.94 1.87 2.125-1.706 6.548z" stroke="#000" stroke-width=".565" stroke-linecap="round" stroke-linejoin="round"/><path d="M46.35 9.476a.537.537 0 11-.383-.657.548.548 0 01.383.657zm-.432-.669c2.955-1.724-.65-4.685 2.322-6.408m11.589 27.184l-2.298 4.04m3.174-.865l-4.04-2.308m-43.403-8.541c2.344 4.67 7.027 9.877 12.528 14.38a82.867 82.867 0 012.016 8.578l5.189 1.505a37.45 37.45 0 002.259-4.944 18.079 18.079 0 004.507 2.216 3.865 3.865 0 002.444.054 68.389 68.389 0 009.41-3.638 8.072 8.072 0 00-1.622-4.012 37.228 37.228 0 01-8.544 2.736 30.67 30.67 0 01-6.96-3.548c-.768-.505-.69-1.596-.336-2.386.915.448 2.32.536 2.387-3.085.072-3.648-2.308-1.948-2.865-.652-.127.298-.259.384-.536-.114-.491-.885-1.632.144-.51 1.413.045.148.058.304.036.456-.377 1.982-1.377 3.12-2.973 1.776-4.633-3.893-8.29-7.395-12.11-13.705m17.669 22.49a6.81 6.81 0 00.449-2.937" stroke="#000" stroke-width=".565" stroke-linecap="round" stroke-linejoin="round"/></svg>