<svg width="244" height="244" fill="none" xmlns="http://www.w3.org/2000/svg"><path d="M57.854 147.538a6.745 6.745 0 00-3.818-3.503 6.751 6.751 0 00-5.176.234l-10.34 4.822 6.305 13.542a38.57 38.57 0 005.055 1.83c-4.846-7.766-3.084-9.11 2.017-3.547 4.908 5.356 10.964 5.809 15.043 6.19l-9.086-19.568zm-1.298 32.731a236.89 236.89 0 01-4.124-1.251l5.053 10.848a28.697 28.697 0 01-.928-9.597zm3.572 12.172c-.692.294-1.414-.254-1.855-.929l2.017 4.313 10.037-4.683c-2.874.396-8.507 1.089-10.2 1.299zm-16.715-16.642c-1.993-.788-4.033-1.6-5.957-2.55-2.596-1.275-2.44-2.596.093-1.994.927.209 2.016.348 3.801.579a49.89 49.89 0 01-5.957-2.666c-2.62-1.482-2.11-3.199.394-2.294.672.255 2.225.741 4.033 1.205l-.278-.58a45.427 45.427 0 01-4.148-2.664c-2.41-1.856-1.715-3.479.65-2.227.347.186.88.417 1.53.696l-5.286-11.359-10.316 4.822a6.747 6.747 0 00-3.269 8.994l16.04 34.494a6.756 6.756 0 003.819 3.502 6.746 6.746 0 005.176-.234l10.34-4.822-10.665-22.902zm72.024-158.956l-16.019 6.724 14.234-9.969-3.686-6.699a1.56 1.56 0 00-1.921-.697 1.55 1.55 0 00-.605.419L88.176 28.064a1.56 1.56 0 001.414 2.573l28.443-4.799a1.555 1.555 0 001.143-.848 1.554 1.554 0 00-.03-1.423l-3.709-6.724z" fill="#09AFF4"/><path d="M124.247 135.764c-1.808.836-2.225 4.126-1.464 8.694a55.365 55.365 0 0010.826-1.971c-3.59-4.821-7.253-7.697-9.362-6.723zm18.476 24.873a26.574 26.574 0 01-11.36 5.246c4.359 6.977 8.995 11.196 11.568 9.99 2.573-1.188 2.342-7.423-.208-15.236zm86.579-122.442c-5.726 4.938-16.111 21.42-18.035 27.377.347 2.874.625 4.914.811 6.653 4.269.57 8.6.484 12.843-.255l-.047-1.901c4.961-16.203 5.146-23.158 4.428-31.874zm-68.801-19.82c-4.126 7.394-8.438 24.363-8.784 32.06a274.667 274.667 0 013.546 5.842 41.187 41.187 0 0111.012-7.025c.072-4.313.647-12.017-5.774-30.877zM56.557 180.271c-.325 6.7.998 12.078 3.06 12.24 1.953.163 3.918-4.289 4.706-10.316a45.726 45.726 0 01-7.766-1.924zm56.888 23.969a12.296 12.296 0 00-6.438 6.873 12.307 12.307 0 0016.591 15.544l-10.153-22.417zM225.178 81.428l.069 3.384c4.057-1 3.964-2.457-.069-3.384zm-69.94-10.641c.519.899 3.523.185 7.371-1.577-.672-1.321-1.414-2.684-2.179-4.103-3.546 2.48-5.717 4.77-5.192 5.68zm20.633-11.915c-.348-.603-1.808-.488-3.871.185l1.785 3.06c1.622-1.46 2.434-2.642 2.086-3.245zm-59.505 98.611a29.517 29.517 0 01-2.411 5.587l2.48 1.183-.069-6.77zm-13.678-19.353l-1.112 3.523-.742-2.55 1.854-.973zm101.625-55.011c0 1.113 3.338 2.04 7.974 2.388.07-1.878.093-3.431.116-4.776-4.705.325-8.09 1.275-8.09 2.388zm-80.09 30.809a3.441 3.441 0 001.53-2.411 3.473 3.473 0 00-.943-2.874 3.46 3.46 0 00-2.839-1.043 3.14 3.14 0 00.58-1.464 3.468 3.468 0 00-2.944-3.894 3.42 3.42 0 00-1.993.324 3.456 3.456 0 00-1.964-4.085 3.46 3.46 0 00-4.063 1.002 3.442 3.442 0 00-2.967-3.43l-.232-.047a3.445 3.445 0 00-3.756 2.364 3.46 3.46 0 00-3.615-2.214 3.454 3.454 0 00-3.038 2.956c-.02.1-.027.2-.023.302a3.528 3.528 0 00-1.924-.95 3.439 3.439 0 00-3.894 2.943c-.06.483-.02.973.119 1.439a3.101 3.101 0 00-.927-.279 3.454 3.454 0 00-3.912 3.683c.053.687.31 1.343.74 1.882a3.451 3.451 0 00-1.903 6.538 3.457 3.457 0 00-2.997 3.319 3.458 3.458 0 002.788 3.496 3.44 3.44 0 00-.422 5.412 3.442 3.442 0 001.86.87c.283.023.569.023.853 0a3.61 3.61 0 00-.556 1.464 3.468 3.468 0 002.944 3.894 3.305 3.305 0 002.016-.325 3.448 3.448 0 001.136 3.548 17.932 17.932 0 01-.046-6.7c1.6-11.59 7.649-5.587 8.831-1.391.279.742.765.765 1.623-.51 1.786-2.642 5.054.881 1.23 4.543-.394.394-.581 3.083.976 6.004a3.329 3.329 0 001.808.834 3.45 3.45 0 003.554-1.874 3.45 3.45 0 00.363-1.371 3.443 3.443 0 003.533.83 3.442 3.442 0 002.309-2.8 3.606 3.606 0 00-.093-1.414 3.446 3.446 0 003.091-.118 3.454 3.454 0 001.754-2.548 3.39 3.39 0 00-.696-2.596 3.451 3.451 0 001.924-6.537 3.46 3.46 0 002.99-2.944 3.414 3.414 0 00-2.805-3.828z" fill="#E9E9E9"/><path d="M229.164 103.355a64.623 64.623 0 011.165 49.776 64.628 64.628 0 01-34.568 35.832M179.974 65.849a64.38 64.38 0 0132.476 14.998m-71.074-8.972a64.157 64.157 0 0117.779-5.84m-56.212 114.978l25.778 56.886m-39.593-87.392L52.758 70.3c-1.971-4.27.81-8.043 5.47-7.442l63.145 8.252c3.671.48 7.16 1.88 10.145 4.068a21.98 21.98 0 016.935 8.45l71.443 154.223" stroke="#000" stroke-width=".565" stroke-linecap="round" stroke-linejoin="round"/><path d="M101.94 143.116a105.933 105.933 0 01-26.004 12.769 121.973 121.973 0 01-13.63 1.182m4.613 10.013l-9.091-19.566a6.772 6.772 0 00-8.994-3.268l-26.862 12.54a6.775 6.775 0 00-3.27 8.994l16.042 34.495a6.772 6.772 0 008.994 3.268l26.588-12.403m-35.048-40.588s-18.063-1.662-25.476-6.931c-7.412-5.269-1.256-18.056 8.276-11.267 9.684 6.893 17.2 18.198 17.2 18.198z" stroke="#000" stroke-width=".565" stroke-linecap="round" stroke-linejoin="round"/><path d="M35.259 150.553s11.231-14.232 12.517-23.251c1.286-9.019-12.223-13.326-13.859-1.765-1.679 11.782 1.342 25.016 1.342 25.016zm66.278-8.784l1.149-3.66s-10.822 7.348-8.831-8.462c1.428-11.346 7.367-5.856 8.742-1.682.322.976.715 1.284 1.708-.195 1.784-2.644 5.073.901 1.229 4.543-.738.7-.456 5.903 3.965 9.69 2.806 2.406 11.497 4.08 24.084.488m-32.749-3.389a48.397 48.397 0 003.083 9.086" stroke="#000" stroke-width=".565" stroke-linecap="round" stroke-linejoin="round"/><path d="M107.696 140.098c-2.806 8.97-11.059 18.938-17.526 27.052-9.43.809-18.92.59-28.304-.65m80.857-5.866a26.078 26.078 0 01-28.755 2.44 173.069 173.069 0 01-10.839 17.68 10.335 10.335 0 01-5.516 4.148 193.195 193.195 0 01-37.53 7.557" stroke="#000" stroke-width=".565" stroke-linecap="round" stroke-linejoin="round"/><path d="M131.364 165.873c4.359 6.978 8.99 11.187 11.568 9.991 7.975-3.7-10.582-43.842-18.684-40.104-1.808.836-2.225 4.126-1.464 8.694m81.531-61.334c.232 7.14 1.112 32.94 1.112 35.606-4.079.626-36.277 8.368-38.109 8.692" stroke="#000" stroke-width=".565" stroke-linecap="round" stroke-linejoin="round"/><path d="M180.439 155.627c48.89-17.202 47.818-16.389 48.8-29.81.624-8.554-.394-33.08-.996-42.722m-73.004-12.309c3.524 6.212 17.568 29.44 18.824 31.781-1.342.997-7.488 7.651-12.566 12.426m30.694 6.629c9.573-14.813 7.715-18.496 4.758-24.665-3.831-7.971-16.459-30.552-21.141-38.155m-15.307-40.428c-4.126 7.394-8.438 24.363-8.784 32.06a274.42 274.42 0 013.546 5.842 42.388 42.388 0 0111.012-7.025c.02-2.142.647-12.017-5.774-30.877z" stroke="#000" stroke-width=".565" stroke-linecap="round" stroke-linejoin="round"/><path d="M52.61 65.396a14.722 14.722 0 0115.371-8.82l61.917 7.975a15.998 15.998 0 0112.477 9.135l76.056 164.168" stroke="#000" stroke-width=".565" stroke-linecap="round" stroke-linejoin="round"/><path d="M65.394 72.662c.854 1.854.556 3.825-.672 4.404-1.229.58-2.944-.463-3.802-2.318-.857-1.854-.56-3.834.673-4.404 1.233-.57 2.947.464 3.801 2.318zM26.771 82.54l6.19 13.397m3.593-9.804l-13.375 6.212m181.458.069c7.828 2.57 15.841 2.318 24.086 0m-68.739-13.541a34.69 34.69 0 0020.444-12.224m-64.99-49.806l-16.019 6.724 14.234-9.969-3.686-6.699a1.56 1.56 0 00-1.921-.697 1.55 1.55 0 00-.605.419L88.177 28.064a1.56 1.56 0 001.414 2.573l28.443-4.799a1.555 1.555 0 001.143-.848 1.554 1.554 0 00-.03-1.423l-3.709-6.724zm97.359 179.305c11.174 6.004 13.515-11.127 24.688-5.124m-185.26-25.961a44.529 44.529 0 01-12.634-5.099c-2.365-1.298-3.252.007-.95 2.039a39.723 39.723 0 006.907 4.707" stroke="#000" stroke-width=".565" stroke-linecap="round" stroke-linejoin="round"/><path d="M43.431 165.501a62.013 62.013 0 01-7.348-2.874c-2.384-1.258-3.08.366-.649 2.225a70.03 70.03 0 009.272 5.333m-3.517-1.759a52.831 52.831 0 01-5.378-1.553c-2.493-.935-3.011.805-.394 2.295a55.362 55.362 0 008.623 3.592m20.285 9.434c-.65.209-12.032-2.919-18.73-5.516-2.685-1.044-5.49-2.092-8.114-3.385-2.64-1.303-2.484-2.606.07-2.016.926.213 2.016.347 3.801.579" stroke="#000" stroke-width=".565" stroke-linecap="round" stroke-linejoin="round"/><path d="M56.558 180.27c-.325 6.699.998 12.072 3.06 12.239 5.163.418 7.199-25.163 2.064-26.054a19.485 19.485 0 01-9.805-5.518c-5.084-5.558-6.677-4.358-1.855 3.407m63.422 39.917a12.302 12.302 0 00-7.238 11.363 12.303 12.303 0 002.095 6.71 12.296 12.296 0 0021.745-11.087 12.316 12.316 0 00-16.602-6.986zm58.555-145.205c2.063-.672 3.519-.786 3.871-.185.976 1.664-6.108 6.343-7.77 7.362-2.196 1.342-11.675 6.608-12.861 4.552-.525-.909 1.646-3.199 5.192-5.68" stroke="#000" stroke-width=".565" stroke-linecap="round" stroke-linejoin="round"/><path d="M166.274 49.251a41.413 41.413 0 00-10.989 7.002c2.573 4.357 5.262 8.906 7.326 12.932a49.187 49.187 0 0011.173-7.076l-7.51-12.858zm63.028-11.058c-5.726 4.938-16.111 21.42-18.035 27.377.347 2.875.625 4.914.811 6.653 4.269.57 8.6.484 12.843-.255l-.047-1.9c4.961-16.204 5.146-23.159 4.428-31.875z" stroke="#000" stroke-width=".565" stroke-linecap="round" stroke-linejoin="round"/><path d="M224.922 71.968a42.23 42.23 0 01-12.843.255 81.83 81.83 0 01.209 13.283 46.9 46.9 0 0012.959-.719c-.321-12.945-.262-10.628-.325-12.82zm-24.111-13.074a2.416 2.416 0 01-3.635-.842 2.415 2.415 0 011.535-3.4 2.417 2.417 0 012.54.858 2.424 2.424 0 01-.44 3.384zm-73.784 58.857a3.456 3.456 0 01-2.99 2.943 3.452 3.452 0 01-1.924 6.537 3.424 3.424 0 01.696 2.596 3.448 3.448 0 01-4.845 2.666c.123.461.155.941.093 1.414a3.445 3.445 0 01-2.309 2.8 3.444 3.444 0 01-3.533-.83c.004.102-.004.203-.023.302a3.467 3.467 0 01-3.894 2.944 3.362 3.362 0 01-1.808-.835c-1.553-2.921-1.373-5.612-.976-6.004 3.782-3.704.554-7.187-1.23-4.543-.739 1.098-1.308 1.48-1.695.271-1.335-4.176-7.176-9.739-8.76 1.63a18.011 18.011 0 00.047 6.7 3.45 3.45 0 01-1.228-3.13c.018-.142.05-.281.092-.418a3.38 3.38 0 01-2.016.325 3.482 3.482 0 01-2.944-3.894 3.63 3.63 0 01.556-1.464c-.284.023-.57.023-.854 0a3.443 3.443 0 01-1.437-6.282 3.457 3.457 0 01-1.899-5.706 3.457 3.457 0 012.108-1.109 3.45 3.45 0 011.9-6.537 3.448 3.448 0 013.172-5.564c.322.043.635.137.928.278a3.511 3.511 0 01-.116-1.437 3.431 3.431 0 013.894-2.944 3.483 3.483 0 011.924.95 3.45 3.45 0 016.676-1.043c1.233-3.811 7.007-2.767 6.954 1.113a3.46 3.46 0 016.119 2.642c-.017.15-.048.297-.092.441a3.397 3.397 0 011.993-.325 3.47 3.47 0 012.948 3.899 3.171 3.171 0 01-.58 1.464 3.493 3.493 0 013.103 1.369c.55.728.793 1.643.675 2.549a3.446 3.446 0 01-1.529 2.411 3.401 3.401 0 012.804 3.821zm-94.693 34.191l5.285 11.359m5.821 12.495l10.663 22.903M38.5 149.067l6.305 13.538m7.628 16.413l5.053 10.848m.788 1.646l1.994 4.312" stroke="#000" stroke-width=".565" stroke-linecap="round" stroke-linejoin="round"/><path d="M212.402 80.73c-2.038.14-8.906.89-8.013 2.711.934 1.895 10.004 2.23 12.303 2.224 9.174-.023 15.788-2.546 8.46-4.262m-111.18 81.661a59.126 59.126 0 002.462-5.582v6.792" stroke="#000" stroke-width=".565" stroke-linecap="round" stroke-linejoin="round"/></svg>