<svg width="96" height="96" fill="none" xmlns="http://www.w3.org/2000/svg"><path d="M55.972 48.934l-4.704-1.122-20.395-21.069a17.332 17.332 0 00-7.45 7.16l8.582 9.321-9.868-2.352c-1.952 3.028-2.791 6.211-2.352 9.586l25.026 6.667c2.096 2.272 3.102 3.557 5.099 4.704 2.052 1.176 5.39 2.483 9.084 1.516.463-.063-1.526-10.114-3.022-14.411zm11.884-33.847L65.275 9.68a3.273 3.273 0 00-4.36-1.55l-2.663 1.267 5.39 11.319 2.663-1.268a3.27 3.27 0 001.682-1.858 3.273 3.273 0 00-.131-2.502zm-3.256.684a.09.09 0 01-.027.065.09.09 0 01-.129 0 .09.09 0 01-.026-.065v-2.044l-1.36.602a.097.097 0 01-.114-.04.098.098 0 01-.014-.042V12.07a.09.09 0 01.027-.065.09.09 0 01.129 0 .09.09 0 01.027.065v2.042l1.36-.602a.086.086 0 01.081.01.09.09 0 01.032.03.088.088 0 01.014.043v2.18z" fill="#09AFF4"/><path d="M75.228 39.678c.053.22.059.45.018.675a5.721 5.721 0 001.696-1.159c-.557.21-1.13.372-1.714.484zm-17.977 7.926c-1.03-2.5-3.147-6.713-4.998-6.23-1.213.32-1.742 2.627-1.56 5.856l.566.584 4.706 1.122a7.584 7.584 0 00-.73-1.651c.638.118 1.358.218 2.016.319zM22.72 18.217c-.784 1.396-1.094 6.412-1.896 9.111a14.307 14.307 0 00-.602 3.057 7.31 7.31 0 001.623 1.87 18.558 18.558 0 013.557-5.638c-.932-2.4-.717-5.126-2.681-8.4zm-4.833 25.072c-2.121-1.574-3.276-3.896-6.75-5.673.083 1.596 2.5 6.01 3.256 8.719.264 1.006.64 1.979 1.122 2.9a7.288 7.288 0 002.372.712 18.694 18.694 0 010-6.658zm49.925-3.629c-.283 2.662 1.13 3.2 2.553.966a9.354 9.354 0 01-2.553-.967zm1.852-4.452c.456.22 1.204.402 1.386.274l.274-.666c-.438-.529-1.104-.207-1.66.392zm9.104-1.595c-.401-1.484-1.505-3.256-4.04-5.454a57.015 57.015 0 00-1.323 6.621 14.284 14.284 0 013.666-.42c.11-.236.34.015.63.849.01.027.036.1.064.192a.418.418 0 01.182-.018 24.715 24.715 0 00-.128-1.232c-.268-2.152.36-2.451.93-.291.037.136.11.51.193.966a5.054 5.054 0 00-.174-1.213zm-1.224 15.504l-.456 3.128s1.359-1.732 1.833-2.544l-1.377-.584zM29.753 72.064l9.412 1.833-8.82-7.853-9.411-1.833 8.82 7.853z" fill="#E9E9E9"/><path d="M39.147 73.898l8.774-5.755-10.288-1.25-3.657 2.4 5.171 4.605z" fill="#E9E9E9"/><path d="M29.752 72.063l9.412 1.833-8.82-7.852-9.411-1.834 8.82 7.853z" stroke="#000" stroke-width=".565" stroke-linejoin="round"/><path d="M39.146 73.897l8.774-5.755-10.288-1.25-3.657 2.4 5.171 4.605z" stroke="#000" stroke-width=".565" stroke-linejoin="round"/><path d="M37.66 33.748a22.564 22.564 0 0120.994 2.217M27.372 42.12a23.403 23.403 0 011.632-2.152m-5.208 11.557a23.07 23.07 0 00-.21 3.092 22.38 22.38 0 002.666 10.638M68.03 59.55a22.499 22.499 0 01-25.368 17.305 22.499 22.499 0 01-10.024-4.198m35.684-60.88c1.396-.875 3.257-1.314 4.843-.748 2.627.938 3.953 4.087 3.302 6.704-.608 2.445-2.544 4.57-3.858 6.658-2.215 3.52-3.12 6.138-1.815 10.16" stroke="#000" stroke-width=".565" stroke-linecap="round" stroke-linejoin="round"/><path d="M66.134 11.467l1.121 2.343.794-.383a.912.912 0 00.429-1.204l-.336-.712a.912.912 0 00-1.204-.428l-.804.384zm-2.482 9.248l-5.39-11.319-5.345 2.545 5.39 11.319 5.345-2.545z" stroke="#000" stroke-width=".565" stroke-linecap="round" stroke-linejoin="round"/><path d="M67.867 15.088L65.285 9.67a3.271 3.271 0 00-4.36-1.55l-2.663 1.276 5.39 11.32 2.663-1.269a3.268 3.268 0 001.863-3.122 3.267 3.267 0 00-.313-1.237z" stroke="#000" stroke-width=".565" stroke-linecap="round" stroke-linejoin="round"/><path d="M63.015 12.074v2.13l1.485-.6v2.175m-6.191 7.48l-5.39-11.319-5.345 2.545 5.39 11.318 5.345-2.544zM43.523 20.04a3.271 3.271 0 011.55-4.359l2.5-1.195 5.39 11.319-2.5 1.194a3.271 3.271 0 01-4.359-1.55l-2.581-5.408zm1.287 37.085l-25.035-6.667c-.437-3.375.402-6.558 2.353-9.586l9.877 2.352m23.96 5.709l-4.697-1.121m7.277 12.194c-1.58.3-3.211.158-4.715-.41a12.339 12.339 0 01-5.071-3.436L25.757 30.624m-5.955 16.221l20.357 5.235m33.244-17.274c-.603 4.806.538 5.582 3.53 4.387" stroke="#000" stroke-width=".565" stroke-linecap="round" stroke-linejoin="round"/><path d="M54.96 51.634L30.868 26.747a17.328 17.328 0 00-7.444 7.156l23.54 25.565a12.25 12.25 0 002.937 2.362c2.056 1.18 5.396 2.483 9.093 1.517m13.377-22.696c3.174 1.632 2.9-.811 2.9-.811l-.019-.17m-.145 1.046c-.456 2.097-9.184 7.524-22.017.748" stroke="#000" stroke-width=".565" stroke-linecap="round" stroke-linejoin="round"/><path d="M50.692 47.228c-.182-3.229.346-5.537 1.56-5.855 1.85-.486 3.968 3.73 4.998 6.229a26.576 26.576 0 00-2.016-.32M22.72 18.217c-.247-.42-.456-.658-.612-.639-.967.121-1.212 5.61-2.033 8.364a11.61 11.61 0 00-.54 2.873 4.26 4.26 0 00.686 1.57c.082-1.039.284-2.064.602-3.056.802-2.7 1.112-7.716 1.896-9.112z" stroke="#000" stroke-width=".565" stroke-linecap="round" stroke-linejoin="round"/><path d="M25.4 26.616c-.62-1.596-.708-3.065-1.112-4.578a16.385 16.385 0 00-1.568-3.822c-.785 1.396-1.1 6.41-1.897 9.111a14.219 14.219 0 00-.602 3.057c.43.71.98 1.343 1.623 1.87a18.548 18.548 0 013.557-5.638zm-3.555 5.637l1.578 1.65m1.978-7.288l2.09 2.345m-16.355 8.656c-.429-.22-.74-.31-.858-.21-.747.63 1.962 5.392 2.745 8.153.247.947.609 1.86 1.077 2.719.4.415.881.744 1.413.966a13.82 13.82 0 01-1.121-2.9c-.751-2.72-3.173-7.132-3.256-8.728z" stroke="#000" stroke-width=".565" stroke-linecap="round" stroke-linejoin="round"/><path d="M17.886 43.287c-1.377-1.021-2.244-2.215-3.384-3.274a16.488 16.488 0 00-3.365-2.4c.082 1.596 2.496 6.011 3.256 8.719.263 1.006.64 1.979 1.121 2.9a7.288 7.288 0 002.372.712 18.69 18.69 0 010-6.657zm.009 6.659l1.88.511m-1.888-7.169l2.635.757M81.711 60.79a3.238 3.238 0 01-.557 3.553 3.238 3.238 0 01-4.994-.288 3.236 3.236 0 115.551-3.264z" stroke="#000" stroke-width=".565" stroke-linecap="round" stroke-linejoin="round"/><path d="M77.853 60.152l.922 1.998 1.96-.903m-9.412-26.431a.746.746 0 00-.32-.228c-.815-.297-2.06 1.14-2.763 3.183-.702 2.044-.6 3.928.228 4.213.548.19 1.268-.373 1.906-1.358" stroke="#000" stroke-width=".565" stroke-linecap="round" stroke-linejoin="round"/><path d="M71.004 34.587a70.11 70.11 0 01-6.903-1.989c-2.609-.903-6.97.466-4.862 5.464 1.03 2.444 4.013 5.244 6.403 6.694m2.826-2.772l-6.476-3.274" stroke="#000" stroke-width=".565" stroke-linecap="round" stroke-linejoin="round"/><path d="M73.95 39.385c-.201.255-.4.503-.594.72-.887 1-3.21.83-5.554-.438m3.229-4.205c-.182.137-.912-.045-1.368-.255" stroke="#000" stroke-width=".565" stroke-linecap="round" stroke-linejoin="round"/><path d="M72.6 34.268c.008-.1.026-.768.036-.857.045-1.605-.324-1.33-.894.319a39.034 39.034 0 01-1.66 3.84" stroke="#000" stroke-width=".565" stroke-linecap="round" stroke-linejoin="round"/><path d="M74.05 31.049c-.155-.566-.61-.091-.985 1.35-.309 1.185-.548 2.207-.785 2.981m1.086-.236a2.805 2.805 0 00-1.469.456m14.666 14.896l-6.432-3.365c.51-2.8 2.125-5.582 4.416-6.978 0 0 5.27 3.43 7.999 6.175 2.694 2.71.528 8.452-5.956 6.813-2.14-.545-4.975-2.217-7.67-3.444-5.516 8.832-15.795 12.199-19.008 13.367a10.43 10.43 0 01-.92.285c.537-.073-2.308-13.984-3.759-16.063 3.594.711 14.602 2.042 21.917-5.472" stroke="#000" stroke-width=".565" stroke-linecap="round" stroke-linejoin="round"/><path d="M80.809 37.77s.565-1.415 1.296-1.68c.784-.283-.595 2.29-.52 3.721.027.511 1.67 1.341 1.67 1.341m-3.415-7.048c-.063-.812.07-3.43.685-.894.117.682.193 1.37.228 2.061.13 1.15.109 2.312-.064 3.456M78 36.082c-.037-.1-.256-.72-.283-.811-.547-1.505-.796-1.113-.711.629.07 1.469-.08 3.612-.11 4.187-.11 2.143.848 2.763 3.785 4.997" stroke="#000" stroke-width=".565" stroke-linecap="round" stroke-linejoin="round"/><path d="M79.203 36.612c-.118-1.03-.366-2.4-.447-2.7-.571-2.157-1.202-1.851-.93.292.156 1.222.174 2.143.246 2.955m.703-3.183c-.01-4.176.816-2.418 1.04-.091.1 1.048.218 1.824.236 2.444" stroke="#000" stroke-width=".565" stroke-linecap="round" stroke-linejoin="round"/><path d="M78.776 33.65c-.384-1.494-1.493-3.276-4.05-5.493a57.015 57.015 0 00-1.323 6.621 14.29 14.29 0 013.667-.42m-3.932 8.41c.556.51 1.094.96 2.727.246m1.076-3.821c-.374.548-1.696 1.159-1.696 1.159m15.193-13.91c-.082.466-2.572.384-5.563-.182-2.991-.566-5.345-1.395-5.263-1.86.083-.465 2.572-.384 5.564.182 2.992.566 5.344 1.395 5.262 1.86z" stroke="#000" stroke-width=".565" stroke-linecap="round" stroke-linejoin="round"/><path d="M87.822 30.3c-.392.238-1.964-1.748-3.51-4.45-1.548-2.702-2.482-5.08-2.09-5.317.392-.237 1.962 1.75 3.512 4.45s2.48 5.08 2.088 5.318zM2.4 58.875l4.733 4.086 1.25-8.546M34.23 13.874a1 1 0 11-1.999-.064 1 1 0 011.999.064zM51.012 84.02l3.904 4.178m.136-4.042l-4.177 3.904M78.92 49.694c-.465-.212-.925-.41-1.377-.588l-.456 3.138" stroke="#000" stroke-width=".565" stroke-linecap="round" stroke-linejoin="round"/></svg>