<svg width="96" height="96" fill="none" xmlns="http://www.w3.org/2000/svg"><path d="M45.618 8.478c-3.579.1-6.402 2.832-6.302 6.101.11 3.807 4.025 6.42 7.95 5.564l-.209-2.468a3.132 3.132 0 012.769-3.46l2.431-.21c-.2-3.169-3.133-5.628-6.639-5.527z" fill="#000"/><path fill-rule="evenodd" clip-rule="evenodd" d="M42.23 72.4l29.18-2.459a3.017 3.017 0 002.75-3.26l-1.694-19.9a3.017 3.017 0 00-3.26-2.75l-15.59 1.312c-.276.42-.456.639-.87.964a3.524 3.524 0 01-4.587-.264l-.213-.211-4.864.409c1.614 5.725 1.783 9.698 1.902 15.371a12.837 12.837 0 01-.672 4.918L42.23 72.4zm16.994-12.95l2.942 1.375-.529-6.248-2.668 1.858a2.354 2.354 0 00-2.531-1.976l-5.693.492a2.357 2.357 0 00-2.051 1.642 2.356 2.356 0 00-.098.917l.228 2.64a2.352 2.352 0 002.56 2.15l5.682-.474a2.36 2.36 0 002.158-2.377z" fill="#000"/><path d="M80.607 46.864a1.651 1.651 0 01-.354 1.225 1.659 1.659 0 01-2.942-.88l-.264-2.495a1.658 1.658 0 013.296-.346l.264 2.496z" fill="#000"/><path d="M62.339 16.784c.141.33.248.676.319 1.029a4.99 4.99 0 00.474-1.829 13.2 13.2 0 01-.793.8zM37.576 29.306c.078.43.226.845.438 1.229.7 0 1.475-.09 1.666-.373.027-.048.055-.1.082-.155-.264.52-1.22-.008-2.186-.701zM13.47 49.56c-1.693-2.431-12.467 6.448-10.919 8.688l.264.237c2.24 1.248 11.976-7.012 10.656-8.925zm18.433 31.346c-2.214 1.053 4.633 13.403 6.72 11.648 1.249-1.812-4.971-12.486-6.72-11.648zM11.075 57.283a1.277 1.277 0 00-.036.483c.091.583.838.61 1.339.473a3.393 3.393 0 00-1.303-.956zm4.836-4.753c.346.427.701.855 1.02 1.247a1.91 1.91 0 00.1-.473.793.793 0 00-1.12-.775zm16.575-18.451a.513.513 0 10.507.263.505.505 0 00-.507-.263zm-3.643 4.234a.513.513 0 10.11 1.02.513.513 0 00-.11-1.02zm2.159 5.591a.514.514 0 10.11 1.023.514.514 0 00-.11-1.023zm-4.737-6.557a.513.513 0 10.109 1.02.513.513 0 00-.108-1.02zm10.556-1.266a.513.513 0 10.108 1.02.513.513 0 00-.108-1.02zm-2.969 4.153a.512.512 0 10.109 1.019.512.512 0 00-.11-1.019zm5.328 1.931a.514.514 0 10.109 1.022.514.514 0 00-.11-1.022zm2.212-8.835a.513.513 0 10.507.264.506.506 0 00-.507-.263zm4.773 8.616a.514.514 0 10.109 1.022.514.514 0 00-.11-1.022zm.018-4.782a.513.513 0 00.456-.564.513.513 0 00-1.02.11.512.512 0 00.564.454zm5.565 5.866a.516.516 0 00-.438.364.513.513 0 10.438-.365zm.638-5.427a.515.515 0 00-.436.663.515.515 0 00.736.297.516.516 0 00.204-.696.512.512 0 00-.505-.264zm4.553-1.822a.514.514 0 10-1.022.11.514.514 0 001.022-.11zM72.138 7.285a2.977 2.977 0 00-5.86-.465 5.285 5.285 0 00-7.51 5.018 14.94 14.94 0 013.36-.51c.062.373.147.742.255 1.104.1.228.255.246.528-.173.611-.883 1.85.483.401 1.54a11.707 11.707 0 002.352 2.887 5.31 5.31 0 003.566-6.164 2.979 2.979 0 002.908-3.237zM33.542 55.27l.1 3.695 1.301-1.174a11.939 11.939 0 01-1.401-2.521zm8.361-16.875l1.293 1.84.073 2.358-1.366-4.199zm-2.232-12.468a.677.677 0 00-.027-1.34.68.68 0 00-.51-1.22.68.68 0 00-.912-.947.682.682 0 00-1.22-.537.708.708 0 00-1.385-.137.682.682 0 00-1.302.283.683.683 0 00-1.093.737.679.679 0 00-.747 1.084.682.682 0 00-.3 1.311.679.679 0 00.036 1.34.68.68 0 00.52 1.21.68.68 0 00.92.939.68.68 0 001.22.528.689.689 0 001.001.564c.082-.1 1.2-1.475 1.594-1.976-.965-1.093-.164-1.803.355-1.083.273.391.672.282.437-.884a5.43 5.43 0 00.864-.473c.192.737.336 1.366.455 1.894a.685.685 0 00.094-1.293z" fill="#E9E9E9"/><path d="M39.58 27.22a57.337 57.337 0 00-.455-1.895 5.43 5.43 0 01-.864.473c.237 1.166-.16 1.273-.437.884-.513-.724-1.32-.009-.355 1.084a197.92 197.92 0 01-1.594 1.976.69.69 0 01-1.002-.565.68.68 0 01-1.22-.528.681.681 0 01-.92-.938.68.68 0 01-.519-1.211.679.679 0 01-.036-1.339.683.683 0 01.3-1.311.678.678 0 01.747-1.084.683.683 0 011.091-.736.682.682 0 011.303-.282.708.708 0 011.384.137.682.682 0 011.22.537.68.68 0 01.913.947.68.68 0 01.51 1.22.678.678 0 01.027 1.34.686.686 0 01-.093 1.29z" stroke="#000" stroke-width=".565" stroke-linecap="round" stroke-linejoin="round"/><path d="M39.69 23.486l2.441-.2a2.216 2.216 0 012.404 2.03l.665 7.987m-1.84 9.162l.373-.028c.326-.003.644-.098.92-.273m-18.196 1.72l-4.899.419a2.226 2.226 0 01-2.404-2.03l-1.248-14.718a2.226 2.226 0 012.031-2.404l11.98-1.01M42.23 72.4l29.18-2.459a3.017 3.017 0 002.75-3.26l-1.694-19.9a3.018 3.018 0 00-3.26-2.75l-15.59 1.312m-10.52.892l4.845-.41m10.873-32.387l-8.998.775a3.135 3.135 0 00-2.769 3.45l1.804 20.756m6.502 3.044l27.294-2.359a3.024 3.024 0 002.632-2.167m-.874-13.005l-.81-9.426a3.134 3.134 0 00-3.325-2.924l-10.992.948" stroke="#000" stroke-width=".565" stroke-linecap="round" stroke-linejoin="round"/><path d="M74.414 26.673c-.938 1.475-2.914 5.783-4.061 8.578a10.717 10.717 0 015.28 4.454m-15.89-8.315c.333 1.716.768 3.41 1.302 5.073-.5 1.885-.7 3.56-.938 4.59m.511-16.674a7.322 7.322 0 00-1.166 3.542m10.892 7.339c-2.568 1.85-7.422 2.833-9.298 1.203m8.132-.501a11.065 11.065 0 013.205 4.025m-9.719-22.185a5.033 5.033 0 00.468-1.818c-.282.31-.547.572-.793.8" stroke="#000" stroke-width=".565" stroke-linecap="round" stroke-linejoin="round"/><path d="M73.112 29.115l3.26 5.51c2.523 4.572 7.776 6.01 11.075-.82 1.556-3.224 2.294-5.391 3.66-7.632a13.623 13.623 0 01-5.908-3.478 56.583 56.583 0 00-4.035 7.148C74.56 15.81 73.75 18.283 69.352 18.041a6.126 6.126 0 01-3.68-1.357m-9.616 12.539c1.302-4.426 4.22-6.472 5.5-7.868a3.901 3.901 0 00.783-4.572c-2.294 2.022-3.56.41-3.56-4.944" stroke="#000" stroke-width=".565" stroke-linecap="round" stroke-linejoin="round"/><path d="M69.907 18.058a30.036 30.036 0 00-4.909 4.992 2.079 2.079 0 01-3.533-.491 16.109 16.109 0 01-.31-.775m20.008 8.059l-1.083 2.44m-44.207-2.541c-1.273 1.632-2.173 1.525-4.571 2.595-4.882 2.177-3.206 10.902-3.206 10.902M39.58 27.22c.399 1.844.363 2.55.101 2.932-.192.283-.965.373-1.666.373" stroke="#000" stroke-width=".565" stroke-linecap="round" stroke-linejoin="round"/><path d="M39.764 30c-.255.527-1.222 0-2.188-.702.183.838.31 1.842.993 1.885 6.054.38 6.694 1.065 11.948 10.08" stroke="#000" stroke-width=".565" stroke-linecap="round" stroke-linejoin="round"/><path d="M49.871 40.143c.228-.638 1.64-3.543 2.46-6.166a7.403 7.403 0 015.072 1.32c-.565 2.678-2.203 6.74-3.616 9.726a3.52 3.52 0 01-5.628 1.02 44.993 44.993 0 01-6.247-7.667m.008 0l1.349 4.217" stroke="#000" stroke-width=".565" stroke-linecap="round" stroke-linejoin="round"/><path d="M31.968 46.035c2.705.864 7.33.537 10.947-.446.546-1.075.318-5.319.318-5.319M31.94 45.825c-1.166 1.676-3.457 1.738-4.509-.009-1.326-2.208-1.894-5.355-2.176-8.852 0 0 2.064-.66 2.928-.402m6.76 21.229l-9.617 8.515a3.503 3.503 0 01-4.608.018l-9.461-8.185M23.97 59.44l-7.157-6.749" stroke="#000" stroke-width=".565" stroke-linecap="round" stroke-linejoin="round"/><path d="M30.473 36.901s1.584 6.384 1.484 9.298a9.607 9.607 0 00-4.214 4.891c-1.163 3.143-5.191 6.967-5.191 6.967m20.362-12.468c1.784 6.074 1.962 10.128 2.085 16.01a12.838 12.838 0 01-.672 4.918l-4.17 11.73a16.353 16.353 0 01-7.16-2.523l4.172-11.948a8.194 8.194 0 00-1.92-5.601 10.646 10.646 0 01-2.35-5.556m.881-21.255s1.456 1.602 4.917-.174m-12.722 5.565a22.786 22.786 0 00-.465-4.135 14.495 14.495 0 00-1.148-3.024c-.724-1.413-.49-1.796.675-.51a20.236 20.236 0 012.814 4.736" stroke="#000" stroke-width=".565" stroke-linecap="round" stroke-linejoin="round"/><path d="M27.446 32.922c.579.656.925-1.344 1.142-1.786.3-.61.672-1.275.647.601-.007.519.055 1.348.137 2.167m-4.409-2.968a27.297 27.297 0 00-1.038-1.038c-.796-.762-.954-.493-.864-.336.345.605.993 1.538 1.296 2.112.484.928 1.466 2.695 1.52 3.606" stroke="#000" stroke-width=".565" stroke-linecap="round" stroke-linejoin="round"/><path d="M24.326 31.618a16.398 16.398 0 00-.355-.246c-.923-.601-1.02-.328-.912-.192.437.547 1.23 1.356 1.621 1.876.458.641.855 1.324 1.184 2.04m31.111-.099a26.207 26.207 0 011.84-4.216 15.775 15.775 0 012.195-2.815c1.227-1.248 1.104-1.74-.546-.765a22.543 22.543 0 00-4.518 4.08" stroke="#000" stroke-width=".565" stroke-linecap="round" stroke-linejoin="round"/><path d="M56.711 30.417c-.918.685-.58-1.655-.665-2.206-.116-.738-.283-1.566-.875.429-.164.545-.829 2.237-2.083 5.29m6.847-4.752c.373-.228 1.193-.638 1.43-.756 1.093-.547 1.164-.201 1.029-.073-.56.532-1.548 1.303-2.05 1.812-.809.822-2.422 2.368-2.786 3.316" stroke="#000" stroke-width=".565" stroke-linecap="round" stroke-linejoin="round"/><path d="M60.39 30.116c.2-.064.365-.118.456-.144 1.167-.358 1.183-.01 1.02.1-.64.432-1.739 1.03-2.323 1.457a13.987 13.987 0 00-1.912 1.767M13.47 49.56c-1.62-2.329-11.557 5.704-11.052 8.363.078.412.434.78 1.265.668 3.194-.432 10.985-7.308 9.787-9.031zm0 0c.501.637 2.223 2.695 3.452 4.224M39.153 78.12c-.384 1.447-2.54 4.624-.884 8.696.848 2.085 1.339 5.126.192 5.891m-6.85-11.527a361.58 361.58 0 002.15-4.945" stroke="#000" stroke-width=".565" stroke-linecap="round" stroke-linejoin="round"/><path d="M31.903 80.906c-2.036.968 3.4 10.923 5.893 11.83.688.252 1.018-.24.99-.97-.113-3.041-5.309-11.607-6.883-10.86zM15.902 52.528a.798.798 0 01.78.07.792.792 0 01.34.705c-.151 1.92-3.718 5.208-5.322 5.015-.48-.059-.784-.398-.624-1.044m28.512 17.582l2.795-8.84c.485-1.382.69-2.846.6-4.308-.386-6.329-.855-11.22-1.993-15.673m-6.855 26.428a12.574 12.574 0 007.167 2.56M13.953 60.47c2.76-.884 4.308-2.88 5.237-5.483" stroke="#000" stroke-width=".565" stroke-linecap="round" stroke-linejoin="round"/><path d="M33.542 55.27l-7.75 6.866a3.5 3.5 0 01-4.636.019l-4.089-3.589m17.786-10.109c-.118.018-.29 2.313.019 3.242a7.24 7.24 0 002.222 2.013c.5-.832 1.099-1.6 1.785-2.286-.091-1.157-.2-1.767-.328-2.988a13.51 13.51 0 01-3.698.019zm-5.163-.464a2.93 2.93 0 011.339.346c-.838.41-1.685 2.496-1.685 2.496l-1.867.893M88.94 18.24c1.44.454 2.241 1.192 3.168 2.376m-3.522-1.702a5.15 5.15 0 011.475 3.888" stroke="#000" stroke-width=".565" stroke-linecap="round" stroke-linejoin="round"/><path d="M91.353 19.715a11.424 11.424 0 001.392-2.386c.672-1.575 1.084-1.138.71.355-.1.4-.2.747-.29 1.038-.264.838-.523 1.685-.766 2.532-.258.9-1.968 4.709-1.968 4.709-1.603-.428-3.27-1.594-4.571-2.669.027-.054.72-1.329.746-1.375a1.428 1.428 0 00-.164-1.62c-.658-.79-1.54-1.969-1.248-2.287.454-.493 1.885 1.174 2.65 1.275.274.036.492-.792.538-1.093.082-.546.37-2.404.391-2.586.199-1.689.802-1.402.793.09-.01 1.422-.01 2.341-.01 2.341" stroke="#000" stroke-width=".565" stroke-linecap="round" stroke-linejoin="round"/><path d="M89.441 18.404s.993-3.114 1.056-3.324c.494-1.63 1.012-1.257.766.21-.237 1.402-.493 3.114-.493 3.114" stroke="#000" stroke-width=".565" stroke-linecap="round" stroke-linejoin="round"/><path d="M90.527 18.905a27.54 27.54 0 001.257-2.933c.59-1.603 1.024-1.194.747.264a19.507 19.507 0 01-.647 2.678m-11.277 27.95a1.651 1.651 0 01-.354 1.225 1.659 1.659 0 01-2.942-.88l-.264-2.495a1.658 1.658 0 013.296-.346l.264 2.496z" stroke="#000" stroke-width=".565" stroke-linecap="round" stroke-linejoin="round"/><path d="M75.963 46.208l.127 1.23a2.895 2.895 0 005.756-.601l-.127-1.23m-2.45 4.408l.245 2.294m-1.229.129l2.45-.255M59.224 59.45l2.942 1.376-.529-6.248-2.668 1.858" stroke="#000" stroke-width=".565" stroke-linecap="round" stroke-linejoin="round"/><path d="M56.438 54.46a2.356 2.356 0 012.531 1.975l.246 2.832a2.362 2.362 0 01-2.149 2.56l-5.682.473a2.358 2.358 0 01-1.728-.541 2.348 2.348 0 01-.832-1.608l-.227-2.64a2.355 2.355 0 011.261-2.305 2.36 2.36 0 01.888-.255l5.692-.492zm15.7-47.175a2.975 2.975 0 00-5.856-.473 5.293 5.293 0 012.96 3.706 2.976 2.976 0 002.896-3.233z" stroke="#000" stroke-width=".565" stroke-linecap="round" stroke-linejoin="round"/><path d="M69.324 11.172a5.289 5.289 0 00-10.555.665 14.94 14.94 0 013.36-.51c.061.373.146.742.254 1.104.1.227.255.246.528-.173.611-.884 1.85.482.401 1.539a11.708 11.708 0 002.352 2.887 5.31 5.31 0 003.66-5.512zM8.344 41.91l1.903-.192m3.369-.345l1.904-.191m-3.954-3.225l.192 1.904m.346 3.369l.192 1.904m-3.16-5.865l1.484 1.202m2.623 2.139l1.485 1.211m-.52-5.072l-1.202 1.485m-2.141 2.622l-1.21 1.485M52.44 20.107l-1.104-2.696a5.514 5.514 0 00.928-3.408c-.2-3.168-3.142-5.628-6.648-5.527-3.579.1-6.402 2.832-6.302 6.101.1 3.452 3.328 5.923 6.856 5.715a7.012 7.012 0 003.526-1.216l2.744 1.031zm-20.984-1.376a1.179 1.179 0 11-1.63-1.702 1.179 1.179 0 011.63 1.702zM80.161 3.195l.41 4.973m2.286-2.696l-4.972.419M12.378 58.238a3.297 3.297 0 00-1.301-.965c-.884-.32-1.75-.037-2.78.255-2.073.576-4.296 1.827-5.462.963m30.807.476l-.1-3.697" stroke="#000" stroke-width=".565" stroke-linecap="round" stroke-linejoin="round"/></svg>