<svg width="346" height="346" fill="none" xmlns="http://www.w3.org/2000/svg"><path d="M164.416 30.555c-12.901.36-23.075 10.207-22.715 21.991.394 13.72 14.507 23.14 28.655 20.054l-.756-8.895a11.294 11.294 0 019.979-12.473l8.764-.755c-.721-11.421-11.291-20.284-23.927-19.922z" fill="#09AFF4"/><path fill-rule="evenodd" clip-rule="evenodd" d="M152.206 260.942l105.165-8.863a10.874 10.874 0 007.387-3.825 10.875 10.875 0 002.526-7.927l-6.105-71.719a10.876 10.876 0 00-11.75-9.913l-56.191 4.728c-.993 1.515-1.64 2.304-3.131 3.476a12.7 12.7 0 01-16.534-.953l-.767-.76-17.53 1.473c5.815 20.637 6.426 34.954 6.853 55.401a46.256 46.256 0 01-2.422 17.726l-7.501 21.156zm61.247-46.676l10.604 4.957-1.905-22.518-9.617 6.695a8.487 8.487 0 00-9.124-7.12l-20.516 1.773a8.462 8.462 0 00-5.796 2.998 8.492 8.492 0 00-1.95 6.226l.821 9.515a8.46 8.46 0 002.998 5.796 8.494 8.494 0 002.916 1.598 8.506 8.506 0 003.31.351l20.481-1.705a8.498 8.498 0 007.386-5.92c.27-.858.403-1.753.392-2.649v.003z" fill="#09AFF4"/><path d="M290.523 168.905a5.98 5.98 0 01-1.277 4.415 5.969 5.969 0 01-1.798 1.503 5.977 5.977 0 01-8.807-4.671l-.952-8.996a5.98 5.98 0 011.32-4.352 5.978 5.978 0 018.367-.878 5.974 5.974 0 012.195 3.983l.952 8.996z" fill="#09AFF4"/><path d="M224.68 60.49a18.947 18.947 0 011.148 3.71 17.965 17.965 0 001.711-6.59 47.74 47.74 0 01-2.859 2.88zm-89.247 45.132a14.574 14.574 0 001.576 4.431c2.527 0 5.318-.327 6.006-1.345.099-.173.197-.361.296-.558-.951 1.875-4.394-.028-7.878-2.528zm-86.883 73c-6.104-8.764-44.934 23.239-39.355 31.313l.951.853c8.076 4.498 43.164-25.272 38.405-32.166zM114.984 291.6c-7.979 3.794 16.696 48.305 24.22 41.982 4.501-6.532-17.918-45.001-24.22-41.982zm-75.067-85.143a4.6 4.6 0 00-.13 1.74c.329 2.101 3.019 2.199 4.825 1.706a12.233 12.233 0 00-4.695-3.446zm17.43-17.134c1.247 1.543 2.527 3.085 3.676 4.498.192-.55.314-1.124.361-1.706a2.854 2.854 0 00-1.226-2.541 2.864 2.864 0 00-2.811-.251zm59.738-66.496a1.854 1.854 0 00-.989.419 1.854 1.854 0 00-.579 1.972 1.85 1.85 0 003.604-.749 1.839 1.839 0 00-.671-1.252 1.827 1.827 0 00-1.365-.39zm-13.13 15.259a1.848 1.848 0 00-1.568 2.391c.109.349.32.658.604.888a1.856 1.856 0 002.047.183 1.85 1.85 0 00-1.083-3.462zm7.78 20.152a1.854 1.854 0 00-1.578 1.316 1.845 1.845 0 00.612 1.962 1.85 1.85 0 10.966-3.278zm-17.068-23.633a1.854 1.854 0 00-1.578 1.317 1.846 1.846 0 00.613 1.961 1.849 1.849 0 10.965-3.278zm38.044-4.564a1.847 1.847 0 00-1.569 2.391 1.85 1.85 0 101.569-2.391zm-10.704 14.97a1.848 1.848 0 00-.962 3.279 1.848 1.848 0 002.999-1.639 1.854 1.854 0 00-.678-1.243 1.85 1.85 0 00-1.359-.397zm19.203 6.959a1.849 1.849 0 101.834 2.696 1.847 1.847 0 00-1.834-2.696zm7.977-31.841a1.854 1.854 0 00-1.578 1.317 1.845 1.845 0 001.608 2.364 1.848 1.848 0 002.004-2.039 1.815 1.815 0 00-1.313-1.584 1.828 1.828 0 00-.721-.058zm17.2 31.05a1.854 1.854 0 00-1.578 1.317 1.845 1.845 0 001.608 2.364 1.848 1.848 0 001.327-3.281 1.847 1.847 0 00-1.357-.4zm.066-17.233a1.853 1.853 0 001.244-.677 1.845 1.845 0 00.398-1.358 1.851 1.851 0 00-2.03-1.591 1.85 1.85 0 00-1.646 1.986 1.846 1.846 0 001.316 1.577c.233.068.477.089.718.063zm20.056 21.139a1.853 1.853 0 00-1.578 1.316 1.845 1.845 0 00.612 1.962 1.85 1.85 0 10.966-3.278zm2.298-19.559a1.847 1.847 0 00-1.569 2.391 1.847 1.847 0 002.652 1.071 1.85 1.85 0 00-1.083-3.462zm16.411-6.567a1.856 1.856 0 00-.418-.989 1.857 1.857 0 00-1.973-.58 1.847 1.847 0 00-1.29 1.599 1.853 1.853 0 00.984 1.804 1.848 1.848 0 002.697-1.834zm54.779-102.704a10.727 10.727 0 00-9.845-9.851 10.726 10.726 0 00-11.274 8.177 19.052 19.052 0 00-18.619 1.432 19.046 19.046 0 00-8.446 16.655 53.842 53.842 0 0112.11-1.84c.222 1.345.528 2.674.919 3.98.362.82.919.886 1.903-.625 2.201-3.183 6.664 1.74 1.445 5.548a42.157 42.157 0 008.477 10.406 19.14 19.14 0 0010.07-7.622 19.144 19.144 0 003.126-12.236 19.499 19.499 0 00-.346-2.357c.237.002.472-.012.708-.04a10.742 10.742 0 009.772-11.627zM120.894 199.202l.361 13.321 4.688-4.233a43.015 43.015 0 01-5.049-9.088zm30.131-60.822l4.661 6.631.263 8.501-4.924-15.132zm-8.041-44.936a2.444 2.444 0 00-.099-4.825 2.45 2.45 0 00-.255-4.121 2.45 2.45 0 00-1.582-.278 2.453 2.453 0 00-3.287-3.413 2.458 2.458 0 00-4.399-1.936 2.554 2.554 0 00-4.99-.493 2.455 2.455 0 00-4.15-.526 2.454 2.454 0 00-.543 1.543 2.465 2.465 0 00-3.94 2.659 2.445 2.445 0 00-2.691 3.906 2.46 2.46 0 00-1.083 4.727 2.444 2.444 0 00-1.357 4.034c.387.431.914.712 1.488.79a2.452 2.452 0 00-.77 2.915 2.444 2.444 0 002.642 1.452 2.454 2.454 0 003.315 3.38 2.453 2.453 0 001.431 2.726 2.45 2.45 0 002.966-.823 2.493 2.493 0 001.257 1.991 2.49 2.49 0 002.354.046c.296-.362 4.325-5.318 5.745-7.124-3.479-3.938-.592-6.498 1.28-3.905.985 1.412 2.422 1.017 1.575-3.185a19.615 19.615 0 003.114-1.706 205.131 205.131 0 011.64 6.827 2.465 2.465 0 001.836-2.21 2.468 2.468 0 00-1.497-2.45z" fill="#E9E9E9"/><path d="M142.654 98.103a203.651 203.651 0 00-1.64-6.826 19.528 19.528 0 01-3.114 1.705c.855 4.202-.579 4.588-1.574 3.185-1.851-2.609-4.759-.033-1.28 3.905-1.412 1.806-5.45 6.762-5.745 7.124a2.482 2.482 0 01-3.611-2.036 2.45 2.45 0 01-4.398-1.903 2.447 2.447 0 01-2.949-.424 2.45 2.45 0 01-.365-2.957 2.446 2.446 0 01-2.759-3.042c.139-.528.452-.994.887-1.324a2.444 2.444 0 01-2.112-2.357 2.449 2.449 0 011.98-2.468 2.459 2.459 0 01-.531-4.236 2.46 2.46 0 011.614-.49 2.445 2.445 0 012.692-3.906 2.463 2.463 0 013.934-2.65 2.461 2.461 0 011.936-2.404 2.46 2.46 0 012.758 1.386 2.55 2.55 0 014.989.493 2.458 2.458 0 014.399 1.935 2.455 2.455 0 013.624 1.873 2.454 2.454 0 01-.337 1.54 2.452 2.452 0 011.838 4.4 2.443 2.443 0 012.102 2.37 2.445 2.445 0 01-2.004 2.455 2.467 2.467 0 01.93 3.84 2.47 2.47 0 01-1.264.812z" stroke="#000" stroke-width=".565" stroke-linecap="round" stroke-linejoin="round"/><path d="M143.051 84.646l8.797-.721a7.995 7.995 0 018.665 7.32l2.396 28.785m-6.634 33.02l1.346-.099a6.314 6.314 0 003.315-.984m-65.579 6.197l-17.658 1.51a8.023 8.023 0 01-8.664-7.317l-4.498-53.044a8.022 8.022 0 017.32-8.666l43.176-3.637m37.173 173.932l105.165-8.863a10.874 10.874 0 007.387-3.825 10.875 10.875 0 002.526-7.927l-6.105-71.719a10.876 10.876 0 00-11.75-9.913l-56.191 4.728m-37.913 3.216l17.463-1.478m39.19-116.726l-32.431 2.791a11.3 11.3 0 00-9.979 12.439l6.5 74.805m23.437 10.97l98.371-8.501a10.915 10.915 0 005.95-2.442 10.91 10.91 0 003.536-5.371m-3.152-46.872l-2.922-33.972a11.3 11.3 0 00-11.981-10.537L249.69 45.16" stroke="#000" stroke-width=".565" stroke-linecap="round" stroke-linejoin="round"/><path d="M268.203 96.134c-3.381 5.316-10.503 20.843-14.64 30.918a38.629 38.629 0 0119.03 16.051m-57.267-29.965a158.75 158.75 0 004.694 18.282c-1.806 6.794-2.528 12.833-3.381 16.543m1.838-60.1a26.388 26.388 0 00-4.201 12.768m39.254 26.454c-9.255 6.664-26.751 10.207-33.511 4.334m29.31-1.806a39.873 39.873 0 0111.551 14.508M225.851 64.16a18.135 18.135 0 001.688-6.55 47.158 47.158 0 01-2.859 2.88" stroke="#000" stroke-width=".565" stroke-linecap="round" stroke-linejoin="round"/><path d="M263.509 104.933l11.752 19.857c9.091 16.478 28.026 21.661 39.913-2.953 5.61-11.62 8.271-19.431 13.194-27.507a49.103 49.103 0 01-21.296-12.537 203.883 203.883 0 00-14.542 25.765c-23.797-50.58-26.719-41.662-42.572-42.54a22.082 22.082 0 01-13.261-4.89m-34.664 45.195c4.694-15.952 15.209-23.325 19.824-28.358a14.06 14.06 0 002.824-16.478c-8.272 7.287-12.833 1.477-12.833-17.819" stroke="#000" stroke-width=".565" stroke-linecap="round" stroke-linejoin="round"/><path d="M251.959 65.083a108.293 108.293 0 00-17.693 17.992 7.485 7.485 0 01-10.395 1.253 7.487 7.487 0 01-2.339-3.023 58.307 58.307 0 01-1.116-2.79m72.11 29.043l-3.905 8.797m-159.325-9.159c-4.588 5.882-7.836 5.497-16.477 9.354-17.594 7.846-11.555 39.29-11.555 39.29m41.391-57.738c1.434 6.648 1.304 9.193.361 10.568-.692 1.019-3.479 1.346-6.006 1.346" stroke="#000" stroke-width=".565" stroke-linecap="round" stroke-linejoin="round"/><path d="M143.316 108.121c-.918 1.903-4.403 0-7.883-2.527.657 3.02 1.115 6.639 3.577 6.793 21.822 1.369 24.127 3.841 43.065 36.33" stroke="#000" stroke-width=".565" stroke-linecap="round" stroke-linejoin="round"/><path d="M179.746 144.68c.82-2.298 5.908-12.769 8.863-22.222a26.68 26.68 0 0118.283 4.759c-2.036 9.65-7.943 24.291-13.032 35.052a12.698 12.698 0 01-15.148 6.695 12.704 12.704 0 01-5.136-3.019 162.183 162.183 0 01-22.516-27.633m.031 0l4.858 15.199" stroke="#000" stroke-width=".565" stroke-linecap="round" stroke-linejoin="round"/><path d="M115.219 165.919c9.748 3.114 26.422 1.936 39.454-1.609 1.969-3.873 1.149-19.168 1.149-19.168m-40.708 20.02c-4.2 6.039-12.456 6.262-16.248-.033-4.778-7.958-6.826-19.3-7.844-31.905 0 0 7.44-2.38 10.553-1.448m24.367 76.512l-34.66 30.69a12.63 12.63 0 01-16.609.064l-34.1-29.501m45.821 4.69l-25.8-24.322" stroke="#000" stroke-width=".565" stroke-linecap="round" stroke-linejoin="round"/><path d="M109.829 132.997s5.709 23.009 5.351 33.512a34.625 34.625 0 00-15.19 17.627c-4.192 11.326-18.71 25.109-18.71 25.109m73.39-44.937c6.432 21.893 7.072 36.503 7.515 57.702a46.261 46.261 0 01-2.422 17.726l-15.032 42.276a58.949 58.949 0 01-25.799-9.092l15.033-43.064a29.532 29.532 0 00-6.92-20.186 38.367 38.367 0 01-8.468-20.023m3.169-76.609s5.251 5.776 17.724-.625m-45.852 20.058a82.12 82.12 0 00-1.675-14.902 52.252 52.252 0 00-4.136-10.899c-2.613-5.093-1.765-6.472 2.43-1.837a72.93 72.93 0 0110.142 17.068" stroke="#000" stroke-width=".565" stroke-linecap="round" stroke-linejoin="round"/><path d="M98.92 118.657c2.086 2.363 3.333-4.844 4.117-6.439 1.083-2.199 2.422-4.593 2.33 2.168-.026 1.87.197 4.858.493 7.811m-15.888-10.701c-.952-1.051-3.114-3.149-3.742-3.742-2.869-2.744-3.44-1.777-3.114-1.211 1.245 2.183 3.58 5.546 4.67 7.612 1.745 3.345 5.284 9.715 5.481 12.997" stroke="#000" stroke-width=".565" stroke-linecap="round" stroke-linejoin="round"/><path d="M87.677 113.956a59.954 59.954 0 00-1.28-.886c-3.326-2.168-3.677-1.182-3.288-.692 1.576 1.969 4.438 4.886 5.844 6.761a44.906 44.906 0 014.266 7.352m112.13-.357a94.43 94.43 0 016.631-15.196 56.836 56.836 0 017.909-10.143c4.422-4.499 3.979-6.27-1.968-2.758a81.22 81.22 0 00-16.281 14.705" stroke="#000" stroke-width=".565" stroke-linecap="round" stroke-linejoin="round"/><path d="M204.398 109.627c-3.312 2.469-2.09-5.963-2.4-7.948-.417-2.66-1.017-5.645-3.152 1.543-.59 1.967-2.988 8.064-7.508 19.069m24.677-17.131c1.346-.82 4.301-2.297 5.154-2.723 3.939-1.97 4.197-.726 3.709-.263-2.019 1.919-5.578 4.697-7.385 6.531-2.917 2.96-8.732 8.534-10.045 11.949" stroke="#000" stroke-width=".565" stroke-linecap="round" stroke-linejoin="round"/><path d="M217.658 108.543c.721-.23 1.313-.426 1.641-.519 4.208-1.289 4.265-.036 3.677.362-2.308 1.557-6.266 3.714-8.372 5.25a50.445 50.445 0 00-6.892 6.368M48.55 178.621c-5.842-8.393-41.655 20.559-39.835 30.143.282 1.485 1.566 2.813 4.56 2.407 11.51-1.559 39.592-26.34 35.276-32.55zm0-.003c1.804 2.298 8.008 9.716 12.44 15.224m80.121 87.713c-1.384 5.217-9.151 16.67-3.184 31.346 3.056 7.515 4.825 18.474.692 21.232m-24.685-41.549c.982-2.215 4.555-10.294 7.747-17.819" stroke="#000" stroke-width=".565" stroke-linecap="round" stroke-linejoin="round"/><path d="M114.984 291.598c-7.339 3.49 12.252 39.366 21.237 42.639 2.483.905 3.67-.865 3.571-3.499-.408-10.962-19.136-41.832-24.808-39.14zm-57.67-102.279a2.865 2.865 0 012.81.251 2.852 2.852 0 011.226 2.54c-.544 6.92-13.4 18.774-19.179 18.075-1.73-.211-2.827-1.434-2.249-3.763m102.761 63.371l10.073-31.861a39.617 39.617 0 002.166-15.525c-1.396-22.81-3.084-40.439-7.188-56.488m-24.708 95.25a45.32 45.32 0 0025.833 9.224m-98.571-52.45c9.946-3.185 15.527-10.38 18.874-19.76" stroke="#000" stroke-width=".565" stroke-linecap="round" stroke-linejoin="round"/><path d="M120.891 199.198l-27.933 24.75a12.618 12.618 0 01-16.707.065L61.514 211.08m64.105-36.434c-.426.066-1.051 8.338.065 11.686a26.096 26.096 0 008.01 7.254 42.798 42.798 0 016.434-8.238c-.329-4.17-.723-6.369-1.181-10.768a48.764 48.764 0 01-13.328.066zm-18.611-1.67a10.53 10.53 0 014.825 1.247c-3.02 1.476-6.072 8.996-6.072 8.996l-6.73 3.218M320.558 65.735c5.19 1.64 8.075 4.3 11.418 8.567m-12.699-6.134a18.556 18.556 0 014.135 6.447 18.594 18.594 0 011.182 7.566" stroke="#000" stroke-width=".565" stroke-linecap="round" stroke-linejoin="round"/><path d="M329.254 71.055a41.161 41.161 0 005.017-8.6c2.422-5.677 3.906-4.101 2.56 1.28a66.092 66.092 0 01-1.05 3.743c-.948 3.02-1.882 6.07-2.757 9.126-.929 3.245-7.093 16.97-7.093 16.97-5.777-1.544-11.783-5.744-16.477-9.618.099-.197 2.595-4.79 2.69-4.956a5.151 5.151 0 00-.59-5.843c-2.373-2.847-5.551-7.093-4.498-8.24 1.635-1.776 6.794 4.232 9.552 4.597.984.13 1.773-2.856 1.936-3.94.297-1.968 1.333-8.666 1.411-9.32.715-6.087 2.889-5.055 2.856.327-.032 5.12-.032 8.435-.032 8.435" stroke="#000" stroke-width=".565" stroke-linecap="round" stroke-linejoin="round"/><path d="M322.363 66.328s3.58-11.224 3.806-11.98c1.78-5.873 3.647-4.529 2.758.755-.851 5.056-1.773 11.225-1.773 11.225" stroke="#000" stroke-width=".565" stroke-linecap="round" stroke-linejoin="round"/><path d="M326.274 68.136a99.357 99.357 0 004.53-10.57c2.127-5.778 3.691-4.302 2.691.953a70.129 70.129 0 01-2.33 9.65m-40.642 100.736a5.98 5.98 0 01-1.277 4.415 5.969 5.969 0 01-1.798 1.503 5.977 5.977 0 01-8.807-4.671l-.952-8.996a5.98 5.98 0 011.32-4.352 5.978 5.978 0 018.367-.878 5.974 5.974 0 012.195 3.983l.952 8.996z" stroke="#000" stroke-width=".565" stroke-linecap="round" stroke-linejoin="round"/><path d="M273.784 166.541l.459 4.43a10.4 10.4 0 001.204 3.888 10.391 10.391 0 002.6 3.129 10.42 10.42 0 0011.537 1.07 10.473 10.473 0 003.132-2.601 10.446 10.446 0 002.271-7.651l-.458-4.431m-8.831 15.885l.886 8.271m-4.43.464l8.83-.921m-77.532 26.193l10.603 4.957-1.905-22.518-9.617 6.695" stroke="#000" stroke-width=".565" stroke-linecap="round" stroke-linejoin="round"/><path d="M203.412 196.28a8.486 8.486 0 015.963 1.765 8.483 8.483 0 013.161 5.356l.886 10.207a8.535 8.535 0 01-.36 3.304 8.502 8.502 0 01-7.386 5.92l-20.481 1.706a8.506 8.506 0 01-3.31-.351 8.496 8.496 0 01-4.996-4.197 8.465 8.465 0 01-.918-3.197l-.82-9.515a8.492 8.492 0 01.351-3.308 8.451 8.451 0 011.598-2.918 8.462 8.462 0 015.796-2.998l20.516-1.774zm56.586-170.025a10.728 10.728 0 00-16.961-7.843 10.717 10.717 0 00-4.145 6.137 19.072 19.072 0 0110.668 13.359 10.73 10.73 0 009.927-7.331 10.74 10.74 0 00.511-4.323z" stroke="#000" stroke-width=".565" stroke-linecap="round" stroke-linejoin="round"/><path d="M249.856 40.268a19.06 19.06 0 00-33.171-11.169 19.064 19.064 0 00-4.871 13.565 53.833 53.833 0 0112.11-1.84c.221 1.345.527 2.674.918 3.98.362.82.919.886 1.903-.625 2.201-3.183 6.664 1.74 1.445 5.548a42.18 42.18 0 008.477 10.406 19.137 19.137 0 0013.189-19.865zM30.072 151.048l6.86-.691m12.144-1.246l6.861-.688m-14.249-11.62l.69 6.861m1.249 12.145l.688 6.859m-11.387-21.139l5.349 4.332m9.453 7.713l5.351 4.365m-1.869-18.281l-4.334 5.351m-7.716 9.452l-4.365 5.351M189.001 72.47l-3.979-9.716a19.878 19.878 0 003.347-12.283c-.721-11.418-11.324-20.285-23.96-19.923-12.901.36-23.075 10.207-22.715 21.991.358 12.441 11.996 21.347 24.709 20.598a25.273 25.273 0 0012.709-4.384l9.889 3.716zm-75.625-4.96a4.25 4.25 0 01-7.188-3.16 4.255 4.255 0 012.708-3.868 4.251 4.251 0 014.61 1.022 4.263 4.263 0 01-.13 6.006zm175.539-55.994l1.477 17.922m8.239-9.718l-17.921 1.511M44.611 209.899a11.867 11.867 0 00-4.69-3.477c-3.183-1.151-6.306-.134-10.015.918-7.474 2.076-15.485 6.585-19.69 3.472m111.039 1.712l-.361-13.326" stroke="#000" stroke-width=".565" stroke-linecap="round" stroke-linejoin="round"/></svg>